<?xml version="1.0" encoding="UTF-8"?><svg version="1.1" width="32px" height="32px" viewBox="0 0 32.0 32.0" xmlns="http://www.w3.org/2000/svg" xmlns:xlink="http://www.w3.org/1999/xlink"><defs><clipPath id="i0"><path d="M3923,0 L3923,1019 L0,1019 L0,0 L3923,0 Z"></path></clipPath><clipPath id="i1"><path d="M0.463185641,9.54840297 L1,10.085 L1,10 L6,15 L2.18145258,15.0004156 C3.12213166,20.120446 7.60800664,24 13,24 C16.7828498,24 20.1197103,22.0904928 22.0992815,19.1827785 L23.5345634,20.6188872 C21.1724802,23.8792416 17.3339049,26 13,26 C5.82029825,26 0,20.1797017 0,13 C0,11.804948 0.161252336,10.6475586 0.463185641,9.54840297 Z M13,0 C20.1797017,0 26,5.82029825 26,13 C26,14.772837 25.6451294,16.4627895 25.0025479,18.0026978 L20,13 L24,13 C24,6.92486775 19.0751322,2 13,2 C8.67217556,2 4.92809927,4.49932291 3.13239512,8.13334472 L1.65191968,6.65321819 C3.8770633,2.6831703 8.12518765,0 13,0 Z"></path></clipPath></defs><g transform="translate(-1012.0 -575.0)"><g clip-path="url(#i0)"><g transform="translate(1012.0 575.0)"><g transform="translate(3.0 3.0)"><g clip-path="url(#i1)"><polygon points="0,0 26,0 26,26 0,26 0,0" stroke="none" fill="#FFFFFF"></polygon></g></g></g></g></g></svg>