<?xml version="1.0" encoding="UTF-8"?><svg version="1.1" width="24px" height="24px" viewBox="0 0 24.0 24.0" xmlns="http://www.w3.org/2000/svg" xmlns:xlink="http://www.w3.org/1999/xlink"><defs><clipPath id="i0"><path d="M3039,0 L3039,1019 L0,1019 L0,0 L3039,0 Z"></path></clipPath><clipPath id="i1"><path d="M17.25,0 C17.6642136,0 18,0.335786438 18,0.75 L18,3 L20.25,3 C20.6642136,3 21,3.33578644 21,3.75 C21,4.16421356 20.6642136,4.5 20.25,4.5 L18,4.5 L18,7.5 L20.25,7.5 C20.6642136,7.5 21,7.83578644 21,8.25 C21,8.66421356 20.6642136,9 20.25,9 L18,9 L18,12 L20.25,12 C20.6642136,12 21,12.3357864 21,12.75 C21,13.1642136 20.6642136,13.5 20.25,13.5 L18,13.5 L18,16.5 L20.25,16.5 C20.6642136,16.5 21,16.8357864 21,17.25 C21,17.6642136 20.6642136,18 20.25,18 L18,18 L18,20.25 C18,20.6642136 17.6642136,21 17.25,21 C16.8357864,21 16.5,20.6642136 16.5,20.25 L16.5,18 L13.5,18 L13.5,20.25 C13.5,20.6642136 13.1642136,21 12.75,21 C12.3357864,21 12,20.6642136 12,20.25 L12,18 L9,18 L9,20.25 C9,20.6642136 8.66421356,21 8.25,21 C7.83578644,21 7.5,20.6642136 7.5,20.25 L7.5,18 L4.5,18 L4.5,20.25 C4.5,20.6642136 4.16421356,21 3.75,21 C3.33578644,21 3,20.6642136 3,20.25 L3,18 L0.75,18 C0.335786438,18 0,17.6642136 0,17.25 C0,16.8357864 0.335786438,16.5 0.75,16.5 L3,16.5 L3,13.5 L0.75,13.5 C0.335786438,13.5 0,13.1642136 0,12.75 C0,12.3357864 0.335786438,12 0.75,12 L3,12 L3,9 L0.75,9 C0.335786438,9 0,8.66421356 0,8.25 C0,7.83578644 0.335786438,7.5 0.75,7.5 L3,7.5 L3,4.5 L0.75,4.5 C0.335786438,4.5 0,4.16421356 0,3.75 C0,3.33578644 0.335786438,3 0.75,3 L3,3 L3,0.75 C3,0.335786438 3.33578644,0 3.75,0 C4.16421356,0 4.5,0.335786438 4.5,0.75 L4.5,3 L7.5,3 L7.5,0.75 C7.5,0.335786438 7.83578644,0 8.25,0 C8.66421356,0 9,0.335786438 9,0.75 L9,3 L12,3 L12,0.75 C12,0.335786438 12.3357864,0 12.75,0 C13.1642136,0 13.5,0.335786438 13.5,0.75 L13.5,3 L16.5,3 L16.5,0.75 C16.5,0.335786438 16.8357864,0 17.25,0 Z M7.5,13.5 L4.5,13.5 L4.5,16.5 L7.5,16.5 L7.5,13.5 Z M12,13.5 L9,13.5 L9,16.5 L12,16.5 L12,13.5 Z M16.5,13.5 L13.5,13.5 L13.5,16.5 L16.5,16.5 L16.5,13.5 Z M16.5,9 L13.5,9 L13.5,12 L16.5,12 L16.5,9 Z M12,9 L9,9 L9,12 L12,12 L12,9 Z M7.5,9 L4.5,9 L4.5,12 L7.5,12 L7.5,9 Z M7.5,4.5 L4.5,4.5 L4.5,7.5 L7.5,7.5 L7.5,4.5 Z M12,4.5 L9,4.5 L9,7.5 L12,7.5 L12,4.5 Z M16.5,4.5 L13.5,4.5 L13.5,7.5 L16.5,7.5 L16.5,4.5 Z"></path></clipPath></defs><g transform="translate(-1084.0 -210.0)"><g clip-path="url(#i0)"><g transform="translate(1084.0 210.0)"><g transform="translate(1.5 1.5)"><g clip-path="url(#i1)"><polygon points="0,0 21,0 21,21 0,21 0,0" stroke="none" fill="#FFFFFF"></polygon></g></g></g></g></g></svg>