<?xml version="1.0" encoding="UTF-8"?><svg version="1.1" width="24px" height="24px" viewBox="0 0 24.0 24.0" xmlns="http://www.w3.org/2000/svg" xmlns:xlink="http://www.w3.org/1999/xlink"><defs><clipPath id="i0"><path d="M3923,0 L3923,1019 L0,1019 L0,0 L3923,0 Z"></path></clipPath><clipPath id="i1"><path d="M11,1.99999999 L11,11 L20,11 L20,12 C20,17.523 15.523,22 10,22 C4.47699998,22 0,17.523 0,12 C0,6.48499999 4.494,1.99999999 10,1.99999999 L11,1.99999999 Z M8.99999773,4.062 C5.06499998,4.557 1.99999773,7.92999998 1.99999773,12 C1.99685295,16.2260553 5.28127521,19.7256213 9.49903783,19.9902569 C13.7168005,20.2548926 17.41289,17.1933057 17.938,13 L8.99999773,13 L8.99999773,4.062 Z M12,0 C17.523,0 22,4.47700001 22,10 L12,10 L12,0 Z"></path></clipPath></defs><g transform="translate(-3447.0 -223.0)"><g clip-path="url(#i0)"><g transform="translate(3447.0 223.0)"><g transform="translate(1.000000007812499 1.000000007812499)"><g clip-path="url(#i1)"><polygon points="0,0 22,0 22,22 0,22 0,0" stroke="none" fill="#FFFFFF"></polygon></g></g></g></g></g></svg>