<?xml version="1.0" encoding="UTF-8"?><svg version="1.1" width="24px" height="24px" viewBox="0 0 24.0 24.0" xmlns="http://www.w3.org/2000/svg" xmlns:xlink="http://www.w3.org/1999/xlink"><defs><clipPath id="i0"><path d="M3923,0 L3923,1019 L0,1019 L0,0 L3923,0 Z"></path></clipPath><clipPath id="i1"><path d="M1.06331226,5.64872924 L13.728957,18.5754415 L12.2512164,19.4782707 C11.8037893,19.7519492 11.2412966,19.7541189 10.7917716,19.4839002 L3.57898978,11.8601658 L0.379329442,8.42688167 C-0.0992277047,7.91501848 -0.128325702,7.12907283 0.311071875,6.58322429 L1.06331226,5.64872924 Z M7.26982301,0.404860973 L19.8383591,12.7918461 C20.1469323,13.095808 20.2983531,13.5249262 20.248877,13.9552313 C20.1994008,14.3855363 19.9545396,14.7690903 19.5850321,14.995087 L14.9547781,17.8253122 L1.94714189,4.55027536 L5.18550498,0.525191284 C5.43487586,0.215221069 5.80378566,0.0252712432 6.20095267,0.00234229029 C6.59811968,-0.0205866627 6.9864378,0.125647441 7.26982301,0.404860973 Z"></path></clipPath><clipPath id="i2"><path d="M5.4500483,0 L7.4893304,2.15468659 L6.17836333,4.37411234 C5.97944732,4.71203921 5.64826249,4.95136999 5.26497886,5.03416981 C5.16505546,5.05739145 5.0609099,5.06935412 4.95394965,5.06935412 L2.81474411,5.06935412 L2.81474411,7.22263336 C2.81482109,7.72549028 2.54659433,8.19018218 2.11112029,8.44163286 C1.67564625,8.69308355 1.13909788,8.69308355 0.703623835,8.44163286 C0.268149792,8.19018218 -7.69673632e-05,7.72549028 0,7.22263336 L0,1.59314514 C-7.69673632e-05,1.09028822 0.268149792,0.625596321 0.703623835,0.374145634 C1.13909788,0.122694947 1.67564625,0.122694947 2.11112029,0.374145634 C2.54659433,0.625596321 2.81482109,1.09028822 2.81474411,1.59314514 L2.81474411,2.28909063 L4.09897113,2.28909063 L5.4500483,0 Z"></path></clipPath></defs><g transform="translate(-2802.0 -176.0)"><g clip-path="url(#i0)"><g transform="translate(2802.0 176.0)"><g transform="translate(0.0 1.0)"><g transform="translate(2.2419010485800754 0.75)"><g clip-path="url(#i1)"><polygon points="2.77555756e-16,4.33680869e-19 20.258099,4.33680869e-19 20.258099,19.6850574 2.77555756e-16,19.6850574 2.77555756e-16,4.33680869e-19" stroke="none" fill="#FFFFFF"></polygon></g></g><g transform="translate(1.6560079529881477e-08 13.23785373283226)"><g clip-path="url(#i2)"><polygon points="-1.65598194e-08,0 7.4893304,0 7.4893304,8.63022088 -1.65598194e-08,8.63022088 -1.65598194e-08,0" stroke="none" fill="rgba(255, 255, 255, 0.7)"></polygon></g></g></g></g></g></g></svg>