<?xml version="1.0" encoding="UTF-8"?>
<svg width="24px" height="24px" viewBox="0 0 24 24" version="1.1" xmlns="http://www.w3.org/2000/svg" xmlns:xlink="http://www.w3.org/1999/xlink">
    <title>土方平衡</title>
    <g id="崂山" stroke="none" stroke-width="1" fill="none" fill-rule="evenodd">
        <g id="空间分析" transform="translate(-106.000000, -528.000000)" fill-rule="nonzero">
            <g id="土方平衡" transform="translate(106.000000, 528.000000)">
                <rect id="矩形" fill="#000000" opacity="0" x="0" y="0" width="24" height="24"></rect>
                <path d="M4.5,18 L4.5,15 L2.25,15 C1.83578644,15 1.5,14.6642136 1.5,14.25 C1.5,13.8357864 1.83578644,13.5 2.25,13.5 L4.5,13.5 L4.5,10.5 L2.25,10.5 C1.83578644,10.5 1.5,10.1642136 1.5,9.75 C1.5,9.33578644 1.83578644,9 2.25,9 L4.5,9 L4.5,6 L2.25,6 C1.83578644,6 1.5,5.66421356 1.5,5.25 C1.5,4.83578644 1.83578644,4.5 2.25,4.5 L4.5,4.5 L4.5,2.25 C4.5,1.83578644 4.83578644,1.5 5.25,1.5 C5.66421356,1.5 6,1.83578644 6,2.25 L6,4.5 L9,4.5 L9,2.25 C9,1.83578644 9.33578644,1.5 9.75,1.5 C10.1642136,1.5 10.5,1.83578644 10.5,2.25 L10.5,4.5 L13.5,4.5 L13.5,2.25 C13.5,1.83578644 13.8357864,1.5 14.25,1.5 C14.6642136,1.5 15,1.83578644 15,2.25 L15,4.5 L18,4.5 L18,2.25 C18,1.83578644 18.3357864,1.5 18.75,1.5 C19.1642136,1.5 19.5,1.83578644 19.5,2.25 L19.5,4.5 L21.75,4.5 C22.1642136,4.5 22.5,4.83578644 22.5,5.25 C22.5,5.66421356 22.1642136,6 21.75,6 L19.5,6 L19.5,9 L21.75,9 C22.1642136,9 22.5,9.33578644 22.5,9.75 C22.5,10.1642136 22.1642136,10.5 21.75,10.5 L19.5,10.5 L19.5,13.5 L21.75,13.5 C22.1642136,13.5 22.5,13.8357864 22.5,14.25 C22.5,14.6642136 22.1642136,15 21.75,15 L19.5,15 L19.5,18 L21.75,18 C22.1642136,18 22.5,18.3357864 22.5,18.75 C22.5,19.1642136 22.1642136,19.5 21.75,19.5 L19.5,19.5 L19.5,21.75 C19.5,22.1642136 19.1642136,22.5 18.75,22.5 C18.3357864,22.5 18,22.1642136 18,21.75 L18,19.5 L15,19.5 L15,21.75 C15,22.1642136 14.6642136,22.5 14.25,22.5 C13.8357864,22.5 13.5,22.1642136 13.5,21.75 L13.5,19.5 L10.5,19.5 L10.5,21.75 C10.5,22.1642136 10.1642136,22.5 9.75,22.5 C9.33578644,22.5 9,22.1642136 9,21.75 L9,19.5 L6,19.5 L6,21.75 C6,22.1642136 5.66421356,22.5 5.25,22.5 C4.83578644,22.5 4.5,22.1642136 4.5,21.75 L4.5,19.5 L2.25,19.5 C1.83578644,19.5 1.5,19.1642136 1.5,18.75 C1.5,18.3357864 1.83578644,18 2.25,18 L4.5,18 Z M6,18 L9,18 L9,15 L6,15 L6,18 Z M10.5,18 L13.5,18 L13.5,15 L10.5,15 L10.5,18 Z M15,18 L18,18 L18,15 L15,15 L15,18 Z M18,13.5 L18,10.5 L15,10.5 L15,13.5 L18,13.5 Z M13.5,13.5 L13.5,10.5 L10.5,10.5 L10.5,13.5 L13.5,13.5 Z M9,13.5 L9,10.5 L6,10.5 L6,13.5 L9,13.5 Z M6,9 L9,9 L9,6 L6,6 L6,9 Z M10.5,9 L13.5,9 L13.5,6 L10.5,6 L10.5,9 Z M15,9 L18,9 L18,6 L15,6 L15,9 Z" id="形状" fill="#FFFFFF"></path>
            </g>
        </g>
    </g>
</svg>