<?xml version="1.0" encoding="UTF-8"?><svg version="1.1" width="24px" height="24px" viewBox="0 0 24.0 24.0" xmlns="http://www.w3.org/2000/svg" xmlns:xlink="http://www.w3.org/1999/xlink"><defs><clipPath id="i0"><path d="M3039,0 L3039,1019 L0,1019 L0,0 L3039,0 Z"></path></clipPath><clipPath id="i1"><path d="M10.1925,0.10304533 C11.4225,0.338592205 12.9796875,1.05929533 14.3805469,2.03687345 C15.7863281,3.01281095 17.0360156,4.24585783 17.7665625,5.47398283 C18.5261719,6.71663908 18.7666406,7.95437345 18.8200781,9.2832797 C18.7563281,14.4861703 14.6498437,18.7618735 9.44015625,18.7489828 C6.84726562,18.7895297 4.50703125,17.6289047 2.805,16.0574203 C1.10320312,14.455936 0.039140625,12.4438266 0,10.0869516 C0.015,8.94038908 0.268125,7.67710783 0.854296875,6.6376547 C1.42289062,5.5810922 2.3240625,4.74812345 3.22429687,4.0642172 C4.12828125,3.37632658 5.03179687,2.83749845 5.69859375,2.2764047 C6.39164062,1.7242172 6.84796875,1.1495297 7.45476562,0.59992033 C8.0221875,0.0817172047 8.94375,-0.150314045 10.1925,0.10304533 Z M7.9565625,2.2351547 C7.31039063,2.57499845 6.7846875,3.02992033 6.18210938,3.52538908 C5.59171875,4.0257797 4.92445313,4.5667172 4.280625,5.19788908 C2.9503125,6.40585783 1.87195313,8.14632658 1.8553125,10.0377328 C1.81757813,11.9110922 2.66953125,13.5732797 4.04765625,14.8524985 C5.4271875,16.1174203 7.33265625,16.9993735 9.43804688,16.9810922 C13.6335938,16.9719516 17.08125,13.5439828 16.8100781,9.1923422 C16.7088281,8.09476408 16.3830469,7.0417172 15.7633594,6.05148283 C15.1553906,5.0664047 14.2532813,4.14413908 13.2675,3.42882658 C12.2826563,2.71210783 11.2139063,2.20210783 10.2944531,2.00523283 C9.36539062,1.79992033 8.585625,1.9079672 7.9565625,2.2351547 Z M12.4795312,4.64101408 C13.9427344,5.73460783 15.035625,7.41062345 15.2158594,9.17382658 C15.5765625,12.7168735 12.7982813,15.4822641 9.42820312,15.5066391 C7.73507812,15.524686 6.19640625,14.8480453 5.08875,13.8369516 C3.9815625,12.8183578 3.30539063,11.4650766 3.34453125,9.9610922 C3.33632812,8.42523283 4.19882812,7.09867033 5.14171875,6.01374845 C6.11742187,4.93257658 7.17328125,4.09304533 8.30625,3.61937345 C9.4659375,3.17124845 11.0200781,3.53312345 12.4795312,4.64101408 Z M8.58164063,4.98413908 C7.61039063,5.27617033 6.7621875,5.94085783 6.03867188,6.78976408 C5.33367188,7.64406095 4.75335938,8.68281095 4.75359375,9.85187345 C4.70976563,12.1360922 6.82007813,14.079061 9.40476562,14.0619516 C11.9765625,14.0279672 14.0702344,11.9031235 13.7460938,9.1998422 C13.6057031,7.86624845 12.7638281,6.60179533 11.7503906,5.8135922 C10.7315625,5.01437345 9.54140625,4.6914047 8.58164063,4.98413908 Z M12.4628906,9.2757797 C12.7085156,11.215936 11.2342969,12.7667953 9.38484375,12.8068735 C7.52648437,12.8406235 6.01335937,11.4519516 6.01898437,9.7745297 C6.01148437,8.92351408 6.3825,8.14820158 6.88734375,7.51749845 C7.40132812,6.89101408 8.04914062,6.40913908 8.80992188,6.23945158 C10.2939844,5.86257658 12.2114062,7.31710783 12.4628906,9.2757797 Z M8.98804688,7.50601408 C8.05195312,7.69867033 7.2853125,8.62913908 7.27921875,9.65804533 C7.29,10.6895297 8.20710938,11.5267172 9.33164063,11.4964828 C10.4517188,11.4639047 11.3301563,10.5153891 11.1825,9.34632658 C11.0303906,8.16906095 9.93140625,7.3098422 8.98804688,7.50601408 Z"></path></clipPath></defs><g transform="translate(-1084.0 -284.0)"><g clip-path="url(#i0)"><g transform="translate(1084.0 284.0)"><g transform="translate(2.6252343749999962 2.625314045294065)"><g clip-path="url(#i1)"><polygon points="0,0 18.8200781,0 18.8200781,18.7500132 0,18.7500132 0,0" stroke="none" fill="#FFFFFF"></polygon></g></g></g></g></g></svg>