<?xml version="1.0" encoding="UTF-8"?><svg version="1.1" width="24px" height="24px" viewBox="0 0 24.0 24.0" xmlns="http://www.w3.org/2000/svg" xmlns:xlink="http://www.w3.org/1999/xlink"><defs><clipPath id="i0"><path d="M1920,0 L1920,1080 L0,1080 L0,0 L1920,0 Z"></path></clipPath><clipPath id="i1"><path d="M2.79870001,0 L2.79870001,3.19999999 L3.19870001,3.19999999 C3.50058595,3.1986592 3.77686966,3.36939633 3.91070002,3.64000001 C4.04670003,3.912 4.02270003,4.24000001 3.83870002,4.48000001 L2.63870002,6.07999999 C2.48670001,6.28000001 2.24670003,6.40000001 1.99870001,6.40000001 C1.7507,6.40000001 1.5107,6.27999998 1.35870001,6.07999999 L0.158700006,4.48000001 C-0.0253000021,4.24000001 -0.0493000021,3.912 0.0867000057,3.64000001 C0.222700014,3.36799999 0.494700006,3.19999999 0.798700014,3.19999999 L1.19870002,3.19999999 L1.19870002,0 L2.79870001,0 Z"></path></clipPath><clipPath id="i2"><path d="M5.59999999,0 L5.59999999,1.60000001 L0,1.60000001 L0,0 L5.59999999,0 Z"></path></clipPath><clipPath id="i3"><path d="M15,0 C15.5522847,-1.01453063e-16 16,0.44771525 16,1 L16,20 C16,20.5522847 15.5522847,21 15,21 L1.45105738,21 C0.898772634,21 0.451057384,20.5522847 0.451057384,20 C0.451057384,19.8783377 0.47325844,19.7576966 0.516569649,19.6440047 L7.75466489,0.644004672 C7.90238143,0.256248748 8.27421307,7.42356974e-16 8.68915262,0 L15,0 Z"></path></clipPath><clipPath id="i4"><path d="M9.6,0 L9.6,1.59999998 L0,1.59999998 L0,0 L9.6,0 Z"></path></clipPath></defs><g transform="translate(-258.0 -289.0)"><g clip-path="url(#i0)"><g transform="translate(258.0 289.0)"><g transform="translate(3.801299986459914 4.800000000000029)"><g clip-path="url(#i1)"><polygon points="-1.38777878e-17,0 3.99740003,0 3.99740003,6.40000001 -1.38777878e-17,6.40000001 -1.38777878e-17,0" stroke="none" fill="#FFFFFF"></polygon></g></g><g transform="translate(2.0000000000000386 12.99999999999999)"><g clip-path="url(#i2)"><polygon points="0,0 5.59999999,0 5.59999999,1.60000001 0,1.60000001 0,0" stroke="none" fill="#FFFFFF"></polygon></g></g><g transform="translate(6.0 1.0)"><g clip-path="url(#i3)"><path d="M8.68915262,0 L15,0 C15.5522847,-1.01453063e-16 16,0.44771525 16,1 L16,20 C16,20.5522847 15.5522847,21 15,21 L1.45105738,21 C0.898772634,21 0.451057384,20.5522847 0.451057384,20 C0.451057384,19.8783377 0.47325844,19.7576966 0.516569649,19.6440047 L7.75466489,0.644004672 C7.90238143,0.256248748 8.27421307,7.42356974e-16 8.68915262,0 Z" stroke="#FFFFFF" stroke-width="4" fill="none" stroke-miterlimit="5"></path></g></g><g transform="translate(1.9999999999999547 0.9999999999998951)"><g clip-path="url(#i4)"><polygon points="0,0 9.6,0 9.6,1.59999998 0,1.59999998 0,0" stroke="none" fill="#FFFFFF"></polygon></g></g></g></g></g></svg>