<?xml version="1.0" encoding="UTF-8"?>
<svg width="24px" height="24px" viewBox="0 0 24 24" version="1.1" xmlns="http://www.w3.org/2000/svg" xmlns:xlink="http://www.w3.org/1999/xlink">
    <title>限高</title>
    <g id="崂山" stroke="none" stroke-width="1" fill="none" fill-rule="evenodd">
        <g id="限高" transform="translate(-254.000000, -527.000000)">
            <g transform="translate(254.000000, 527.000000)">
                <rect id="矩形" x="0" y="0" width="24" height="24" rx="0.75"></rect>
                <g id="编组-14" transform="translate(2.000000, 2.000000)" fill="#FFFFFF">
                    <path d="M19,5 L19,20 L11,20 L11,5 L19,5 Z M15,15 C14.4477153,15 14,15.4477153 14,16 L14,16 L14,19 L16,19 L16,16 C16,15.4477153 15.5522847,15 15,15 Z" id="形状结合"></path>
                    <polygon id="矩形备份-36" points="12 4 18 3 18 5 12 5"></polygon>
                    <rect id="矩形" x="4.22410278" y="4.98895955" width="1.5" height="15"></rect>
                    <path d="M2.99504357,4.54936173 L2.99504357,4.55136173 L8.49504357,4.55191861 L8.49504357,6.05191861 L2.99504357,6.05136173 L2.99504357,11.5493617 L1.49504357,11.5493617 L1.49504357,4.54936173 L2.99504357,4.54936173 Z" id="形状结合" transform="translate(4.995044, 8.049362) rotate(-315.000000) translate(-4.995044, -8.049362) "></path>
                    <rect id="矩形" x="0" y="0" width="20" height="1.5"></rect>
                </g>
            </g>
        </g>
    </g>
</svg>