<?xml version="1.0" encoding="UTF-8"?>
<svg width="24px" height="25px" viewBox="0 0 24 25" version="1.1" xmlns="http://www.w3.org/2000/svg" xmlns:xlink="http://www.w3.org/1999/xlink">
    <title>开敞度</title>
    <g id="崂山" stroke="none" stroke-width="1" fill="none" fill-rule="evenodd">
        <g id="空间分析" transform="translate(-105.000000, -452.000000)">
            <g id="开敞度" transform="translate(105.000000, 452.000000)">
                <rect id="矩形" x="0" y="0" width="24" height="24" rx="1"></rect>
                <g id="编组-12" transform="translate(1.000000, 1.000000)">
                    <path d="M11.0006911,2.49578136e-13 C15.0643968,2.49578136e-13 18.8450327,1.21196556 22.0008586,3.29415637 L22.0004556,15.8016091 C19.2609767,12.8482501 15.3466749,11 11.0006911,11 C6.65372727,11 2.7386401,12.8490837 -0.000926513061,15.8036073 L-0.000480402566,3.29481882 C3.15554763,1.21222262 6.93655447,2.49578136e-13 11.0006911,2.49578136e-13 Z" id="形状结合" fill="#FFFFFF" opacity="0.41922433"></path>
                    <g id="编组-4" transform="translate(0.000524, 0.000000)" stroke="#FFFFFF" stroke-linecap="round" stroke-linejoin="round" stroke-width="1.5">
                        <path d="M-1.13686838e-13,15.1969433 L11.0732192,22.2591822 L22.0000166,15.1969433 L22.0000166,3.34181266 C17.6335773,1.11393755 13.9669051,0 11,0 C8.03310597,0 4.36643931,1.11393755 -1.13686838e-13,3.34181266 L-1.13686838e-13,15.1969433 Z" id="路径-23"></path>
                        <polyline id="路径-24" points="1.13686838e-13 3.34181266 11.0000083 22.2591822 22.0001675 3.34181266"></polyline>
                    </g>
                </g>
            </g>
        </g>
    </g>
</svg>