<?xml version="1.0" encoding="UTF-8"?><svg version="1.1" width="32px" height="32px" viewBox="0 0 32.0 32.0" xmlns="http://www.w3.org/2000/svg" xmlns:xlink="http://www.w3.org/1999/xlink"><defs><clipPath id="i0"><path d="M3923,0 L3923,1019 L0,1019 L0,0 L3923,0 Z"></path></clipPath><clipPath id="i1"><path d="M7.35294118,0 C7.35294118,3.03756612 9.65735791,5.5 12.5,5.5 C15.3426421,5.5 17.6470588,3.03756612 17.6470588,0 L25,0 L25,10 C25,10.5522847 24.5522847,11 24,11 L2,11 C0.8954305,11 1.3527075e-16,10.1045695 0,9 L0,0 L7.35294118,0 Z"></path></clipPath><linearGradient id="i2" x1="0.0644531276px" y1="5.47250003px" x2="25.3144532px" y2="5.47250003px" gradientUnits="userSpaceOnUse"><stop stop-color="#3022AD" offset="0%"></stop><stop stop-color="#52A0FD" offset="47.5247532%"></stop><stop stop-color="#B4EC50" offset="100%"></stop></linearGradient><clipPath id="i3"><path d="M16,0 L16,2 L0,2 L0,0 L16,0 Z"></path></clipPath></defs><g transform="translate(-2643.0 -79.0)"><g clip-path="url(#i0)"><g transform="translate(2643.0 79.0)"><g transform="translate(2.5 4.0)"><g transform="translate(0.0 14.0)"><g clip-path="url(#i1)"><polygon points="0,0 25,0 25,11 0,11 0,0" stroke="none" fill="url(#i2)"></polygon></g></g><g transform="translate(5.5 4.0)"><g clip-path="url(#i3)"><polygon points="0,0 16,0 16,2 0,2 0,0" stroke="none" fill="rgba(255, 255, 255, 0.9)"></polygon></g></g><g transform="translate(5.5 9.0)"><g clip-path="url(#i3)"><polygon points="0,0 16,0 16,2 0,2 0,0" stroke="none" fill="rgba(255, 255, 255, 0.9)"></polygon></g></g><g transform="translate(1.0 0.0)"><path d="M1,0 L23,0 C23.5522847,-1.01453063e-16 24,0.44771525 24,1 L24,23 C24,23.5522847 23.5522847,24 23,24 L1,24 C0.44771525,24 6.76353751e-17,23.5522847 0,23 L0,1 C-6.76353751e-17,0.44771525 0.44771525,1.01453063e-16 1,0 Z" stroke="#FFFFFF" stroke-width="2" fill="none" stroke-miterlimit="10"></path></g><g transform="translate(0.0 14.0)"><path d="M0,0 L7.64705882,0 C7.64705882,3.3137085 10.0436522,6 13,6 C15.9563478,6 18.3529412,3.3137085 18.3529412,0 L26,0" stroke="#FFFFFF" stroke-width="1" fill="none" stroke-miterlimit="10"></path></g></g></g></g></g></svg>