<?xml version="1.0" encoding="UTF-8"?><svg version="1.1" width="32px" height="32px" viewBox="0 0 32.0 32.0" xmlns="http://www.w3.org/2000/svg" xmlns:xlink="http://www.w3.org/1999/xlink"><defs><clipPath id="i0"><path d="M3923,0 L3923,1019 L0,1019 L0,0 L3923,0 Z"></path></clipPath><clipPath id="i1"><path d="M1,0 C1.55228475,-1.01453063e-16 2,0.44771525 2,1 L2,9 C2,9.55228475 1.55228475,10 1,10 C0.44771525,10 6.76353751e-17,9.55228475 0,9 L0,1 C-6.76353751e-17,0.44771525 0.44771525,1.01453063e-16 1,0 Z"></path></clipPath><clipPath id="i2"><path d="M7.77149846,0 L10,2.5 L7.77149846,5 L0,2.5 L7.77149846,0 Z"></path></clipPath><linearGradient id="i3" x1="0.025781251px" y1="2.48750001px" x2="10.1257813px" y2="2.48750001px" gradientUnits="userSpaceOnUse"><stop stop-color="#3022AD" offset="0%"></stop><stop stop-color="#52A0FD" offset="47.5247532%"></stop><stop stop-color="#B4EC50" offset="100%"></stop></linearGradient></defs><g transform="translate(-450.0 -580.0)"><g clip-path="url(#i0)"><g transform="translate(450.0 580.0)"><g transform="translate(15.0 7.0)"><g clip-path="url(#i1)"><polygon points="0,0 2,0 2,10 0,10 0,0" stroke="none" fill="#FFFFFF"></polygon></g></g><g transform="translate(3.0 3.0)"><path d="M13,26 C20.1797017,26 26,20.1797017 26,13 C26,5.82029825 20.1797017,0 13,0 C5.82029825,0 0,5.82029825 0,13 C0,20.1797017 5.82029825,26 13,26 Z" stroke="#FFFFFF" stroke-width="2" fill="none" stroke-miterlimit="10"></path></g><g transform="translate(16.328116039195507 13.475838146042005) rotate(14.999999999999996)"><g clip-path="url(#i2)"><polygon points="0,0 10,0 10,5 0,5 0,0" stroke="none" fill="url(#i3)"></polygon></g><polygon points="7.77149846,0 10,2.5 7.77149846,5 0,2.5 7.77149846,0 7.77149846,0" stroke="#FFFFFF" stroke-width="1" fill="none" stroke-linejoin="round"></polygon></g></g></g></g></svg>