<?xml version="1.0" encoding="UTF-8"?><svg version="1.1" width="24px" height="24px" viewBox="0 0 24.0 24.0" xmlns="http://www.w3.org/2000/svg" xmlns:xlink="http://www.w3.org/1999/xlink"><defs><clipPath id="i0"><path d="M3923,0 L3923,1019 L0,1019 L0,0 L3923,0 Z"></path></clipPath><clipPath id="i1"><path d="M13.846,0 C15.5453802,0 16.923,1.37761982 16.923,3.077 L16.923,14.616 C16.9224478,17.5896628 14.5116629,20 11.538,20 L3.077,20 C1.37761982,20 0,18.6223802 0,16.923 L0,3.077 C0,1.37761982 1.37761982,0 3.077,0 Z M13.846,1.538 L3.077,1.538 C2.227,1.538 1.538,2.227 1.538,3.077 L1.538,16.923 C1.5385516,17.7721854 2.22681464,18.4604484 3.076,18.461 L10.769,18.461 L10.769,14.615 C10.769,14.190293 11.113293,13.846 11.538,13.846 L15.384,13.846 L15.384,3.076 C15.384,2.227 14.695,1.538 13.846,1.538 Z M15.307,15.385 L12.307,15.385 L12.307,18.385 C13.8180115,18.07688 14.99888,16.8960115 15.307,15.385 Z M11.538,10.001 C11.962707,10.001 12.307,10.345293 12.307,10.77 C12.307,11.194707 11.962707,11.539 11.538,11.539 L5.384,11.539 C4.95929303,11.539 4.615,11.194707 4.615,10.77 C4.615,10.345293 4.95929303,10.001 5.384,10.001 Z M11.538,5.386 C11.8127372,5.386 12.0666049,5.53257056 12.2039736,5.77049999 C12.3413422,6.00842942 12.3413422,6.30157058 12.2039736,6.53950001 C12.0666049,6.77742944 11.8127372,6.924 11.538,6.924 L5.384,6.924 C5.10926276,6.924 4.85539507,6.77742944 4.71802645,6.53950001 C4.58065782,6.30157058 4.58065782,6.00842942 4.71802645,5.77049999 C4.85539507,5.53257056 5.10926276,5.386 5.384,5.386 Z"></path></clipPath></defs><g transform="translate(-3593.0 -150.0)"><g clip-path="url(#i0)"><g transform="translate(3593.0 150.0)"><g transform="translate(3.2924000000002707 2.0)"><g clip-path="url(#i1)"><polygon points="0,0 16.923,0 16.923,20 0,20 0,0" stroke="none" fill="#FFFFFF"></polygon></g></g></g></g></g></svg>