<?xml version="1.0" encoding="UTF-8"?><svg version="1.1" width="24px" height="24px" viewBox="0 0 24.0 24.0" xmlns="http://www.w3.org/2000/svg" xmlns:xlink="http://www.w3.org/1999/xlink"><defs><clipPath id="i0"><path d="M3923,0 L3923,1019 L0,1019 L0,0 L3923,0 Z"></path></clipPath><clipPath id="i1"><path d="M9.88850174,0 C10.7544534,0 11.456446,0.701992553 11.456446,1.56794425 C11.456446,1.66416111 11.4477794,1.75835377 11.4311843,1.84978421 L11.406,1.959 L17.259,5.919 L17.1779468,5.98200125 C16.9391954,6.18333493 16.7614045,6.45467004 16.6762175,6.76436298 L16.672,6.781 L17.2578397,7.17770035 L16.671,7.576 L16.6762175,7.59800636 C16.7614045,7.9076993 16.9391954,8.17903441 17.1779468,8.38036809 L17.258,8.443 L14.958,10.007 L17.253,11.56 L17.1779468,11.6196319 C16.9391954,11.8209656 16.7614045,12.0923007 16.6762175,12.4019936 L16.67,12.425 L17.2578397,12.8222997 L16.673,13.22 L16.6762175,13.235637 C16.7614045,13.54533 16.9391954,13.8166651 17.1779468,14.0179988 L17.263,14.084 L11.412,18.065 L11.4311843,18.1502158 C11.4394819,18.195931 11.4457973,18.2423368 11.4500383,18.2893409 L11.456446,18.4320557 C11.456446,19.2980074 10.7544534,20 9.88850174,20 C9.02255004,20 8.32055749,19.2980074 8.32055749,18.4320557 C8.32055749,18.3358389 8.32922407,18.2416462 8.34581917,18.1502158 L8.366,18.061 L2.564,14.13 L2.61156159,14.0999066 C2.8670844,13.9192191 3.06616733,13.6640096 3.17716677,13.3659219 L3.199,13.296 L2.50174216,12.8222997 L3.202,12.35 L3.17716677,12.2717088 C3.06616733,11.973621 2.8670844,11.7184116 2.61156159,11.5377241 L2.575,11.514 L4.811,10.007 L2.499,8.441 L2.57815078,8.38036809 C2.81690213,8.17903441 2.99469307,7.9076993 3.07988002,7.59800636 L3.085,7.573 L2.50174216,7.17770035 L3.084,6.785 L3.07988002,6.76436298 C2.99469307,6.45467004 2.81690213,6.18333493 2.57815078,5.98200125 L2.499,5.921 L8.371,1.964 L8.34581917,1.84978421 C8.33752162,1.80406899 8.3312062,1.75766322 8.32696517,1.71065914 L8.32055749,1.56794425 C8.32055749,0.701992553 9.02255004,0 9.88850174,0 Z M14.029,10.639 L11.405,12.424 L11.4311843,12.5369754 C11.4394819,12.5826906 11.4457973,12.6290964 11.4500383,12.6761004 L11.456446,12.8188153 C11.456446,13.684767 10.7544534,14.3867596 9.88850174,14.3867596 C9.02255004,14.3867596 8.32055749,13.684767 8.32055749,12.8188153 C8.32055749,12.7225985 8.32922407,12.6284058 8.34581917,12.5369754 L8.372,12.42 L5.743,10.639 L3.202,12.35 L3.21925284,12.4019936 C3.24359197,12.4904773 3.26037158,12.5820923 3.26885365,12.6761004 L3.27526132,12.8188153 C3.27526132,12.9631406 3.25576153,13.1029115 3.21925284,13.235637 L3.199,13.296 L8.937,17.186 L8.87829521,17.2328723 C8.63954386,17.434206 8.46175292,17.7055411 8.37656598,18.0152341 L8.366,18.061 L9.89547038,19.097561 L11.412,18.065 L11.4004375,18.0152341 C11.3152506,17.7055411 11.1374596,17.434206 10.8987083,17.2328723 L10.844,17.19 L16.673,13.22 L16.6454707,13.1006553 C16.6371732,13.0549401 16.6308578,13.0085343 16.6266167,12.9615302 L16.6202091,12.8188153 C16.6202091,12.7225985 16.6288756,12.6284058 16.6454707,12.5369754 L16.67,12.425 L14.029,10.639 Z M9.88850174,16.8641115 C10.2252607,16.8641115 10.5372234,16.970277 10.7927463,17.1509645 L10.844,17.19 L9.89547038,17.8362369 L8.937,17.186 L8.98425723,17.1509645 C9.20327679,16.9960895 9.46376238,16.8959654 9.74578685,16.8705192 Z M1.70731707,11.2508711 C1.99596764,11.2508711 2.26640052,11.3288703 2.49868856,11.4649414 L2.575,11.514 L0.634146341,12.8222997 L2.564,14.13 L2.49868856,14.1726892 C2.3051152,14.2860819 2.08505235,14.3591467 1.85003196,14.3803519 L1.70731707,14.3867596 C0.841365375,14.3867596 0.139372822,13.684767 0.139372822,12.8188153 C0.139372822,11.9528636 0.841365375,11.2508711 1.70731707,11.2508711 Z M18.1881533,11.2508711 C19.054105,11.2508711 19.7560976,11.9528636 19.7560976,12.8188153 C19.7560976,13.684767 19.054105,14.3867596 18.1881533,14.3867596 C17.8513943,14.3867596 17.5394316,14.280594 17.2839088,14.0999066 L17.263,14.084 L19.1184669,12.8222997 L17.253,11.56 L17.2839088,11.5377241 C17.5029284,11.3828491 17.7634139,11.2827249 18.0454384,11.2572788 Z M9.89547038,6.58188153 L8.378,7.603 L8.41865204,7.72829121 C8.51379442,7.98379502 8.6736512,8.20779637 8.87829521,8.38036809 L8.98,8.459 L6.678,10.009 L8.959,11.556 L8.87829521,11.6196319 C8.63954386,11.8209656 8.46175292,12.0923007 8.37656598,12.4019936 L8.372,12.42 L9.89547038,13.4529617 L11.405,12.424 L11.4004375,12.4019936 C11.3152506,12.0923007 11.1374596,11.8209656 10.8987083,11.6196319 L10.822,11.56 L13.098,10.009 L10.801,8.455 L10.8987083,8.38036809 C11.1033523,8.20779637 11.2632091,7.98379502 11.3583514,7.72829121 L11.4,7.599 L9.89547038,6.58188153 Z M9.88850174,11.2508711 C10.2252607,11.2508711 10.5372234,11.3570366 10.7927463,11.5377241 L10.822,11.56 L9.89547038,12.1916376 L8.959,11.556 L8.98425723,11.5377241 C9.20327679,11.3828491 9.46376238,11.2827249 9.74578685,11.2572788 Z M9.89547038,0.93728223 L8.371,1.964 L8.37656598,1.98476594 C8.46175292,2.29445888 8.63954386,2.56579399 8.87829521,2.76712767 L8.958,2.829 L3.084,6.785 L3.11062682,6.89934471 C3.11892437,6.94505993 3.12523979,6.9914657 3.12948083,7.03846978 L3.1358885,7.18118467 C3.1358885,7.27740152 3.12722193,7.37159419 3.11062682,7.46302463 L3.085,7.573 L5.746,9.377 L8.378,7.603 C8.35222685,7.50952266 8.33544723,7.41790771 8.32696517,7.32389956 L8.32055749,7.18118467 C8.32055749,6.31523297 9.02255004,5.61324042 9.88850174,5.61324042 C10.7544534,5.61324042 11.456446,6.31523297 11.456446,7.18118467 C11.456446,7.32550995 11.4369462,7.46528081 11.4004375,7.59800636 L11.4,7.599 L14.027,9.377 L16.671,7.576 L16.6454707,7.46302463 C16.6371732,7.41730941 16.6308578,7.37090364 16.6266167,7.32389956 L16.6202091,7.18118467 C16.6202091,7.08496781 16.6288756,6.99077515 16.6454707,6.89934471 L16.672,6.781 L10.823,2.825 L10.8987083,2.76712767 C11.1374596,2.56579399 11.3152506,2.29445888 11.4004375,1.98476594 L11.406,1.959 L9.89547038,0.93728223 Z M18.1881533,5.61324042 C19.054105,5.61324042 19.7560976,6.31523297 19.7560976,7.18118467 C19.7560976,8.04713637 19.054105,8.74912892 18.1881533,8.74912892 C17.8513943,8.74912892 17.5394316,8.64296338 17.2839088,8.4622759 L17.258,8.443 L19.1184669,7.17770035 L17.259,5.919 L17.2839088,5.90009344 C17.5029284,5.74521846 17.7634139,5.64509429 18.0454384,5.61964809 Z M1.56794425,5.61324042 C1.90470324,5.61324042 2.21666595,5.71940596 2.47218876,5.90009344 L2.499,5.921 L0.634146341,7.17770035 L2.499,8.441 L2.47218876,8.4622759 C2.25316921,8.61715088 1.99268361,8.71727505 1.71065914,8.74272124 L1.56794425,8.74912892 C0.701992553,8.74912892 0,8.04713637 0,7.18118467 C0,6.31523297 0.701992553,5.61324042 1.56794425,5.61324042 Z M9.89547038,7.84320557 L10.801,8.455 L10.7927463,8.4622759 C10.5737267,8.61715088 10.3132411,8.71727505 10.0312166,8.74272124 L9.88850174,8.74912892 C9.55174275,8.74912892 9.23978005,8.64296338 8.98425723,8.4622759 L8.98,8.459 L9.89547038,7.84320557 Z M9.89547038,2.19860627 L10.823,2.825 L10.7927463,2.84903548 C10.5737267,3.00391046 10.3132411,3.10403463 10.0312166,3.12948083 L9.88850174,3.1358885 C9.55174275,3.1358885 9.23978005,3.02972296 8.98425723,2.84903548 L8.958,2.829 L9.89547038,2.19860627 Z"></path></clipPath></defs><g transform="translate(-3520.0 -149.0)"><g clip-path="url(#i0)"><g transform="translate(3520.0 149.0)"><g transform="translate(2.00000000000011 2.0)"><g clip-path="url(#i1)"><polygon points="0,0 19.7560976,0 19.7560976,20 0,20 0,0" stroke="none" fill="#FFFFFF"></polygon></g></g></g></g></g></svg>