<?xml version="1.0" encoding="UTF-8"?><svg version="1.1" width="24px" height="24px" viewBox="0 0 24.0 24.0" xmlns="http://www.w3.org/2000/svg" xmlns:xlink="http://www.w3.org/1999/xlink"><defs><clipPath id="i0"><path d="M3923,0 L3923,1019 L0,1019 L0,0 L3923,0 Z"></path></clipPath><clipPath id="i1"><path d="M20.9875781,0 L20.9875781,9.32765625 L18.6555469,9.32765625 L18.6555469,2.33179687 L2.33179687,2.33179687 L2.33179688,18.6557813 L9.32789062,18.6557813 L9.32789062,20.9878125 L0,20.9878125 L0,0 L20.9875781,0 Z M8.16164062,8.15976562 L22.1535938,12.8257031 L16.32375,15.1577344 L20.9878125,19.8217969 L19.8217969,20.9878125 L15.1577344,16.32375 L12.8257031,20.9878125 L8.16164062,8.15976562 Z"></path></clipPath></defs><g transform="translate(-3448.0 -151.0)"><g clip-path="url(#i0)"><g transform="translate(3448.0 151.0)"><g transform="translate(1.5009374999999974 1.4997656250000002)"><g clip-path="url(#i1)"><polygon points="0,0 22.1535938,0 22.1535938,20.9878125 0,20.9878125 0,0" stroke="none" fill="#FFFFFF"></polygon></g></g></g></g></g></svg>