<?xml version="1.0" encoding="UTF-8"?><svg version="1.1" width="24px" height="24px" viewBox="0 0 24.0 24.0" xmlns="http://www.w3.org/2000/svg" xmlns:xlink="http://www.w3.org/1999/xlink"><defs><clipPath id="i0"><path d="M3039,0 L3039,1019 L0,1019 L0,0 L3039,0 Z"></path></clipPath><clipPath id="i1"><path d="M6.90648681,0.000811833409 L6.94321111,0.0128177708 C6.97812319,0.0320677619 7,0.0699596319 7,0.111254246 L7,3.80872154 C7,3.82661537 6.99587516,3.84424516 6.98797232,3.86011334 C6.98143649,3.87324579 6.8231301,4.18531785 6.40558712,4.4951253 C6.16346765,4.6747804 5.88261166,4.81773518 5.57081651,4.92004084 C5.18406044,5.04694992 4.74821495,5.11130348 4.27540555,5.11131485 C3.43792708,5.11134898 3.00512656,5.396223 2.78952017,5.63521309 C2.58994343,5.85645048 2.48428259,6.14340703 2.49963799,6.42253416 C2.52857619,6.94853769 3.00304944,9.28613643 3.00783441,9.30969291 C3.01542069,9.34695364 3.00425533,9.38568512 2.97824373,9.41233996 L2.43598702,9.96821583 C2.41610924,9.98858877 2.38939364,10 2.36156987,10 C2.31305674,10 2.2706921,9.96564795 2.25860601,9.91648263 L0.0033736014,0.748963258 C-0.00982727286,0.695310576 0.0167054109,0.639669394 0.0656108407,0.618446738 L0.534592261,0.414905149 C0.575687136,0.397063627 0.623052255,0.40788376 0.653303008,0.442023547 L0.780800706,0.585911498 C1.00940263,0.507492329 1.7853725,0.263187808 2.6805316,0.224951212 C2.72446633,0.22306214 2.76839017,0.22211761 2.81110691,0.22211761 C3.38161668,0.22211761 3.74503514,0.386523589 4.0964803,0.545524092 C4.34226463,0.656706087 4.57440092,0.761731544 4.86861131,0.804497357 C4.90666269,0.810028009 4.94760681,0.812827471 4.99032355,0.812827471 C5.7192702,0.812759189 6.82245587,0.0274182339 6.83351567,0.0194864213 C6.86607011,-0.00385038606 6.90829322,-0.00641723078 6.94321111,0.0128177708 Z"></path></clipPath><clipPath id="i2"><path d="M3,0 C4.65685425,0 6,1.34314575 6,3 C6,4.65685425 4.65685425,6 3,6 C1.34314575,6 0,4.65685425 0,3 C0,1.34314575 1.34314575,0 3,0 Z"></path></clipPath><clipPath id="i3"><path d="M5.91984584,0.000730650068 L5.95132381,0.0115359937 C5.98124845,0.0288609857 6,0.0629636687 6,0.100128821 L6,3.42784938 C6,3.44395383 5.99646442,3.45982064 5.98969056,3.47410201 C5.98408842,3.48592121 5.84839723,3.76678607 5.49050324,4.04561277 C5.28297227,4.20730236 5.04223857,4.33596167 4.77498558,4.42803675 C4.44348038,4.54225493 4.06989852,4.60017313 3.66463333,4.60018337 C2.94679464,4.60021408 2.57582277,4.8566007 2.39101728,5.07169178 C2.21995151,5.27080543 2.12938508,5.52906633 2.14254685,5.78028075 C2.16735102,6.25368392 2.57404238,8.35752279 2.57814378,8.37872362 C2.5846463,8.41225827 2.57507599,8.44711661 2.55278034,8.47110596 L2.08798888,8.97139425 C2.07095078,8.98972989 2.04805169,9 2.02420274,9 C1.98262006,9 1.94630752,8.96908315 1.93594801,8.92483437 L0.00289165835,0.674066933 C-0.00842337674,0.625779518 0.0143189237,0.575702454 0.0562378635,0.556602064 L0.458221938,0.373414634 C0.493446117,0.357357264 0.53404479,0.367095384 0.559974007,0.397821192 L0.669257748,0.527320348 C0.865202257,0.456743096 1.53031928,0.236869027 2.29759851,0.20245609 C2.33525686,0.200755926 2.37290586,0.199905849 2.40952021,0.199905849 C2.89852858,0.199905849 3.21003012,0.34787123 3.51126883,0.490971683 C3.72194111,0.591035479 3.92091507,0.685558389 4.17309541,0.724047621 C4.20571088,0.729025208 4.24080584,0.731544724 4.27742018,0.731544724 C4.9022316,0.73148327 5.84781932,0.0246764105 5.85729915,0.0175377791 C5.88520295,-0.00346534746 5.92139419,-0.00577550771 5.95132381,0.0115359937 Z"></path></clipPath><clipPath id="i4"><path d="M7,0 L7,11 L0,11 L0,5.946 L7,0 Z"></path></clipPath></defs><g transform="translate(-1009.0 -210.0)"><g clip-path="url(#i0)"><g transform="translate(1009.0 210.0)"><g transform="translate(1.0 1.0)"><g transform="translate(8.0 0.0)"><g transform="translate(3.0 0.0)"><g clip-path="url(#i1)"><polygon points="-6.9388939e-17,-3.6429193e-17 7,-3.6429193e-17 7,10 -6.9388939e-17,10 -6.9388939e-17,-3.6429193e-17" stroke="none" fill="#FFFFFF"></polygon></g></g></g><g transform="translate(0.0 15.0)"><g clip-path="url(#i2)"><polygon points="0,0 6,0 6,6 0,6 0,0" stroke="none" fill="#FFFFFF"></polygon></g></g><g transform="translate(17.0 11.0)"><g clip-path="url(#i3)"><polygon points="-4.16333634e-17,-3.12250226e-17 6,-3.12250226e-17 6,9 -4.16333634e-17,9 -4.16333634e-17,-3.12250226e-17" stroke="none" fill="#FFFFFF"></polygon></g></g><g transform="translate(2.0 9.129591085942593)"><path d="M17,10.1204089 L0,10.1204089 L11.5,0" stroke="#FFFFFF" stroke-width="1.5" fill="none" stroke-linejoin="round"></path></g><g transform="translate(9.0 8.0)"><g clip-path="url(#i4)"><polygon points="0,0 7,0 7,11 0,11 0,0" stroke="none" fill="#FFFFFF" opacity="50%"></polygon></g></g></g></g></g></g></svg>