<?xml version="1.0" encoding="UTF-8"?>
<svg width="24px" height="24px" viewBox="0 0 24 24" version="1.1" xmlns="http://www.w3.org/2000/svg" xmlns:xlink="http://www.w3.org/1999/xlink">
    <title>雪</title>
    <g id="页面-2" stroke="none" stroke-width="1" fill="none" fill-rule="evenodd">
        <g id="环境选择-雨/雪" transform="translate(-180.000000, -543.000000)" fill-rule="nonzero">
            <g id="雪" transform="translate(180.000000, 543.000000)">
                <rect id="矩形" fill="#000000" opacity="0" x="0" y="0" width="24" height="24"></rect>
                <path d="M21.2181741,16.4980543 L18.3648766,14.8506832 L20.9811428,14.0332215 C21.3604216,13.9147178 21.5718383,13.5111435 21.4533346,13.1318646 C21.334855,12.7525857 20.9313046,12.5411451 20.5519777,12.6596727 L16.6705693,13.8724345 L13.4390483,12.0067155 L16.6062449,10.1781232 L20.5519777,11.4109834 C20.6234253,11.4333122 20.6956883,11.443937 20.7667761,11.443913 C21.0731204,11.443913 21.3571358,11.2466468 21.4533346,10.9387915 C21.5718382,10.5594887 21.3604456,10.1559383 20.9811428,10.0374346 L18.3005762,9.19987448 L21.1933988,7.52969487 C21.5375415,7.33098959 21.6554456,6.89095992 21.4567403,6.54681727 C21.258035,6.20267461 20.8180053,6.08477053 20.4738866,6.28345184 L17.6206132,7.93079895 L18.2207822,5.25634823 C18.3078192,4.86860313 18.0640245,4.48376004 17.6763034,4.39674705 C17.2883664,4.30968607 16.9036912,4.55352877 16.8167022,4.94124989 L15.9262819,8.90902373 L12.7002052,10.7716009 L12.7002052,7.12914244 L15.7353474,4.3334779 C16.0276372,4.06426043 16.0463206,3.60907305 15.7770791,3.31678322 C15.5078856,3.02449338 15.0527222,3.00583404 14.7603844,3.27502753 L12.7002052,5.17266893 L12.7002052,2.17333448 C12.7002052,1.7759719 12.3780557,1.45382231 11.9806931,1.45382231 C11.5833305,1.45382231 11.2611809,1.7759719 11.2611809,2.17333448 L11.2611809,5.13702909 L9.23968748,3.27502753 C8.94742165,3.00581006 8.4921863,3.02449338 8.2229928,3.31678322 C7.95377534,3.60907305 7.97245866,4.06426043 8.26474849,4.3334779 L11.261133,7.0935026 L11.261133,10.7493439 L8.08801233,8.91734604 L7.19759203,4.94959617 C7.11057902,4.56185107 6.725664,4.31808033 6.33799085,4.40509334 C5.95024575,4.49210634 5.70647501,4.87694941 5.79348802,5.26469452 L6.39365709,7.93912125 L3.52611328,6.28352374 C3.18192265,6.08484244 2.74191696,6.20274652 2.54325966,6.54688917 C2.34455437,6.89103185 2.46248243,7.33106149 2.80660111,7.52976677 L5.71369411,9.20817281 L3.03312752,10.0457329 C2.65384868,10.1642366 2.44243202,10.567787 2.56093568,10.9470898 C2.65713445,11.2549451 2.94110194,11.4522114 3.24749419,11.4522114 C3.318558,11.4522114 3.39086897,11.4415866 3.46229255,11.4192817 L7.40802534,10.1864216 L10.5609517,12.0067634 L7.34372494,13.864232 L3.46231652,12.6514703 C3.08296573,12.5329426 2.67946329,12.7443593 2.56095963,13.1236621 C2.44245598,13.5029649 2.65384866,13.9065154 3.03315148,14.025019 L5.64941766,14.8424808 L2.78182589,16.4980783 C2.43768321,16.6967596 2.31977916,17.1368132 2.51848444,17.4809319 C2.65176209,17.7117754 2.89359012,17.8408079 3.14225353,17.8408079 C3.26430677,17.8408079 3.38803889,17.809701 3.50133806,17.7442973 L6.40845504,16.0658673 L5.79351197,18.8060815 C5.70649896,19.1938266 5.95029368,19.5786936 6.3380148,19.6656826 C6.39106683,19.6776026 6.44402292,19.6833107 6.49623553,19.6833107 C6.82546031,19.6833107 7.12252291,19.4558729 7.19761598,19.1211798 L8.10278627,15.0876186 L11.2611329,13.2641349 L11.261133,16.9937502 L8.26472452,19.7537509 C7.97243468,20.0229684 7.95375136,20.4781558 8.22296883,20.7704456 C8.36483264,20.9244452 8.55828548,21.0024883 8.75238588,21.0024883 C8.92662776,21.0024883 9.10139726,20.939555 9.23966351,20.8121773 L11.2611569,18.9501757 L11.2611569,21.8160167 C11.2611569,22.2133793 11.5833065,22.5355289 11.9806691,22.5355289 C12.3780317,22.5355289 12.7001813,22.2133793 12.7001813,21.8160167 L12.7001813,18.9145359 L14.7603605,20.8121773 C15.0526743,21.0814428 15.5078377,21.0626875 15.7770551,20.7704456 C16.0462966,20.4781558 16.0275893,20.0229684 15.7353234,19.7537509 L12.7001813,16.9580864 L12.7001813,13.2418061 L15.911508,15.095869 L16.8166783,19.1294303 C16.8917954,19.4641233 17.188834,19.6915611 17.5180587,19.6915611 C17.5702474,19.6915611 17.6232514,19.685853 17.6763034,19.6739331 C18.0640246,19.5869441 18.3077953,19.202077 18.2207823,18.8143319 L17.6058392,16.0741178 L20.4986859,17.7442974 C20.612009,17.809749 20.7356932,17.840808 20.8577704,17.840808 C21.1064338,17.840808 21.3483098,17.7117514 21.4815635,17.4809319 C21.6802208,17.1367893 21.5623167,16.6967356 21.2181741,16.4980543 Z" id="路径" fill="#F1F1F1"></path>
            </g>
        </g>
    </g>
</svg>