<?xml version="1.0" encoding="UTF-8"?><svg version="1.1" width="32px" height="32px" viewBox="0 0 32.0 32.0" xmlns="http://www.w3.org/2000/svg" xmlns:xlink="http://www.w3.org/1999/xlink"><defs><clipPath id="i0"><path d="M1920,0 L1920,1080 L0,1080 L0,0 L1920,0 Z"></path></clipPath><clipPath id="i1"><path d="M21.213,14.849 L23.2359574,16.8719964 L22.5312229,22.5312229 L16.8719964,23.2359574 L14.849,21.213 L21.213,14.849 Z M7.68198052,1.31801948 L9.192,2.828 L2.828,9.192 L1.31801948,7.68198052 C-0.439339828,5.9246212 -0.439339828,3.0753788 1.31801948,1.31801948 C3.0753788,-0.439339828 5.9246212,-0.439339828 7.68198052,1.31801948 Z"></path></clipPath><linearGradient id="i2" x1="0.0599052051px" y1="11.5598889px" x2="23.5282223px" y2="11.5598889px" gradientUnits="userSpaceOnUse"><stop stop-color="#3022AD" offset="0%"></stop><stop stop-color="#52A0FD" offset="47.5247532%"></stop><stop stop-color="#B4EC50" offset="100%"></stop></linearGradient><clipPath id="i3"><path d="M2,1.2863044e-11 L2,6 L-4.54747351e-13,6 L-4.54747351e-13,1.2863044e-11 L2,1.2863044e-11 Z M12,-3.89910326e-13 L12,6 L10,6 L10,-3.89910326e-13 L12,-3.89910326e-13 Z M17,1.71428571 L17,6 L15,6 L15,1.71428571 L17,1.71428571 Z M7,1.71428571 L7,6 L5,6 L5,1.71428571 L7,1.71428571 Z"></path></clipPath></defs><g transform="translate(-21.0 -161.0)"><g clip-path="url(#i0)"><g transform="translate(21.0 161.0)"><g transform="translate(4.0 4.0)"><g transform="translate(0.4124278936350265 0.9124278936387782)"><g clip-path="url(#i1)"><polygon points="7.32747196e-15,-2.20046203e-13 23.2359574,-2.20046203e-13 23.2359574,23.2359574 7.32747196e-15,23.2359574 7.32747196e-15,-2.20046203e-13" stroke="none" fill="url(#i2)"></polygon></g><path d="M21.213,14.849 L23.2359574,16.8719964 L22.5312229,22.5312229 L16.8719964,23.2359574 L14.849,21.213 L21.213,14.849 Z M7.68198052,1.31801948 L9.192,2.828 L2.828,9.192 L1.31801948,7.68198052 C-0.439339828,5.9246212 -0.439339828,3.0753788 1.31801948,1.31801948 C3.0753788,-0.439339828 5.9246212,-0.439339828 7.68198052,1.31801948 Z" stroke="#FFFFFF" stroke-width="2" fill="none" stroke-miterlimit="10"></path></g><g transform="translate(17.949747468305834 0.9791847198286909) rotate(45.00000000000001)"><path d="M1,0 L9,0 C9.55228475,-1.01453063e-16 10,0.44771525 10,1 L10,23 C10,23.5522847 9.55228475,24 9,24 L1,24 C0.44771525,24 6.76353751e-17,23.5522847 0,23 L0,1 C-6.76353751e-17,0.44771525 0.44771525,1.01453063e-16 1,0 Z" stroke="#FFFFFF" stroke-width="2" fill="none" stroke-miterlimit="10"></path></g><g transform="translate(6.102138890579008 19.40051192634408) rotate(-44.99999999999999)"><g clip-path="url(#i3)"><polygon points="-4.54747351e-13,-3.89910326e-13 17,-3.89910326e-13 17,6 -4.54747351e-13,6 -4.54747351e-13,-3.89910326e-13" stroke="none" fill="#FFFFFF"></polygon></g></g></g></g></g></g></svg>