<?xml version="1.0" encoding="UTF-8"?><svg version="1.1" width="32px" height="32px" viewBox="0 0 32.0 32.0" xmlns="http://www.w3.org/2000/svg" xmlns:xlink="http://www.w3.org/1999/xlink"><defs><clipPath id="i0"><path d="M3923,0 L3923,1019 L0,1019 L0,0 L3923,0 Z"></path></clipPath><clipPath id="i1"><path d="M6,0 L6,6 L0,6 L0,0 L6,0 Z"></path></clipPath><linearGradient id="i2" x1="0.0154687506px" y1="2.98500001px" x2="6.07546878px" y2="2.98500001px" gradientUnits="userSpaceOnUse"><stop stop-color="#3022AD" offset="0%"></stop><stop stop-color="#52A0FD" offset="47.5247532%"></stop><stop stop-color="#B4EC50" offset="100%"></stop></linearGradient></defs><g transform="translate(-2280.0 -88.0)"><g clip-path="url(#i0)"><g transform="translate(2280.0 88.0)"><g transform="translate(2.0 2.0)"><g transform="translate(8.0 10.0)"><polygon points="2.57431595,13.0688207 0,9.83046066 5.12449432,0.00520934591 6.86122584,0 12,9.86914792 9.41557353,13.0688207 9.41557353,18 2.57431595,18 2.57431595,13.0688207 2.57431595,13.0688207" stroke="#FEFFFE" stroke-width="2" fill="none" stroke-miterlimit="10"></polygon></g><g transform="translate(13.5 9.0)"><path d="M0.5,0 L0.5,9" stroke="#FEFFFE" stroke-width="2" fill="none" stroke-miterlimit="10"></path></g><g transform="translate(10.61290322580658 23.0)"><path d="M0.387096774,1 L7.38709677,1" stroke="#FFFFFF" stroke-width="2" fill="none" stroke-miterlimit="10"></path></g><g transform="translate(0.0 12.0)"><g clip-path="url(#i1)"><polygon points="0,0 6,0 6,6 0,6 0,0 0,0" stroke="#FEFFFE" stroke-width="4" fill="none" stroke-miterlimit="5"></polygon></g></g><g transform="translate(21.98387096774195 12.0)"><g clip-path="url(#i1)"><polygon points="0,0 6,0 6,6 0,6 0,0 0,0" stroke="#FEFFFE" stroke-width="4" fill="none" stroke-miterlimit="5"></polygon></g></g><g transform="translate(3.0 3.0)"><path d="M22,10 C21.4437622,4.67470847 18.1070841,0.7120483 13,0 M10,0 C4.49061616,0.56035671 0.771463359,4.76587875 0,10" stroke="#FEFFFE" stroke-width="2" fill="none" stroke-miterlimit="10"></path></g><g transform="translate(11.0 0.0)"><g clip-path="url(#i1)"><polygon points="0,0 6,0 6,6 0,6 0,0" stroke="none" fill="url(#i2)"></polygon></g><polygon points="0,0 6,0 6,6 0,6 0,0 0,0" stroke="#FFFFFF" stroke-width="1" fill="none" stroke-miterlimit="10"></polygon></g></g></g></g></g></svg>