<?xml version="1.0" encoding="UTF-8"?><svg version="1.1" width="32px" height="32px" viewBox="0 0 32.0 32.0" xmlns="http://www.w3.org/2000/svg" xmlns:xlink="http://www.w3.org/1999/xlink"><defs><clipPath id="i0"><path d="M3923,0 L3923,1019 L0,1019 L0,0 L3923,0 Z"></path></clipPath><clipPath id="i1"><path d="M5,0 C7.76142375,0 10,2.23857625 10,5 C10,6.15954521 9.60528725,7.22690032 8.94289357,8.07503351 C8.63566368,8.0251719 8.32077145,8 8,8 C6.31251905,8 4.7877448,8.69663019 3.69906192,9.81888936 C3.12755553,7.79754816 1.78146949,6.10136655 0.00170116155,5.07124191 L0,5 C0,2.23857625 2.23857625,0 5,0 Z"></path></clipPath><linearGradient id="i2" x1="0.025781251px" y1="4.97500002px" x2="10.1257813px" y2="4.97500002px" gradientUnits="userSpaceOnUse"><stop stop-color="#3022AD" offset="0%"></stop><stop stop-color="#52A0FD" offset="47.5247532%"></stop><stop stop-color="#B4EC50" offset="100%"></stop></linearGradient><clipPath id="i3"><path d="M1,0 C1.55228475,-1.01453063e-16 2,0.44771525 2,1 L2,2 C2,2.55228475 1.55228475,3 1,3 C0.44771525,3 6.76353751e-17,2.55228475 0,2 L0,1 C-6.76353751e-17,0.44771525 0.44771525,1.01453063e-16 1,0 Z"></path></clipPath></defs><g transform="translate(-59.0 -575.0)"><g clip-path="url(#i0)"><g transform="translate(59.0 575.0)"><g transform="translate(4.0 12.0)"><path d="M8,16 C3.581722,16 0,12.418278 0,8 C0,3.581722 3.581722,0 8,0 C11.6621543,0 14.7495808,2.46070229 15.6990619,5.81888936 C16.7877448,4.69663019 18.3125191,4 20,4 C23.3137085,4 26,6.6862915 26,10 C26,12.7475984 24.1531524,15.0638425 21.6331293,15.7750602 C21.460365,15.91541 21.2400611,16 21,16 Z" stroke="#FFFFFF" stroke-width="2" fill="none" stroke-miterlimit="10"></path></g><g transform="translate(16.0 8.0)"><g clip-path="url(#i1)"><polygon points="0,0 10,0 10,9.81888936 0,9.81888936 0,0" stroke="none" fill="url(#i2)"></polygon></g><path d="M5,0 C7.76142375,0 10,2.23857625 10,5 C10,6.15954521 9.60528725,7.22690032 8.94289357,8.07503351 C8.63566368,8.0251719 8.32077145,8 8,8 C6.31251905,8 4.7877448,8.69663019 3.69906192,9.81888936 C3.12755553,7.79754816 1.78146949,6.10136655 0.00170116155,5.07124191 L0,5 C0,2.23857625 2.23857625,0 5,0 Z" stroke="#FFFFFF" stroke-width="2" fill="none" stroke-miterlimit="10"></path></g><g transform="translate(20.0 3.0)"><g clip-path="url(#i3)"><polygon points="0,0 2,0 2,3 0,3 0,0" stroke="none" fill="#FFFFFF"></polygon></g></g><g transform="translate(25.133974596215563 3.83974596215549) rotate(29.999999999999996)"><g clip-path="url(#i3)"><polygon points="9.09494702e-13,0 2,0 2,3 9.09494702e-13,3 9.09494702e-13,0" stroke="none" fill="#FFFFFF"></polygon></g></g><g transform="translate(29.16025403784428 7.133974596215561) rotate(59.99999999999999)"><g clip-path="url(#i3)"><polygon points="0,0 2,0 2,3 0,3 0,0" stroke="none" fill="#FFFFFF"></polygon></g></g><g transform="translate(31.0 12.0) rotate(90.0)"><g clip-path="url(#i3)"><polygon points="0,0 2,0 2,3 0,3 0,0" stroke="none" fill="#FFFFFF"></polygon></g></g><g transform="translate(15.13397459621556 4.839745962155491) rotate(-30.00000000000003)"><g clip-path="url(#i3)"><polygon points="9.09494702e-13,0 2,0 2,3 9.09494702e-13,3 9.09494702e-13,0" stroke="none" fill="#FFFFFF"></polygon></g></g></g></g></g></svg>