<?xml version="1.0" encoding="UTF-8"?>
<svg width="24px" height="24px" viewBox="0 0 24 24" version="1.1" xmlns="http://www.w3.org/2000/svg" xmlns:xlink="http://www.w3.org/1999/xlink">
    <title>体剖切</title>
    <g id="页面-2" stroke="none" stroke-width="1" fill="none" fill-rule="evenodd">
        <g id="剖切-剖切" transform="translate(-181.000000, -151.000000)">
            <g id="面剖切备份-4" transform="translate(181.000000, 151.000000)">
                <rect id="矩形" fill="#000000" fill-rule="nonzero" opacity="0" x="0" y="0" width="24" height="24"></rect>
                <g id="编组-2" transform="translate(2.000000, 3.000000)">
                    <path d="M3,3 L3,1 C3,0.44771525 3.44771525,0 4,0 L18,0 C18.5522847,0 19,0.44771525 19,1 L19,15 C19,15.5522847 18.5522847,16 18,16 L16,16" id="路径" stroke="#FFFFFF" stroke-width="1.5"></path>
                    <path d="M12,8 L12,16 C12,16.5522847 11.5522847,17 11,17 L3,17 C2.44771525,17 2,16.5522847 2,16 L2,8 C2,7.44771525 2.44771525,7 3,7 L11,7 C11.5522847,7 12,7.44771525 12,8 Z" id="路径" fill="#FFFFFF" opacity="0.5"></path>
                    <path d="M1,5 L13,5 C13.5522847,5 14,5.44771525 14,6 L14,18 C14,18.5522847 13.5522847,19 13,19 L1,19 C0.44771525,19 9.37667865e-16,18.5522847 0,18 L0,6 C-1.78657678e-16,5.44771525 0.44771525,5 1,5 Z" id="矩形备份-5" stroke="#FFFFFF" stroke-width="1.5" stroke-dasharray="2.2,2.5"></path>
                </g>
            </g>
        </g>
    </g>
</svg>