<?xml version="1.0" encoding="UTF-8"?>
<svg width="24px" height="24px" viewBox="0 0 24 24" version="1.1" xmlns="http://www.w3.org/2000/svg" xmlns:xlink="http://www.w3.org/1999/xlink">
    <title>点选</title>
    <g id="0602最新布局" stroke="none" stroke-width="1" fill="none" fill-rule="evenodd">
        <g id="查询" transform="translate(-107.000000, -149.000000)">
            <g id="点选" transform="translate(107.000000, 149.000000)">
                <rect id="矩形" x="0" y="0" width="24" height="24"></rect>
                <circle id="椭圆形" fill="#FFFFFF" opacity="0.5" cx="6.5" cy="6.5" r="6"></circle>
                <g id="编组-3" transform="translate(6.228326, 6.228983)" stroke="#FFFFFF" stroke-width="1.5">
                    <path d="M0.0192380262,0.637489562 L4.24246647,15.4187891 C4.31832862,15.6843066 4.5950715,15.8380527 4.86058901,15.7621905 C5.00521283,15.7208694 5.12355115,15.6166378 5.18280096,15.4783882 L8.2716744,8.27101686 L8.2716744,8.27101686 L15.4761166,5.20022565 C15.7301458,5.0919493 15.8483019,4.79824261 15.7400255,4.54421339 C15.6809874,4.40570279 15.5626743,4.30117205 15.4179443,4.25965163 L0.637879391,0.0195155631 C0.372443921,-0.056633122 0.0955352505,0.096814136 0.0193865654,0.362249607 C-0.00641160327,0.452175638 -0.00646306642,0.547535737 0.0192380262,0.637489562 Z" id="形状结合" stroke-linejoin="round"></path>
                    <line x1="13.7716744" y1="13.7710169" x2="9.2716744" y2="9.27101686" id="路径-11" stroke-linecap="round"></line>
                </g>
            </g>
        </g>
    </g>
</svg>