<?xml version="1.0" encoding="UTF-8"?><svg version="1.1" width="32px" height="32px" viewBox="0 0 32.0 32.0" xmlns="http://www.w3.org/2000/svg" xmlns:xlink="http://www.w3.org/1999/xlink"><defs><clipPath id="i0"><path d="M3039,0 L3039,1019 L0,1019 L0,0 L3039,0 Z"></path></clipPath><clipPath id="i1"><path d="M13.8344775,7.34832242 L19.4124563,12.9280986 C20.1958479,13.7105732 20.1958479,14.9920399 19.4124563,15.7753948 L15.7747988,19.4139327 C14.9922875,20.1973244 13.7108575,20.1973244 12.9274658,19.4139327 L7.34864339,13.8351103 L13.8344775,7.34832242 Z M7.07275425,0.587516209 L12.5677205,6.08248245 L6.0809693,12.5683533 L0.586883436,7.07254333 C-0.195627812,6.29087578 -0.195627812,5.00944575 0.586883436,4.22605412 L4.22542134,0.587516209 C5.00877629,-0.195838736 6.2910867,-0.195838736 7.07275425,0.587516209 Z M5.92448172,1.33627955 L1.33656384,5.9242708 L5.92444504,10.5130324 L10.51328,5.9242708 L5.92448172,1.33627955 Z"></path></clipPath><clipPath id="i2"><path d="M6.81296875,0 L8.46225,6.2605 L13.7224063,8.1558125 L8.4850625,10.113 L6.9101875,16.391125 L5.2601875,10.1314062 L0,8.23684375 L5.23734375,6.280375 L6.81296875,0 Z"></path></clipPath><linearGradient id="i3" x1="0.03537808px" y1="8.15458473px" x2="13.8950085px" y2="8.15458473px" gradientUnits="userSpaceOnUse"><stop stop-color="#3022AD" offset="0%"></stop><stop stop-color="#52A0FD" offset="47.5247532%"></stop><stop stop-color="#B4EC50" offset="100%"></stop></linearGradient><clipPath id="i4"><path d="M4.02732158,1.46446765 C4.20937582,1.47243946 4.37267642,1.57882547 4.45353336,1.74213331 L5.52885404,3.91397294 C5.60182691,4.06135721 5.74261065,4.16343184 5.90537774,4.18696977 L8.25461692,4.52669591 C8.52791641,4.56621806 8.71743039,4.8198101 8.67790824,5.09310959 C8.65688624,5.23847874 8.57300882,5.36725162 8.4485435,5.44524199 L6.43664717,6.70590273 C6.29728757,6.7932259 6.20978052,6.94349537 6.20261037,7.10779699 L6.09698733,9.52811648 C6.0849479,9.80399628 5.85154325,10.0178812 5.57566346,10.0058417 C5.39359392,9.99789619 5.23026761,9.89151862 5.14939316,9.72820368 L4.07434489,7.55729005 C4.00138185,7.40995112 3.86064651,7.30789905 3.69792831,7.28433736 L1.3483024,6.94411004 C1.07501025,6.90453716 0.88554334,6.65090995 0.925116216,6.3776178 C0.946162032,6.2322744 1.03004156,6.10353276 1.15449281,6.0255615 L3.16583719,4.76541285 C3.30518873,4.67810624 3.39270218,4.52786157 3.39989591,4.36357662 L3.50592714,1.94211588 C3.51800732,1.66623787 3.75144356,1.45238747 4.02732158,1.46446765 Z"></path></clipPath><linearGradient id="i5" x1="0.0247582993px" y1="5.70660487px" x2="9.72400928px" y2="5.70660487px" gradientUnits="userSpaceOnUse"><stop stop-color="#3022AD" offset="0%"></stop><stop stop-color="#52A0FD" offset="47.5247532%"></stop><stop stop-color="#B4EC50" offset="100%"></stop></linearGradient><clipPath id="i6"><path d="M2.64003125,0 L3.56303125,2.62896875 L5.8855625,3.25953125 L3.70590625,4.28046875 L3.24553125,7.02953125 L2.3225625,4.3998125 L0,3.76778125 L2.17965625,2.7475625 L2.64003125,0 Z"></path></clipPath><linearGradient id="i7" x1="0.0151737164px" y1="3.49719181px" x2="5.95959187px" y2="3.49719181px" gradientUnits="userSpaceOnUse"><stop stop-color="#3022AD" offset="0%"></stop><stop stop-color="#52A0FD" offset="47.5247532%"></stop><stop stop-color="#B4EC50" offset="100%"></stop></linearGradient></defs><g transform="translate(-2659.0 -83.0)"><g clip-path="url(#i0)"><g transform="translate(2659.0 82.99999999999994)"><g transform="translate(12.0 12.0)"><g clip-path="url(#i1)"><polygon points="1.11022302e-15,0 20,0 20,20.0014765 1.11022302e-15,20.0014765 1.11022302e-15,0" stroke="none" fill="#FFFFFF"></polygon></g></g><g transform="translate(0.9133437499999957 1.1549999999999727)"><g clip-path="url(#i2)"><polygon points="0,0 13.7224063,0 13.7224063,16.391125 0,16.391125 0,0" stroke="none" fill="url(#i3)"></polygon></g><polygon points="6.81296875,0 8.46225,6.2605 13.7224063,8.1558125 8.4850625,10.113 6.9101875,16.391125 5.2601875,10.1314062 0,8.23684375 5.23734375,6.280375 6.81296875,0 6.81296875,0" stroke="#FFFFFF" stroke-width="1" fill="none" stroke-linejoin="round"></polygon></g><g transform="translate(16.10940625000001 1.9707500000000238)"><g clip-path="url(#i4)"><polygon points="0.919890551,1.46398004 8.6831205,1.46398004 8.6831205,10.0063261 0.919890551,10.0063261 0.919890551,1.46398004" stroke="none" fill="url(#i5)"></polygon><path d="M4.45353336,1.74213331 L5.52885404,3.91397294 C5.60182691,4.06135721 5.74261065,4.16343184 5.90537774,4.18696977 L8.25461692,4.52669591 C8.52791641,4.56621806 8.71743039,4.8198101 8.67790824,5.09310959 C8.65688624,5.23847874 8.57300882,5.36725162 8.4485435,5.44524199 L6.43664717,6.70590273 C6.29728757,6.7932259 6.20978052,6.94349537 6.20261037,7.10779699 L6.09698733,9.52811648 C6.0849479,9.80399628 5.85154325,10.0178812 5.57566346,10.0058417 C5.39359392,9.99789619 5.23026761,9.89151862 5.14939316,9.72820368 L4.07434489,7.55729005 C4.00138185,7.40995112 3.86064651,7.30789905 3.69792831,7.28433736 L1.3483024,6.94411004 C1.07501025,6.90453716 0.88554334,6.65090995 0.925116216,6.3776178 C0.946162032,6.2322744 1.03004156,6.10353276 1.15449281,6.0255615 L3.16583719,4.76541285 C3.30518873,4.67810624 3.39270218,4.52786157 3.39989591,4.36357662 L3.50592714,1.94211588 C3.51800732,1.66623787 3.75144356,1.45238747 4.02732158,1.46446765 C4.20937582,1.47243946 4.37267642,1.57882547 4.45353336,1.74213331 Z" stroke="#FFFFFF" stroke-width="2" fill="none" stroke-linejoin="round"></path></g></g><g transform="translate(5.693968750000009 18.87762499999985)"><g clip-path="url(#i6)"><polygon points="0,0 5.8855625,0 5.8855625,7.02953125 0,7.02953125 0,0" stroke="none" fill="url(#i7)"></polygon><polygon points="2.64003125,0 3.56303125,2.62896875 5.8855625,3.25953125 3.70590625,4.28046875 3.24553125,7.02953125 2.3225625,4.3998125 0,3.76778125 2.17965625,2.7475625 2.64003125,0 2.64003125,0" stroke="#FFFFFF" stroke-width="2" fill="none" stroke-linejoin="round"></polygon></g></g></g></g></g></svg>