<?xml version="1.0" encoding="UTF-8"?><svg version="1.1" width="24px" height="24px" viewBox="0 0 24.0 24.0" xmlns="http://www.w3.org/2000/svg" xmlns:xlink="http://www.w3.org/1999/xlink"><defs><clipPath id="i0"><path d="M3923,0 L3923,1019 L0,1019 L0,0 L3923,0 Z"></path></clipPath><clipPath id="i1"><path d="M18.4722222,0 C18.7677778,0 19,0.232222222 19,0.527777778 L19,16.4877778 C19,16.7305556 18.8416667,16.9205556 18.62,16.9944444 L12.6666667,19 L6.33333333,16.7833333 L0.696666667,18.9683333 L0.527777778,19 C0.232222222,19 0,18.7677778 0,18.4722222 L0,2.51222222 C0,2.26944444 0.158333333,2.07944444 0.38,2.00555556 L6.33333333,0 L12.6666667,2.21666667 L18.3033333,0.0316666667 Z M6.33333333,2.11111111 L6.33333333,14.6616667 L12.6666667,16.8888889 L12.6666667,4.33833333 L6.33333333,2.11111111 Z"></path></clipPath></defs><g transform="translate(-835.0 -630.0)"><g clip-path="url(#i0)"><g transform="translate(835.0 629.1353680524353)"><g transform="translate(2.0 3.8646319475647033)"><g clip-path="url(#i1)"><polygon points="0,0 19,0 19,19 0,19 0,0" stroke="none" fill="#FFFFFF"></polygon></g></g></g></g></g></svg>