<?xml version="1.0" encoding="UTF-8"?>
<svg width="24px" height="24px" viewBox="0 0 24 24" version="1.1" xmlns="http://www.w3.org/2000/svg" xmlns:xlink="http://www.w3.org/1999/xlink">
    <title>通视</title>
    <g id="崂山" stroke="none" stroke-width="1" fill="none" fill-rule="evenodd">
        <g id="空间分析" transform="translate(-179.000000, -453.000000)">
            <g id="通视" transform="translate(179.000000, 453.000000)">
                <rect id="矩形" x="0" y="0" width="24" height="24" rx="1"></rect>
                <g id="编组-13" transform="translate(1.000000, 1.000000)">
                    <g id="旗子_icon" transform="translate(8.000000, 0.000000)" fill-rule="nonzero">
                        <rect id="矩形" fill="#000000" opacity="0" x="0" y="0" width="11" height="11"></rect>
                        <path d="M9.94321111,0.0128177708 C9.90829322,-0.00641723078 9.86607011,-0.00385038606 9.83351567,0.0194864213 C9.82245587,0.0274182339 8.7192702,0.812759189 7.99032355,0.812827471 C7.94760681,0.812827471 7.90666269,0.810028009 7.86861131,0.804497357 C7.57440092,0.761731544 7.34226463,0.656706087 7.0964803,0.545524092 C6.74503514,0.386523589 6.38161668,0.22211761 5.81110691,0.22211761 C5.76839017,0.22211761 5.72446633,0.22306214 5.6805316,0.224951212 C4.7853725,0.263187808 4.00940263,0.507492329 3.78080071,0.585911498 L3.65330301,0.442023547 C3.62305226,0.40788376 3.57568714,0.397063627 3.53459226,0.414905149 L3.06561084,0.618446738 C3.01670541,0.639669394 2.99017273,0.695310576 3.0033736,0.748963258 L5.25860601,9.91648263 C5.2706921,9.96564795 5.31305674,10 5.36156987,10 C5.38939364,10 5.41610924,9.98858877 5.43598702,9.96821583 L5.97824373,9.41233996 C6.00425533,9.38568512 6.01542069,9.34695364 6.00783441,9.30969291 C6.00304944,9.28613643 5.52857619,6.94853769 5.49963799,6.42253416 C5.48428259,6.14340703 5.58994343,5.85645048 5.78952017,5.63521309 C6.00512656,5.396223 6.43792708,5.11134898 7.27540555,5.11131485 C7.74821495,5.11130348 8.18406044,5.04694992 8.57081651,4.92004084 C8.88261166,4.81773518 9.16346765,4.6747804 9.40558712,4.4951253 C9.8231301,4.18531785 9.98143649,3.87324579 9.98797232,3.86011334 C9.99587516,3.84424516 10,3.82661537 10,3.80872154 L10,0.111254246 C10,0.0699596319 9.97812319,0.0320677619 9.94321111,0.0128177708 Z" id="路径" fill="#FFFFFF"></path>
                    </g>
                    <circle id="椭圆形" fill="#FFFFFF" cx="3" cy="18" r="3"></circle>
                    <path d="M22.9513238,11.011536 C22.9213942,10.9942245 22.885203,10.9965347 22.8572991,11.0175378 C22.8478193,11.0246764 21.9022316,11.7314833 21.2774202,11.7315447 C21.2408058,11.7315447 21.2057109,11.7290252 21.1730954,11.7240476 C20.9209151,11.6855584 20.7219411,11.5910355 20.5112688,11.4909717 C20.2100301,11.3478712 19.8985286,11.1999058 19.4095202,11.1999058 C19.3729059,11.1999058 19.3352569,11.2007559 19.2975985,11.2024561 C18.5303193,11.236869 17.8652023,11.4567431 17.6692577,11.5273203 L17.559974,11.3978212 C17.5340448,11.3670954 17.4934461,11.3573573 17.4582219,11.3734146 L17.0562379,11.5566021 C17.0143189,11.5757025 16.9915766,11.6257795 17.0028917,11.6740669 L18.935948,19.9248344 C18.9463075,19.9690832 18.9826201,20 19.0242027,20 C19.0480517,20 19.0709508,19.9897299 19.0879889,19.9713942 L19.5527803,19.471106 C19.575076,19.4471166 19.5846463,19.4122583 19.5781438,19.3787236 C19.5740424,19.3575228 19.167351,17.2536839 19.1425469,16.7802807 C19.1293851,16.5290663 19.2199515,16.2708054 19.3910173,16.0716918 C19.5758228,15.8566007 19.9467946,15.6002141 20.6646333,15.6001834 C21.0698985,15.6001731 21.4434804,15.5422549 21.7749856,15.4280368 C22.0422386,15.3359617 22.2829723,15.2073024 22.4905032,15.0456128 C22.8483972,14.7667861 22.9840884,14.4859212 22.9896906,14.474102 C22.9964644,14.4598206 23,14.4439538 23,14.4278494 L23,11.1001288 C23,11.0629637 22.9812484,11.028861 22.9513238,11.011536 Z" id="路径" fill="#FFFFFF" fill-rule="nonzero"></path>
                    <polyline id="路径-28" stroke="#FFFFFF" stroke-width="1.5" stroke-linejoin="round" points="19 19.25 2 19.25 13.5 9.12959109"></polyline>
                    <polygon id="矩形" fill="#FFFFFF" opacity="0.5" points="9 13.946 16 8 16 19 9 19"></polygon>
                </g>
            </g>
        </g>
    </g>
</svg>