<?xml version="1.0" encoding="UTF-8"?>
<svg width="24px" height="24px" viewBox="0 0 24 24" version="1.1" xmlns="http://www.w3.org/2000/svg" xmlns:xlink="http://www.w3.org/1999/xlink">
    <title>导览</title>
    <g id="页面-2" stroke="none" stroke-width="1" fill="none" fill-rule="evenodd">
        <g id="导览-1" transform="translate(-180.000000, -659.000000)">
            <g id="画面" transform="translate(180.000000, 659.000000)">
                <g id="编组-7" transform="translate(1.000000, 5.000000)">
                    <path d="M3.166,12.6632449 L1.14142136,12.9885793 C0.594687348,13.0762218 0.0881553647,12.6499321 0.0100505063,12.0364346 C0.00335860772,11.9838712 0,11.930841 0,11.8777439 L0,2.12211322 C0,1.5023872 0.44771525,1 1,1 C1.04731887,1 1.09457807,1.00376874 1.14142136,1.01127781 L3.166,1.33551185" id="路径" stroke="#FFFFFF" stroke-width="1.5" fill="#FFFFFF" opacity="0.5"></path>
                    <path d="M22.166,12.6632449 L20.1414214,12.9885793 C19.5946873,13.0762218 19.0881554,12.6499321 19.0100505,12.0364346 C19.0033586,11.9838712 19,11.930841 19,11.8777439 L19,2.12211322 C19,1.5023872 19.4477153,1 20,1 C20.0473189,1 20.0945781,1.00376874 20.1414214,1.01127781 L22.166,1.33551185" id="路径备份" stroke="#FFFFFF" stroke-width="1.5" fill="#FFFFFF" opacity="0.5" transform="translate(20.583000, 7.000000) scale(-1, 1) translate(-20.583000, -7.000000) "></path>
                    <rect id="矩形" stroke="#FFFFFF" stroke-width="1.5" x="5.16666667" y="0" width="12" height="13" rx="1"></rect>
                    <path d="M12.084471,4.93085542 L14.2013758,8.4590301 C14.3434499,8.69582023 14.2666674,9.00295036 14.0298772,9.14502444 C13.9521695,9.19164906 13.8632513,9.21627798 13.7726294,9.21627798 L9.53881975,9.21627798 C9.26267738,9.21627798 9.03881975,8.99242035 9.03881975,8.71627798 C9.03881975,8.62565601 9.06344867,8.5367378 9.11007329,8.4590301 L11.2269781,4.93085542 C11.3690522,4.69406528 11.6761823,4.61728275 11.9129724,4.75935683 C11.9833472,4.80158171 12.0422461,4.86048061 12.084471,4.93085542 Z" id="三角形" fill="#FFFFFF" transform="translate(11.655725, 6.716278) rotate(-270.000000) translate(-11.655725, -6.716278) "></path>
                </g>
            </g>
        </g>
    </g>
</svg>