<?xml version="1.0" encoding="UTF-8"?><svg version="1.1" width="24px" height="24px" viewBox="0 0 24.0 24.0" xmlns="http://www.w3.org/2000/svg" xmlns:xlink="http://www.w3.org/1999/xlink"><defs><clipPath id="i0"><path d="M3923,0 L3923,1019 L0,1019 L0,0 L3923,0 Z"></path></clipPath><clipPath id="i1"><path d="M16.5295385,0.139979459 L16.7030769,0.211056396 L21.2215385,2.28428716 L21.3203077,2.33321022 C21.7910769,2.58705637 22.0993846,3.04121022 22.1473846,3.5470564 L22.1538462,3.68644101 L22.1538462,18.2295179 L22.1501539,18.3052102 C22.1095385,18.7556718 21.7070769,19.1101333 21.216,19.1101333 C21.1070769,19.1101333 21,19.0916718 20.8984616,19.0575179 L20.7987692,19.0178256 L17.9603077,17.6913641 L17.8135385,17.6267487 C16.8917373,17.2419917 15.8613395,17.2062231 14.9150769,17.5261333 L14.7,17.606441 L8.44153847,20.1375179 L8.316,20.1845948 C7.86071002,20.3377119 7.36944408,20.3476982 6.9083077,20.2132102 L6.73753847,20.1559795 L1.0403077,17.9996718 L0.942461555,17.9590564 C0.413538469,17.7209025 0.0581538516,17.2381333 0.00646155469,16.6907487 L0,16.550441 L0,2.75321022 L0.00276923437,2.66090254 C0.0535384687,1.84213331 0.776307703,1.19228716 1.66153847,1.19228716 C1.82953847,1.19228716 1.99569232,1.21628716 2.15538462,1.26244101 L2.3123077,1.31782563 L6.25569232,2.89444101 L6.40338462,2.94982563 C7.18061538,3.22028716 8.0363077,3.20828716 8.80246155,2.91751793 L9.0083077,2.83167178 L14.7636923,0.208287162 L14.8873846,0.156594841 C15.4149455,-0.0463191029 15.9979799,-0.0522182701 16.5295385,0.139979459 Z M15.6535385,1.84582563 L15.6036923,1.85782563 L15.5187692,1.89290254 L9.77446155,4.51167178 C8.59070552,5.04688212 7.25320382,5.13541496 6.00923079,4.76090254 L5.75815385,4.67967178 L5.56984617,4.60859484 L1.84615385,3.11782563 L1.84615385,16.3298256 L7.392,18.4298256 C7.47507691,18.4612102 7.57015385,18.4695179 7.63292309,18.4621333 L7.67446155,18.4529025 L7.75015385,18.4261333 L14.0076923,15.8950564 C15.3815518,15.3433733 16.9114777,15.3223162 18.3,15.8359795 L18.5621539,15.9375179 L18.7421539,16.0187487 L20.3076923,16.7507487 L20.3076923,3.89597946 L15.9332308,1.88921022 C15.845554,1.8500081 15.7489712,1.83502662 15.6535385,1.84582563 Z"></path></clipPath><clipPath id="i2"><path d="M1.84615385,0 L1.84615385,7.38461538 L0,7.38461538 L0,0 L1.84615385,0 Z"></path></clipPath><clipPath id="i3"><path d="M1.84615385,0 L1.84615385,7.38461538 L0,7.38461538 L0,0 L1.84615385,0 Z"></path></clipPath></defs><g transform="translate(-3448.0 -299.0)"><g clip-path="url(#i0)"><g transform="translate(3448.0 299.0)"><g transform="translate(0.9230769140624986 1.8464820727496178)"><g clip-path="url(#i1)"><polygon points="0,2.77555756e-17 22.1538462,2.77555756e-17 22.1538462,20.3072401 0,20.3072401 0,2.77555756e-17" stroke="none" fill="#FFFFFF"></polygon></g></g><g transform="translate(8.307692296875 9.230769234375)"><g clip-path="url(#i2)"><polygon points="0,0 1.84615385,0 1.84615385,7.38461538 0,7.38461538 0,0" stroke="none" fill="#FFFFFF"></polygon></g></g><g transform="translate(14.769230765625 7.3846153828125)"><g clip-path="url(#i3)"><polygon points="0,0 1.84615385,0 1.84615385,7.38461538 0,7.38461538 0,0" stroke="none" fill="#FFFFFF"></polygon></g></g></g></g></g></svg>