<?xml version="1.0" encoding="UTF-8"?><svg version="1.1" width="24px" height="24px" viewBox="0 0 24.0 24.0" xmlns="http://www.w3.org/2000/svg" xmlns:xlink="http://www.w3.org/1999/xlink"><defs><clipPath id="i0"><path d="M3039,0 L3039,1019 L0,1019 L0,0 L3039,0 Z"></path></clipPath><clipPath id="i1"><path d="M10.539,7.5 C11.4838143,8.10337938 12.3456277,8.82777664 13.1025,9.65475 C13.71675,10.3275 14.33325,11.14725 14.95275,12.11625 L16.5,11.18025 L16.09725,15.75 L11.676,14.097 L13.46625,13.014 C12.98325,11.889 11.4945,10.3335 9,8.349 L10.539,7.5 Z M8.25,0 C6.474,4.0815 4.905,6.35925 3.54075,6.8325 L3.54075,8.25 L0,5.6265 L3.54075,3.00225 L3.54075,4.6215 C3.99675,4.3635 4.4895,3.97575 5.019,3.45825 C6.14337401,2.35069047 7.22130138,1.19694786 8.25,0 Z"></path></clipPath></defs><g transform="translate(-1009.0 -284.0)"><g clip-path="url(#i0)"><g transform="translate(1009.0 284.0)"><g transform="translate(3.0 6.0)"><g clip-path="url(#i1)"><polygon points="0,0 16.5,0 16.5,15.75 0,15.75 0,0" stroke="none" fill="#F0F0F0"></polygon></g></g><g transform="translate(14.797134708368048 8.981539495336847)"><path d="M0,2.04260617 C0.906528265,0.53256987 1.79493388,-0.140223673 2.66521684,0.0242255398 C3.5354998,0.188674753 5.01213977,1.25363773 7.09513676,3.21911446" stroke="#FFFFFF" stroke-width="1" fill="none" stroke-linecap="round" stroke-miterlimit="10"></path></g><g transform="translate(1.8746830015024898 1.3332843340160707)"><path d="M0,3.51431351 C1.05192978,5.10166273 2.08126035,5.73643478 3.08799171,5.41862965 C4.59808876,4.94192197 7.42410751,0 11.125317,0 C14.8265265,0 16.5369359,4.88350959 19.125317,4.88350959" stroke="#FFFFFF" stroke-width="1" fill="none" stroke-linecap="round" stroke-miterlimit="10"></path></g><g transform="translate(1.3168205557276451 10.404074256364758)"><path d="M0,5.17519597 C0.732162278,7.47990835 2.07373855,8.63226454 4.02472883,8.63226454 C6.95121424,8.63226454 8.68317944,-0.181328841 11.6831794,0.00284681378 C14.6831794,0.187022468 19.0753647,5.49483024 19.6831794,7.54537799" stroke="#FFFFFF" stroke-width="1.5" fill="none" stroke-linecap="round" stroke-miterlimit="10"></path></g></g></g></g></svg>