<?xml version="1.0" encoding="UTF-8"?><svg version="1.1" width="32px" height="32px" viewBox="0 0 32.0 32.0" xmlns="http://www.w3.org/2000/svg" xmlns:xlink="http://www.w3.org/1999/xlink"><defs><clipPath id="i0"><path d="M3923,0 L3923,1019 L0,1019 L0,0 L3923,0 Z"></path></clipPath><clipPath id="i1"><path d="M5,0 L5,6 L0,6 L0,0 L5,0 Z"></path></clipPath><linearGradient id="i2" x1="0.0128906255px" y1="2.98500001px" x2="5.06289065px" y2="2.98500001px" gradientUnits="userSpaceOnUse"><stop stop-color="#3022AD" offset="0%"></stop><stop stop-color="#52A0FD" offset="47.5247532%"></stop><stop stop-color="#B4EC50" offset="100%"></stop></linearGradient><clipPath id="i3"><path d="M10,0 C10.5522847,-1.01453063e-16 11,0.44771525 11,1 C11,1.55228475 10.5522847,2 10,2 L1,2 C0.44771525,2 6.76353751e-17,1.55228475 0,1 C-6.76353751e-17,0.44771525 0.44771525,1.01453063e-16 1,0 L10,0 Z"></path></clipPath><clipPath id="i4"><path d="M26,0 C27.1045695,-2.02906125e-16 28,0.8954305 28,2 L28,19 C28,20.1045695 27.1045695,21 26,21 L2,21 C0.8954305,21 1.3527075e-16,20.1045695 0,19 L0,2 C-1.3527075e-16,0.8954305 0.8954305,2.02906125e-16 2,0 L26,0 Z"></path></clipPath></defs><g transform="translate(-1910.0 -81.0)"><g clip-path="url(#i0)"><g transform="translate(1910.0 81.0)"><g transform="translate(2.0 4.0)"><g transform="translate(12.0 10.0)"><g clip-path="url(#i1)"><polygon points="0,0 5,0 5,6 0,6 0,0" stroke="none" fill="url(#i2)"></polygon></g><polygon points="0,0 5,0 5,6 0,6 0,0 0,0" stroke="#FFFFFF" stroke-width="2" fill="none" stroke-linejoin="round"></polygon></g><g transform="translate(7.0 0.0)"><polygon points="0,0 14,0 14,5 0,5 0,0 0,0" stroke="#FFFFFF" stroke-width="2" fill="none" stroke-linejoin="round"></polygon></g><g transform="translate(1.0 12.0)"><g clip-path="url(#i3)"><polygon points="0,0 11,0 11,2 0,2 0,0" stroke="none" fill="#FFFFFF"></polygon></g></g><g transform="translate(17.0 12.0)"><g clip-path="url(#i3)"><polygon points="0,0 11,0 11,2 0,2 0,0" stroke="none" fill="#FFFFFF"></polygon></g></g><g transform="translate(0.0 4.0)"><g clip-path="url(#i4)"><path d="M2,0 L26,0 C27.1045695,-2.02906125e-16 28,0.8954305 28,2 L28,19 C28,20.1045695 27.1045695,21 26,21 L2,21 C0.8954305,21 1.3527075e-16,20.1045695 0,19 L0,2 C-1.3527075e-16,0.8954305 0.8954305,2.02906125e-16 2,0 Z" stroke="#FFFFFF" stroke-width="4" fill="none" stroke-miterlimit="5"></path></g></g></g></g></g></g></svg>