<?xml version="1.0" encoding="UTF-8"?><svg version="1.1" width="24px" height="24px" viewBox="0 0 24.0 24.0" xmlns="http://www.w3.org/2000/svg" xmlns:xlink="http://www.w3.org/1999/xlink"><defs><clipPath id="i0"><path d="M3923,0 L3923,1019 L0,1019 L0,0 L3923,0 Z"></path></clipPath><clipPath id="i1"><path d="M12.8601764,1.57875079 L12.9615,1.584 C18.186,2.2485 22.125,6.726 22.125,12 C22.125,17.79 17.415,22.5000556 11.625,22.5000556 C6.23248738,22.5174325 1.70965334,18.4342193 1.1775,13.068 C1.13625,12.6555 1.437,12.288 1.84875,12.246 C2.260657,12.205839 2.62777218,12.5056274 2.67075,12.91725 C2.71875,13.3935 2.81175,13.85475 2.9295,14.30475 C4.26075,14.05575 5.16975,14.89725 5.74275,15.43725 C6.324,15.984 6.42525,16.011 6.549,15.94425 C8.33325,15.00825 10.22775,15.58575 11.49525,17.44875 C12.018,18.2175 12.35475,19.41075 11.415,20.99025 L11.625,21 C13.0803248,21.0001551 14.5137333,20.6454071 15.801,19.9665 C15.309,19.61625 15.06675,19.19475 14.9505,18.84525 C14.5695,17.694 15.10275,16.197 16.53375,14.39325 C16.66425,14.229 16.69125,14.1315 16.6875,14.10225 C16.6605,13.90125 16.077,13.47075 15.69075,13.18575 C14.5905,12.375 12.92775,11.1495 13.179,8.81325 C13.35225,7.197 14.17725,5.32875 16.89,4.7115 C15.6773819,3.82712861 14.2611223,3.26320447 12.7725,3.072 C12.364251,3.01692923 12.076834,2.64289248 12.1287409,2.23422918 C12.1806477,1.82556588 12.5524469,1.53526022 12.9615,1.584 Z M3.447,15.7575 C4.62501115,18.3365725 6.95545444,20.204878 9.729,20.79375 C10.932,19.29 10.44525,18.5715 10.25475,18.29175 C9.768,17.577 8.73,16.4925 7.24575,17.2725 C6.129,17.8575 5.277,17.0595 4.7145,16.52925 C4.22325,16.06725 3.8775,15.774 3.447,15.7575 Z M18.342,6.01875 C15.33225,6.201 14.799,7.773 14.66925,8.9745 C14.51025,10.45425 15.5625,11.229 16.5795,11.979 C17.34225,12.54075 18.06225,13.07175 18.17325,13.90425 C18.23625,14.379 18.0795,14.8575 17.7075,15.32625 C16.67175,16.62975 16.173,17.769 16.37325,18.37275 C16.467,18.654 16.76775,18.86625 17.25975,19.00725 C19.30875,17.3565 20.625,14.8305 20.625,12 C20.6244995,9.79351132 19.8118348,7.66440437 18.342,6.01875 Z M5.625,0 C8.727,0 11.25,2.523 11.25,5.625 C11.25,7.65975 9.57525,10.17225 6.12975,13.305 C5.8436111,13.5653575 5.4063889,13.5653575 5.12025,13.305 C1.67475,10.17225 0,7.65975 0,5.625 C0,2.523 2.523,0 5.625,0 Z M5.625,1.5 C3.35025,1.5 1.5,3.35025 1.5,5.625 C1.5,6.65325 2.232,8.53425 5.625,11.7285 C9.018,8.53425 9.75,6.65325 9.75,5.625 C9.75,3.35025 7.89975,1.5 5.625,1.5 Z M4.68749999,4.00120233 C5.26762701,3.66626584 5.98237299,3.66626584 6.56250001,4.00120233 C7.14262704,4.33613883 7.5,4.95512701 7.5,5.625 C7.5,6.66053391 6.66053391,7.5 5.625,7.5 C4.58946609,7.5 3.75,6.66053391 3.75,5.625 C3.75,4.95512701 4.10737296,4.33613883 4.68749999,4.00120233 Z"></path></clipPath></defs><g transform="translate(-835.0 -705.0)"><g clip-path="url(#i0)"><g transform="translate(835.0 705.0)"><g transform="translate(1.125 0.75)"><g clip-path="url(#i1)"><polygon points="0,0 22.125,0 22.125,22.5001109 0,22.5001109 0,0" stroke="none" fill="#FFFFFF"></polygon></g></g></g></g></g></svg>