<?xml version="1.0" encoding="UTF-8"?>
<svg width="24px" height="24px" viewBox="0 0 24 24" version="1.1" xmlns="http://www.w3.org/2000/svg" xmlns:xlink="http://www.w3.org/1999/xlink">
    <title>天际线</title>
    <g id="页面-2" stroke="none" stroke-width="1" fill="none" fill-rule="evenodd">
        <g id="分析-可视域分析" transform="translate(-180.000000, -343.000000)">
            <g id="画面" transform="translate(180.000000, 343.000000)">
                <g id="编组-11" transform="translate(1.000000, 4.000000)">
                    <rect id="矩形" fill="#FFFFFF" x="0" y="18" width="22" height="1"></rect>
                    <polygon id="矩形" fill="#FFFFFF" points="8 6.42279126 15 5 15 18 8 18"></polygon>
                    <polygon id="矩形备份-16" fill="#FFFFFF" points="9 3 14 3 14 6 9 6.42279126"></polygon>
                    <rect id="矩形备份-19" fill="#FFFFFF" x="10" y="2" width="3" height="2"></rect>
                    <path d="M7,8 L7,18 L1,18 L1,10.5 L7,8 Z M6,12 L5,12 L5,17 L6,17 L6,12 Z" id="形状结合" fill="#FFFFFF"></path>
                    <polygon id="矩形备份-15" fill="#FFFFFF" opacity="0.5" points="15 10.5 18.1199684 8 21 10.5 21 18 15 18"></polygon>
                    <polyline id="路径-40" stroke="#FFFFFF" points="1 8 6.45309153 5.33333333 6.45309153 1.33333333 8.10526316 1.33333333 8.10526316 0 15.2105263 0 15.2105263 1.33333333 16.5795934 1.33333333 16.5795934 6.82278803 18.2837155 5.33333333 21.5348066 7.76163273"></polyline>
                </g>
            </g>
        </g>
    </g>
</svg>