<?xml version="1.0" encoding="UTF-8"?>
<svg width="24px" height="24px" viewBox="0 0 24 24" version="1.1" xmlns="http://www.w3.org/2000/svg" xmlns:xlink="http://www.w3.org/1999/xlink">
    <title>标签</title>
    <g id="页面-2" stroke="none" stroke-width="1" fill="none" fill-rule="evenodd">
        <g id="光流" transform="translate(-106.000000, -475.000000)">
            <g id="标签" transform="translate(106.000000, 475.000000)">
                <rect id="矩形" x="0" y="0" width="24" height="24" rx="8"></rect>
                <g id="编组" transform="translate(1.000000, 1.000000)">
                    <g id="编组-3" transform="translate(0.000000, 2.000000)" stroke="#FFFFFF" stroke-width="2">
                        <path d="M21.5,0 C21.7761424,-2.01283612e-15 22,0.223857625 22,0.5 L22,15.8699932 C22,16.1461356 21.7761424,16.3699932 21.5,16.3699932 L15.034,16.369 L11.8317108,19.774328 C11.6424985,19.9754581 11.3260635,19.9851194 11.1249333,19.7959071 C11.1175224,19.7889353 11.110326,19.7817389 11.1033542,19.774328 L7.9,16.369 L0.5,16.3699932 C0.223857625,16.3699932 3.38176876e-17,16.1461356 0,15.8699932 L0,0.5 C-3.38176876e-17,0.223857625 0.223857625,5.07265313e-17 0.5,0 L21.5,0 Z" id="形状结合"></path>
                    </g>
                    <text id="A" font-family="MicrosoftYaHei-Bold, Microsoft YaHei" font-size="14" font-weight="bold" fill="#FFFFFF" fill-opacity="0.6">
                        <tspan x="6" y="15">A</tspan>
                    </text>
                </g>
            </g>
        </g>
    </g>
</svg>