<?xml version="1.0" encoding="UTF-8"?>
<svg width="16px" height="16px" viewBox="0 0 16 16" version="1.1" xmlns="http://www.w3.org/2000/svg" xmlns:xlink="http://www.w3.org/1999/xlink">
    <title>图片pic</title>
    <g id="场景组装" stroke="none" stroke-width="1" fill="none" fill-rule="evenodd">
        <g id="场景服务缩略图" transform="translate(-354.000000, -300.000000)" fill-rule="nonzero">
            <g id="编组-3" transform="translate(312.000000, 172.000000)">
                <g id="图片pic" transform="translate(42.000000, 128.000000)">
                    <rect id="矩形" fill="#000000" opacity="0" x="0" y="0" width="16" height="16"></rect>
                    <path d="M14,2.66667188 C14.2,2.66667188 14.3333281,2.8 14.3333281,3 L14.3333281,13 C14.3333281,13.2 14.2,13.3333281 14,13.3333281 L2,13.3333281 C1.8,13.3333281 1.66667188,13.2 1.66667188,13 L1.66667188,3 C1.66667188,2.8 1.8,2.66667188 2,2.66667188 L14,2.66667188 M14,1.66667188 L2,1.66667188 C1.26667188,1.66667188 0.666671875,2.26667188 0.666671875,3 L0.666671875,13 C0.666671875,13.7333281 1.26667188,14.3333281 2,14.3333281 L14,14.3333281 C14.7333281,14.3333281 15.3333281,13.7333281 15.3333281,13 L15.3333281,3 C15.3333281,2.26667188 14.7333281,1.66667188 14,1.66667188 Z M4.66667188,4.66667188 C4.1,4.66667188 3.66667188,5.1 3.66667188,5.66667188 C3.66667188,6.23334375 4.1,6.66667188 4.66667188,6.66667188 C5.23334375,6.66667188 5.66667188,6.23332812 5.66667188,5.66667188 C5.66667188,5.10001563 5.23332812,4.66667188 4.66667188,4.66667188 Z M3.33332813,12.1666719 C3.06667188,12.1666719 2.83332813,11.9333281 2.83332813,11.6666719 C2.83332813,11.6 2.83332813,11.5666719 2.86667188,11.5 C2.93332813,11.2666719 3.63332813,9.33332812 4.73332813,8.56667187 C5.43332812,8.1 6.43332812,8.46667187 7.5,8.83332812 C8.16667187,9.06667187 9.1,9.4 9.4,9.23332812 C9.7,9.06665625 9.76667187,8.63332812 9.86667187,8.03332812 C9.96667187,7.43332812 10.0666719,6.6 10.6666719,5.96667187 C11.2,5.43332813 11.9,5.13332813 12.6666719,5.1 C12.9333281,5.1 13.1666719,5.3 13.2,5.56667188 C13.2,5.83332812 13,6.06667188 12.7333281,6.1 C12.2333281,6.1 11.7666719,6.3 11.4,6.66667188 C11.0333281,7.03334375 10.9666719,7.56667188 10.8666719,8.13332813 C10.7666719,8.8 10.6666719,9.6 9.96667188,10.0666719 C9.26667187,10.5333438 8.26667188,10.1666719 7.2,9.8 C6.53332812,9.56667188 5.6,9.23332812 5.3,9.4 C4.6,9.86667187 4,11.3 3.83332813,11.8 C3.76667187,12.0333281 3.56667187,12.1666719 3.33332813,12.1666719 L3.33332813,12.1666719 Z" id="形状" fill="#FFFFFF"></path>
                </g>
            </g>
        </g>
    </g>
</svg>