<?xml version="1.0" encoding="UTF-8"?>
<svg width="24px" height="24px" viewBox="0 0 24 24" version="1.1" xmlns="http://www.w3.org/2000/svg" xmlns:xlink="http://www.w3.org/1999/xlink">
    <title>视屏icon</title>
    <g id="崂山" stroke="none" stroke-width="1" fill="none" fill-rule="evenodd">
        <g id="监控设备" transform="translate(-1615.000000, -397.000000)" fill-rule="nonzero">
            <g id="3.0-相机" transform="translate(1587.000000, 382.000000)">
                <g id="视屏icon" transform="translate(28.000000, 15.000000)">
                    <rect id="矩形" fill="#000000" opacity="0" x="0" y="0" width="24" height="24"></rect>
                    <g id="摄像头" transform="translate(11.600000, 12.010000) scale(-1, 1) translate(-11.600000, -12.010000) translate(-0.000000, 1.620000)" fill="#D1D1D1">
                        <path d="M16.8,3.73999999 C16.16,3.73999999 15.6,4.29999998 15.6,4.93999999 C15.6,5.57999999 16.16,6.13999999 16.8,6.13999999 C17.44,6.13999999 18,5.57999999 18,4.93999999 C18,4.29999998 17.44,3.73999999 16.8,3.73999999 Z M0,10.46 L4.15999999,15.74 L5.76,15.18 L1.60000001,9.89999999 L0,10.46 Z M23.12,9.65999999 L20.24,0.539999994 C20.16,0.379999986 20,0.139999986 19.84,0.0599999941 C19.68,-0.019999998 19.44,-0.019999998 19.2,0.0599999941 L1.2,6.61999999 C0.96,6.69999998 0.799999992,6.93999998 0.72,7.18 C0.640000008,7.42 0.72,7.66 0.880000008,7.9 L7.2,15.82 C7.36000001,15.98 7.60000001,16.14 7.84000001,16.14 C7.92,16.14 8.00000002,16.14 8.08000001,16.06 L22.72,10.7 C23.12,10.54 23.28,10.06 23.12,9.65999999 Z M8.08000001,14.3 L2.80000001,7.66 L19.04,1.73999999 L21.36,9.41999999 L8.08000001,14.3 Z M21.6,14.54 L21.6,16.94 L18.08,16.94 L17.2,15.26 L21.76,13.58 L21.2,12.06 L9.6,16.3 L10.64,17.66 L15.68,15.82 L16.88,18.14 C17.04,18.38 17.28,18.62 17.6,18.62 L21.6,18.62 L21.6,20.78 L23.2,20.78 L23.2,14.54 L21.6,14.54 Z" id="形状"></path>
                    </g>
                </g>
            </g>
        </g>
    </g>
</svg>