<?xml version="1.0" encoding="UTF-8"?>
<svg width="24px" height="24px" viewBox="0 0 24 24" version="1.1" xmlns="http://www.w3.org/2000/svg" xmlns:xlink="http://www.w3.org/1999/xlink">
    <title>炸开</title>
    <g id="0602最新布局" stroke="none" stroke-width="1" fill="none" fill-rule="evenodd">
        <g id="分析" transform="translate(-180.000000, -380.000000)" fill="#FFFFFF">
            <g id="画面备份-2" transform="translate(180.000000, 380.000000)">
                <g id="模型" transform="translate(1.000000, 1.000000)">
                    <g id="编组-8" transform="translate(0.000000, -0.000000)">
                        <polygon id="路径" opacity="0.5" points="11.0930769 15.042735 18.6153846 18.5217854 11.0930769 22 3.38461538 18.5217854"></polygon>
                        <path d="M1.69230769,6.51016144 L9.30769231,3.34283001 L9.30769231,12.5356125 L1.69230769,15.702944 L1.69230769,6.51016144 Z M12.6923077,3.34283001 L20.3076923,6.67479582 L20.3076923,15.8675783 L12.6923077,12.5356125 L12.6923077,3.34283001 Z" id="形状" opacity="0.5"></path>
                        <path d="M14.3846154,9.81789174 L22,6.68566002 L22,14.7335233 L14.3846154,17.865755 L14.3846154,9.81789174 L14.3846154,9.81789174 Z M0,6.68566002 L7.61538462,10.0869896 L7.61538462,18.159924 L0,14.7585945 L0,6.68566002 Z" id="形状"></path>
                        <polygon id="路径" points="11.0930769 -1.18761179e-14 18.6153846 3.47905033 11.0930769 6.95726496 3.38461538 3.47905033"></polygon>
                    </g>
                </g>
            </g>
        </g>
    </g>
</svg>