<?xml version="1.0" encoding="UTF-8"?><svg version="1.1" width="32px" height="32px" viewBox="0 0 32.0 32.0" xmlns="http://www.w3.org/2000/svg" xmlns:xlink="http://www.w3.org/1999/xlink"><defs><clipPath id="i0"><path d="M3923,0 L3923,1019 L0,1019 L0,0 L3923,0 Z"></path></clipPath><clipPath id="i1"><path d="M15.25,0.144337567 L27.7403811,7.35566243 C27.8950816,7.44497883 27.9903811,7.61004234 27.9903811,7.78867513 L27.9903811,22.2113249 C27.9903811,22.3899577 27.8950816,22.5550212 27.7403811,22.6443376 L15.25,29.8556624 C15.0952995,29.9449788 14.9047005,29.9449788 14.75,29.8556624 L2.25961894,22.6443376 C2.1049184,22.5550212 2.00961894,22.3899577 2.00961894,22.2113249 L2.00961894,7.78867513 C2.00961894,7.61004234 2.1049184,7.44497883 2.25961894,7.35566243 L14.75,0.144337567 C14.9047005,0.0550211698 15.0952995,0.0550211698 15.25,0.144337567 Z"></path></clipPath><clipPath id="i2"><path d="M8.25,0.144337567 L14.6782032,3.85566243 C14.8329038,3.94497883 14.9282032,4.11004234 14.9282032,4.28867513 L14.9282032,11.7113249 C14.9282032,11.8899577 14.8329038,12.0550212 14.6782032,12.1443376 L8.25,15.8556624 C8.09529946,15.9449788 7.90470054,15.9449788 7.75,15.8556624 L1.32179677,12.1443376 C1.16709623,12.0550212 1.07179677,11.8899577 1.07179677,11.7113249 L1.07179677,4.28867513 C1.07179677,4.11004234 1.16709623,3.94497883 1.32179677,3.85566243 L7.75,0.144337567 C7.90470054,0.0550211698 8.09529946,0.0550211698 8.25,0.144337567 Z"></path></clipPath><linearGradient id="i3" x1="0.0412500016px" y1="7.96000004px" x2="16.2012501px" y2="7.96000004px" gradientUnits="userSpaceOnUse"><stop stop-color="#3022AD" offset="0%"></stop><stop stop-color="#52A0FD" offset="47.5247532%"></stop><stop stop-color="#B4EC50" offset="100%"></stop></linearGradient></defs><g transform="translate(-1203.0 -84.0)"><g clip-path="url(#i0)"><g transform="translate(1203.0 84.0)"><g transform="translate(1.0 1.0)"><g clip-path="url(#i1)"><path d="M15.25,0.144337567 L27.7403811,7.35566243 C27.8950816,7.44497883 27.9903811,7.61004234 27.9903811,7.78867513 L27.9903811,22.2113249 C27.9903811,22.3899577 27.8950816,22.5550212 27.7403811,22.6443376 L15.25,29.8556624 C15.0952995,29.9449788 14.9047005,29.9449788 14.75,29.8556624 L2.25961894,22.6443376 C2.1049184,22.5550212 2.00961894,22.3899577 2.00961894,22.2113249 L2.00961894,7.78867513 C2.00961894,7.61004234 2.1049184,7.44497883 2.25961894,7.35566243 L14.75,0.144337567 C14.9047005,0.0550211698 15.0952995,0.0550211698 15.25,0.144337567 Z" stroke="#FFFFFF" stroke-width="4" fill="none" stroke-linejoin="round"></path></g><g transform="translate(7.0 7.0)"><g clip-path="url(#i2)"><polygon points="1.07179677,0.0773502692 14.9282032,0.0773502692 14.9282032,15.9226497 1.07179677,15.9226497 1.07179677,0.0773502692" stroke="none" fill="url(#i3)"></polygon><path d="M8.25,0.144337567 L14.6782032,3.85566243 C14.8329038,3.94497883 14.9282032,4.11004234 14.9282032,4.28867513 L14.9282032,11.7113249 C14.9282032,11.8899577 14.8329038,12.0550212 14.6782032,12.1443376 L8.25,15.8556624 C8.09529946,15.9449788 7.90470054,15.9449788 7.75,15.8556624 L1.32179677,12.1443376 C1.16709623,12.0550212 1.07179677,11.8899577 1.07179677,11.7113249 L1.07179677,4.28867513 C1.07179677,4.11004234 1.16709623,3.94497883 1.32179677,3.85566243 L7.75,0.144337567 C7.90470054,0.0550211698 8.09529946,0.0550211698 8.25,0.144337567 Z" stroke="#FFFFFF" stroke-width="3" fill="none" stroke-miterlimit="5"></path></g></g><g transform="translate(9.273046922565754 7.99999999999987)"><path d="M5.72695308,0 L5.72695308,7 L0,10.0250067" stroke="#FFFFFF" stroke-width="1.5" fill="none" stroke-miterlimit="10"></path></g><g transform="translate(15.000000000000002 15.0)"><path d="M5.95343204,3.44971016 L0,0" stroke="#FFFFFF" stroke-width="1.5" fill="none" stroke-miterlimit="10"></path></g><g transform="translate(2.8978446040632666 8.0)"><path d="M0,0 L6.00518507,3.64045284" stroke="#FFFFFF" stroke-width="2" fill="none" stroke-miterlimit="10"></path></g><g transform="translate(20.95343203999781 8.0)"><path d="M6.08066713,0 L0,3.64045284" stroke="#FFFFFF" stroke-width="2" fill="none" stroke-miterlimit="10"></path></g><g transform="translate(14.5 21.68188693588218)"><path d="M0.5,7.08314873 L0.5,0.318113064" stroke="#FFFFFF" stroke-width="2" fill="none" stroke-miterlimit="10"></path></g></g></g></g></g></svg>