<?xml version="1.0" encoding="UTF-8"?><svg version="1.1" width="32px" height="32px" viewBox="0 0 32.0 32.0" xmlns="http://www.w3.org/2000/svg" xmlns:xlink="http://www.w3.org/1999/xlink"><defs><clipPath id="i0"><path d="M3039,0 L3039,1019 L0,1019 L0,0 L3039,0 Z"></path></clipPath><clipPath id="i1"><path d="M2,0 L2,24 L0,24 L0,0 L2,0 Z"></path></clipPath><clipPath id="i2"><path d="M6,0 L6,10 L0,10 L0,0 L6,0 Z"></path></clipPath><linearGradient id="i3" x1="0.0154687506px" y1="4.97500002px" x2="6.07546878px" y2="4.97500002px" gradientUnits="userSpaceOnUse"><stop stop-color="#3022AD" offset="0%"></stop><stop stop-color="#52A0FD" offset="47.5247532%"></stop><stop stop-color="#B4EC50" offset="100%"></stop></linearGradient></defs><g transform="translate(-471.0 -82.0)"><g clip-path="url(#i0)"><g transform="translate(471.0 82.0)"><g transform="translate(4.0 4.0)"><g transform="translate(15.0 4.0)"><path d="M0,0 L7.71428571,0 C8.42436611,0 9,0.596953667 9,1.33333333 L9,14.6666667 C9,15.4030463 8.42436611,16 7.71428571,16 L0,16" stroke="#FFFFFF" stroke-width="2" fill="none" stroke-miterlimit="10"></path></g><g transform="translate(0.0 4.0)"><path d="M12,16 L1,16 C0.44771525,16 0,15.4030463 0,14.6666667 L0,1.33333333 C0,0.596953667 0.44771525,0 1,0 L12,0" stroke="#FFFFFF" stroke-width="2" fill="none" stroke-miterlimit="10" stroke-dasharray=" 2.0 2.0"></path></g><g transform="translate(11.0 0.0)"><g clip-path="url(#i1)"><polygon points="0,0 2,0 2,24 0,24 0,0" stroke="none" fill="#FFFFFF"></polygon></g></g><g transform="translate(15.0 7.0)"><g clip-path="url(#i2)"><polygon points="0,0 6,0 6,10 0,10 0,0" stroke="none" fill="url(#i3)"></polygon><polygon points="0,0 6,0 6,10 0,10 0,0 0,0" stroke="#FFFFFF" stroke-width="2" fill="none" stroke-miterlimit="5"></polygon></g></g></g></g></g></g></svg>