<?xml version="1.0" encoding="UTF-8"?><svg version="1.1" width="32px" height="32px" viewBox="0 0 32.0 32.0" xmlns="http://www.w3.org/2000/svg" xmlns:xlink="http://www.w3.org/1999/xlink"><defs><clipPath id="i0"><path d="M3923,0 L3923,1019 L0,1019 L0,0 L3923,0 Z"></path></clipPath><clipPath id="i1"><path d="M4,0 C6.209139,0 8,1.790861 8,4 C8,6.209139 6.209139,8 4,8 C1.790861,8 0,6.209139 0,4 C0,1.790861 1.790861,0 4,0 Z"></path></clipPath><linearGradient id="i2" x1="0.0206250008px" y1="3.98000002px" x2="8.10062504px" y2="3.98000002px" gradientUnits="userSpaceOnUse"><stop stop-color="#3022AD" offset="0%"></stop><stop stop-color="#52A0FD" offset="47.5247532%"></stop><stop stop-color="#B4EC50" offset="100%"></stop></linearGradient></defs><g transform="translate(-745.0 -581.0)"><g clip-path="url(#i0)"><g transform="translate(745.0 581.0)"><g transform="translate(2.0 30.0) rotate(-90.0)"><path d="M14.5,0.288675135 L26.1243557,7 L26.1243557,7 L26.1243557,21 L14,28 L1.87564435,21 L1.87564435,7 L13.5,0.288675135 C13.8094011,0.11004234 14.1905989,0.11004234 14.5,0.288675135 Z" stroke="#FFFFFF" stroke-width="2" fill="none" stroke-linejoin="round"></path></g><g transform="translate(12.0 12.0)"><g clip-path="url(#i1)"><polygon points="0,0 8,0 8,8 0,8 0,0" stroke="none" fill="url(#i2)"></polygon></g><path d="M4,8 C6.209139,8 8,6.209139 8,4 C8,1.790861 6.209139,0 4,0 C1.790861,0 0,1.790861 0,4 C0,6.209139 1.790861,8 4,8 Z" stroke="#FFFFFF" stroke-width="1" fill="none" stroke-miterlimit="10"></path></g></g></g></g></svg>