<?xml version="1.0" encoding="UTF-8"?><svg version="1.1" width="24px" height="24px" viewBox="0 0 24.0 24.0" xmlns="http://www.w3.org/2000/svg" xmlns:xlink="http://www.w3.org/1999/xlink"><defs><clipPath id="i0"><path d="M3923,0 L3923,1019 L0,1019 L0,0 L3923,0 Z"></path></clipPath><clipPath id="i1"><path d="M6.13605735,13.0502469 C6.61654508,13.0502469 7.00605735,13.4397591 7.00605735,13.9202469 C7.00605735,14.4007346 6.61654508,14.7902469 6.13605735,14.7902469 L3.86543235,14.7902469 L2.12543235,20.0102469 L20.5866824,20.0102469 L18.8466824,14.7902469 L16.5759402,14.7902469 C16.0954524,14.7902469 15.7059402,14.4007346 15.7059402,13.9202469 C15.7059402,13.4397591 16.0954524,13.0502469 16.5759402,13.0502469 L19.4730964,13.0502469 C19.8630231,13.0299133 20.218737,13.2718505 20.3430964,13.6419734 L22.6659402,20.6018328 C22.7587223,20.8751738 22.7098874,21.1767362 22.53558,21.4068248 C22.3612726,21.6369133 22.0841921,21.7655645 21.7959402,21.7502469 L0.91617454,21.7502469 C0.627922605,21.7655645 0.35084211,21.6369133 0.176534729,21.4068248 C0.00222734751,21.1767362 -0.0466075923,20.8751738 0.0461745401,20.6018328 L2.36901829,13.6419734 C2.49337775,13.2718505 2.84909164,13.0299133 3.23901829,13.0502469 L6.13605735,13.0502469 Z M13.9660574,16.5302469 C14.4464089,16.5302469 14.8360574,16.9198953 14.8360574,17.4002469 C14.8360574,17.8805984 14.4464089,18.2702469 13.9660574,18.2702469 L8.74605735,18.2702469 C8.26556962,18.2702469 7.87605735,17.8807346 7.87605735,17.4002469 C7.87605735,16.9197591 8.26556962,16.5302469 8.74605735,16.5302469 L13.9660574,16.5302469 Z M11.3560574,0.000364067462 C15.1549011,-0.03828437 18.2681745,3.00505157 18.3159402,6.8036375 C18.3002525,9.24554203 16.9704319,11.489672 14.8360574,12.6760906 L12.0868386,15.3382859 C11.6411007,15.7713188 10.9317952,15.7713188 10.4860574,15.3382859 L7.61505735,12.5544031 C5.6145648,11.3281921 4.39538479,9.15017186 4.39605707,6.80377813 C4.44382298,3.00505157 7.5572136,-0.03828437 11.3560574,0.000364067462 Z M11.3650574,1.74036407 C8.51674485,1.69693438 6.17962767,3.96324688 6.13604651,6.80255938 C6.13234988,8.59316899 7.07986299,10.2497416 8.62413548,11.1537547 L8.71113548,11.2059734 L8.78948704,11.2755828 L11.3560574,13.6854031 L13.8268386,11.3103641 L13.9312527,11.2581688 C15.5387432,10.3720454 16.5382221,8.68287172 16.5411355,6.847325 C16.5221745,4.00775469 14.2047449,1.72128594 11.3650574,1.74036407 Z M11.3560574,3.48036407 C13.0377449,3.48036407 14.4010574,4.84367657 14.4010574,6.52536407 C14.4010574,8.20705157 13.0377449,9.57036407 11.3560574,9.57036407 C9.67436985,9.57036407 8.31105735,8.20705157 8.31105735,6.52536407 C8.31105735,4.84367657 9.67436985,3.48036407 11.3560574,3.48036407 Z M11.3560574,5.22036407 C10.6353542,5.22036407 10.0510574,5.80466094 10.0510574,6.52536407 C10.0510574,7.24606719 10.6353542,7.83036407 11.3560574,7.83036407 C12.0767605,7.83036407 12.6610574,7.24606719 12.6610574,6.52536407 C12.6610574,5.80466094 12.0767605,5.22036407 11.3560574,5.22036407 Z"></path></clipPath></defs><g transform="translate(-152.0 -131.0)"><g clip-path="url(#i0)"><g transform="translate(152.0 131.0)"><g transform="translate(0.6439426474379957 0.5996359325384848)"><g clip-path="url(#i1)"><polygon points="0,-5.42101086e-20 22.7121147,-5.42101086e-20 22.7121147,21.7514757 0,21.7514757 0,-5.42101086e-20" stroke="none" fill="#FFFFFF"></polygon></g></g></g></g></g></svg>