<?xml version="1.0" encoding="UTF-8"?><svg version="1.1" width="24px" height="24px" viewBox="0 0 24.0 24.0" xmlns="http://www.w3.org/2000/svg" xmlns:xlink="http://www.w3.org/1999/xlink"><defs><clipPath id="i0"><path d="M3923,0 L3923,1019 L0,1019 L0,0 L3923,0 Z"></path></clipPath><clipPath id="i1"><path d="M6,0 C9.3137085,0 12,2.6862915 12,6 C12,9.3137085 9.3137085,12 6,12 C2.6862915,12 0,9.3137085 0,6 C0,2.6862915 2.6862915,0 6,0 Z"></path></clipPath></defs><g transform="translate(-152.0 -279.0)"><g clip-path="url(#i0)"><g transform="translate(152.0 279.0)"><g transform="translate(0.5 0.5)"><g clip-path="url(#i1)"><polygon points="0,0 12,0 12,12 0,12 0,0" stroke="none" fill="#FFFFFF" opacity="50%"></polygon></g></g><g transform="translate(6.228325604144489 6.228983144536386)"><g transform=""><path d="M0.0192380262,0.637489562 L4.24246647,15.4187891 C4.31832862,15.6843066 4.5950715,15.8380527 4.86058901,15.7621905 C5.00521283,15.7208694 5.12355115,15.6166378 5.18280096,15.4783882 L8.2716744,8.27101686 L8.2716744,8.27101686 L15.4761166,5.20022565 C15.7301458,5.0919493 15.8483019,4.79824261 15.7400255,4.54421339 C15.6809874,4.40570279 15.5626743,4.30117205 15.4179443,4.25965163 L0.637879391,0.0195155631 C0.372443921,-0.056633122 0.0955352505,0.096814136 0.0193865654,0.362249607 C-0.00641160327,0.452175638 -0.00646306642,0.547535737 0.0192380262,0.637489562 Z" stroke="#FFFFFF" stroke-width="1.5" fill="none" stroke-linejoin="round"></path></g><g transform="translate(8.380880848766196 8.35128331620541)"><path d="M5.39079355,5.41973354 L0.890793547,0.919733539" stroke="#FFFFFF" stroke-width="1.5" fill="none" stroke-linecap="round" stroke-miterlimit="10"></path></g></g></g></g></g></svg>