<?xml version="1.0" encoding="UTF-8"?><svg version="1.1" width="24px" height="24px" viewBox="0 0 24.0 24.0" xmlns="http://www.w3.org/2000/svg" xmlns:xlink="http://www.w3.org/1999/xlink"><defs><clipPath id="i0"><path d="M3923,0 L3923,1019 L0,1019 L0,0 L3923,0 Z"></path></clipPath><clipPath id="i1"><path d="M9.31502861,0.163249096 C9.68698174,-0.053079029 10.1494036,-0.054250904 10.522763,0.158795971 L19.2766692,5.17113972 C19.650263,5.3851241 19.8829974,5.78496785 19.8844036,6.21504597 L19.9221493,16.3009053 C19.924013,16.7323897 19.6926849,17.1355147 19.3176849,17.3516085 L10.5642474,22.4054366 C10.3779192,22.5130147 10.1690911,22.5666866 9.96002861,22.5666866 C9.75260674,22.5666866 9.54541924,22.5139522 9.36026299,22.4080147 L0.64573174,17.4184053 C0.27307549,17.2053585 0.0398723649,16.8057491 0.0377629899,16.375671 L1.42098185e-05,6.28746785 C-0.00208076011,5.85785847 0.22760674,5.45590535 0.59979424,5.23934285 Z M1.55651299,7.3707491 L1.58932549,16.1698897 L9.18612236,20.519421 L9.19034111,15.8802022 L6.20018486,14.1547335 C5.82729424,13.9398116 5.59596611,13.5390303 5.59596611,13.1087178 L5.59596611,9.66223347 L1.55651299,7.3707491 Z M18.3363567,7.31613972 L14.3259661,9.65215535 L14.3259661,13.1049678 C14.3259661,13.5345772 14.0951067,13.9351241 13.7236224,14.150046 L10.7426067,15.8794991 L10.738388,20.5123897 L18.3689349,16.1070772 L18.3363567,7.31613972 Z M9.94291924,12.1721553 L7.86612236,13.3238741 L9.96565361,14.5355928 L12.0012005,13.3543428 L9.94291924,12.1721553 Z M10.7334661,8.4760616 L10.7472942,10.8441866 L12.7734661,12.0078585 L12.7734661,9.65426472 L10.7334661,8.4760616 Z M9.18120049,8.48215535 L7.14823174,9.65801472 L7.14823174,11.946921 L9.19479424,10.8123116 L9.18120049,8.48215535 Z M9.92440361,1.6051241 L2.33276299,6.0263741 L6.36846611,8.3157491 L9.35721611,6.5869991 C9.44041924,6.53895222 9.52901299,6.50567097 9.61901299,6.47895222 C9.71838799,6.43207722 9.82807549,6.40348347 9.94526299,6.40278035 C10.0507317,6.4004366 10.1529192,6.42223347 10.2469036,6.4623116 C10.3572942,6.48903035 10.4648724,6.52817097 10.5656536,6.58629597 L13.5483099,8.30895222 L17.555888,5.97434285 L9.92440361,1.6051241 Z"></path></clipPath></defs><g transform="translate(-227.0 -131.0)"><g clip-path="url(#i0)"><g transform="translate(227.0 131.0)"><g transform="translate(2.0413776351143618 0.7196415290336589)"><g clip-path="url(#i1)"><polygon points="-4.4408921e-16,2.77555756e-17 19.9221605,2.77555756e-17 19.9221605,22.5666866 -4.4408921e-16,22.5666866 -4.4408921e-16,2.77555756e-17" stroke="none" fill="#FFFFFF"></polygon></g></g></g></g></g></svg>