<?xml version="1.0" encoding="UTF-8"?><svg version="1.1" width="16px" height="16px" viewBox="0 0 16.0 16.0" xmlns="http://www.w3.org/2000/svg" xmlns:xlink="http://www.w3.org/1999/xlink"><defs><clipPath id="i0"><path d="M3923,0 L3923,1019 L0,1019 L0,0 L3923,0 Z"></path></clipPath><clipPath id="i1"><path d="M2.08342141,9.59764041 C2.34735652,9.59764041 2.56330343,9.81358732 2.56330343,10.0775224 L2.56330343,15.5161853 C2.56330343,15.7801204 2.34735652,15.9960673 2.08342141,15.9960673 L0.483814676,15.9960673 C0.219879565,15.9960673 0.00393265547,15.7801204 0.00393265547,15.5161853 L0.00393265547,10.0775224 C0.00393265547,9.81358732 0.219879565,9.59764041 0.483814676,9.59764041 L2.08342141,9.59764041 Z M16,0 L15.6400885,3.28719184 L14.7443087,2.39141207 L10.8252722,7.18223424 C10.7053017,7.31820081 10.537343,7.40617918 10.3533882,7.42217525 C10.1774315,7.43017328 9.99347671,7.37418705 9.85751014,7.24621851 L6.09043628,3.76707386 L1.11565934,8.26196878 C0.987690797,8.37394125 0.827730124,8.42992749 0.66776945,8.42992749 C0.483814676,8.42992749 0.299859901,8.35794519 0.171891363,8.21398058 C-0.0760476813,7.94204744 -0.0520535802,7.51815165 0.219879565,7.27021261 L5.65054443,2.36741797 C5.90648151,2.14347302 6.29838516,2.14347302 6.5463242,2.375416 L10.2414158,5.79057638 L13.8005407,1.43964606 L12.7208062,0.359911515 L16,0 Z"></path></clipPath><clipPath id="i2"><path d="M2.07948875,1.59960673 C2.34342387,1.59960673 2.55937078,1.81555364 2.55937078,2.07948875 L2.55937078,10.7173651 C2.55937078,10.9813002 2.34342387,11.1972471 2.07948875,11.1972471 L0.47988202,11.1972471 C0.215946909,11.1972471 0,10.9813002 0,10.7173651 L0,2.07948875 C0,1.81555364 0.215946909,1.59960673 0.47988202,1.59960673 L2.07948875,1.59960673 Z M6.55838761,3.99901684 C6.82232272,3.99901684 7.03826963,4.21496375 7.03826963,4.47889886 L7.03826963,10.7173651 C7.03826963,10.9813002 6.82232272,11.1972471 6.55838761,11.1972471 L4.95878088,11.1972471 C4.69484577,11.1972471 4.47889886,10.9813002 4.47889886,10.7173651 L4.47889886,4.47889886 C4.47889886,4.21496375 4.69484577,3.99901684 4.95878088,3.99901684 L6.55838761,3.99901684 Z M11.0372865,0 C11.3012216,0 11.5171685,0.215946909 11.5171685,0.47988202 L11.5171685,10.7173651 C11.5171685,10.9813002 11.3012216,11.1972471 11.0372865,11.1972471 L9.43767973,11.1972471 C9.17374462,11.1972471 8.95779771,10.9813002 8.95779771,10.7173651 L8.95779771,0.47988202 C8.95779771,0.215946909 9.17374462,0 9.43767973,0 L11.0372865,0 Z"></path></clipPath></defs><g transform="translate(-3598.0 -230.0)"><g clip-path="url(#i0)"><g transform="translate(3598.0 230.0000000000001)"><g clip-path="url(#i1)"><polygon points="0,0 16,0 16,15.9960673 0,15.9960673 0,0" stroke="none" fill="#FFFFFF"></polygon></g><g transform="translate(4.482831511935085 4.798820203360384)"><g clip-path="url(#i2)"><polygon points="0,0 11.5171685,0 11.5171685,11.1972471 0,11.1972471 0,0" stroke="none" fill="#FFFFFF"></polygon></g></g></g></g></g></svg>