<?xml version="1.0" encoding="UTF-8"?><svg version="1.1" width="25px" height="25px" viewBox="0 0 25.0 25.0" xmlns="http://www.w3.org/2000/svg" xmlns:xlink="http://www.w3.org/1999/xlink"><defs><clipPath id="i0"><path d="M1920,0 L1920,1080 L0,1080 L0,0 L1920,0 Z"></path></clipPath></defs><g transform="translate(-107.0 -362.0)"><g clip-path="url(#i0)"><g transform="translate(107.0 362.0)"><g transform="translate(3.0 2.0)"><g transform="translate(1.652999551615153 0.0)"><g transform="translate(3.0 0.0)"><path d="M0.847000448,0.624221863 L0.847000448,8.62422186" stroke="#FFFFFF" stroke-width="1.5" fill="none" stroke-miterlimit="10" opacity="50.0255766%"></path></g><g transform="translate(0.0 4.0)"><path d="M0.847000448,0.624221863 L0.847000448,7.62422186" stroke="#FFFFFF" stroke-width="1.5" fill="none" stroke-miterlimit="10" opacity="50.0255766%"></path></g><g transform="translate(6.0 2.0)"><path d="M0.847000448,0.624221863 L0.847000448,7.62422186" stroke="#FFFFFF" stroke-width="1.5" fill="none" stroke-miterlimit="10" opacity="50.0255766%"></path></g><g transform="translate(9.0 3.0)"><path d="M0.847000448,0.624221863 L0.847000448,8.62422186" stroke="#FFFFFF" stroke-width="1.5" fill="none" stroke-miterlimit="10" opacity="50.0255766%"></path></g><g transform="translate(12.0 3.0)"><path d="M0.847000448,0.624221863 L0.847000448,8.62422186" stroke="#FFFFFF" stroke-width="1.5" fill="none" stroke-miterlimit="10" opacity="50.0255766%"></path></g></g><g transform="translate(0.0 0.12422186264984703)"><polygon points="0,8.56189469 0,20 18,20 18,1.24796624 13,5 5.39536749,0 0,8.56189469 0,8.56189469" stroke="#FFFFFF" stroke-width="1.5" fill="none" stroke-linejoin="bevel"></polygon></g><g transform="translate(0.0 8.124221862649762)"><path d="M18,0.99837299 L13,4 L5.39536749,0 L0,6.84951575" stroke="#FFFFFF" stroke-width="1.5" fill="none" stroke-linejoin="bevel"></path></g></g></g></g></g></svg>