<?xml version="1.0" encoding="UTF-8"?><svg version="1.1" width="32px" height="32px" viewBox="0 0 32.0 32.0" xmlns="http://www.w3.org/2000/svg" xmlns:xlink="http://www.w3.org/1999/xlink"><defs><clipPath id="i0"><path d="M1920,0 L1920,1080 L0,1080 L0,0 L1920,0 Z"></path></clipPath><clipPath id="i1"><path d="M15,0 C15.5522847,-1.01453063e-16 16,0.44771525 16,1 L16,5 C16,5.55228475 15.5522847,6 15,6 L1,6 C0.44771525,6 6.76353751e-17,5.55228475 0,5 L0,1 C-6.76353751e-17,0.44771525 0.44771525,1.01453063e-16 1,0 L15,0 Z"></path></clipPath><linearGradient id="i2" x1="0.0412500016px" y1="2.98500001px" x2="16.2012501px" y2="2.98500001px" gradientUnits="userSpaceOnUse"><stop stop-color="#3022AD" offset="0%"></stop><stop stop-color="#52A0FD" offset="47.5247532%"></stop><stop stop-color="#B4EC50" offset="100%"></stop></linearGradient><clipPath id="i3"><path d="M3,0 C4.65685425,0 6,1.34314575 6,3 C6,4.65685425 4.65685425,6 3,6 C1.34314575,6 0,4.65685425 0,3 C0,1.34314575 1.34314575,0 3,0 Z"></path></clipPath><linearGradient id="i4" x1="0.0154687506px" y1="2.98500001px" x2="6.07546878px" y2="2.98500001px" gradientUnits="userSpaceOnUse"><stop stop-color="#3022AD" offset="0%"></stop><stop stop-color="#52A0FD" offset="47.5247532%"></stop><stop stop-color="#B4EC50" offset="100%"></stop></linearGradient></defs><g transform="translate(-21.0 -33.0)"><g clip-path="url(#i0)"><g transform="translate(21.0 33.0)"><g transform="translate(3.0 4.0)"><g transform="translate(10.0 0.0)"><g clip-path="url(#i1)"><polygon points="0,0 16,0 16,6 0,6 0,0" stroke="none" fill="url(#i2)"></polygon></g><path d="M1,0 L15,0 C15.5522847,-1.01453063e-16 16,0.44771525 16,1 L16,5 C16,5.55228475 15.5522847,6 15,6 L1,6 C0.44771525,6 6.76353751e-17,5.55228475 0,5 L0,1 C-6.76353751e-17,0.44771525 0.44771525,1.01453063e-16 1,0 Z" stroke="#FFFFFF" stroke-width="2" fill="none" stroke-miterlimit="10"></path></g><g transform="translate(14.0 10.0)"><path d="M1,0 L11,0 C11.5522847,-1.01453063e-16 12,0.44771525 12,1 L12,4 C12,4.55228475 11.5522847,5 11,5 L1,5 C0.44771525,5 6.76353751e-17,4.55228475 0,4 L0,1 C-6.76353751e-17,0.44771525 0.44771525,1.01453063e-16 1,0 Z" stroke="#FFFFFF" stroke-width="2" fill="none" stroke-miterlimit="10"></path></g><g transform="translate(14.0 19.0)"><path d="M1,0 L11,0 C11.5522847,-1.01453063e-16 12,0.44771525 12,1 L12,4 C12,4.55228475 11.5522847,5 11,5 L1,5 C0.44771525,5 6.76353751e-17,4.55228475 0,4 L0,1 C-6.76353751e-17,0.44771525 0.44771525,1.01453063e-16 1,0 Z" stroke="#FFFFFF" stroke-width="2" fill="none" stroke-miterlimit="10"></path></g><g clip-path="url(#i3)"><polygon points="0,0 6,0 6,6 0,6 0,0" stroke="none" fill="url(#i4)"></polygon></g><path d="M3,6 C4.65685425,6 6,4.65685425 6,3 C6,1.34314575 4.65685425,0 3,0 C1.34314575,0 0,1.34314575 0,3 C0,4.65685425 1.34314575,6 3,6 Z" stroke="#FFFFFF" stroke-width="2" fill="none" stroke-miterlimit="10"></path><g transform="translate(3.0 5.0)"><path d="M0,0 L0,16 C6.76353751e-17,16.5522847 0.44771525,17 1,17 L8,17 L8,17" stroke="#FFFFFF" stroke-width="2" fill="none" stroke-miterlimit="10"></path></g><g transform="translate(2.0 13.5)"><path d="M9,0.5 L0,0.5" stroke="#FFFFFF" stroke-width="2" fill="none" stroke-miterlimit="10"></path></g></g></g></g></g></svg>