<?xml version="1.0" encoding="UTF-8"?><svg version="1.1" width="24px" height="24px" viewBox="0 0 24.0 24.0" xmlns="http://www.w3.org/2000/svg" xmlns:xlink="http://www.w3.org/1999/xlink"><defs><clipPath id="i0"><path d="M3923,0 L3923,1019 L0,1019 L0,0 L3923,0 Z"></path></clipPath><clipPath id="i1"><path d="M8.26510063,0.000104932873 L8.38051765,0.0068298369 C8.65055885,0.0608917592 8.86659183,0.241098135 8.95660555,0.511407683 L10.2708061,4.7282368 L14.4834489,6.04374332 C14.7354874,6.13384649 14.9335176,6.35009415 14.9875259,6.6204037 C15.0415341,6.89071328 14.9155149,7.16102282 14.6994819,7.32320856 L11.0989325,9.8641184 L11.1529407,14.2791745 C11.1529407,14.5494841 11.0089187,14.801773 10.7568803,14.9279175 C10.6488638,14.9819794 10.5408473,15 10.4328308,15 C10.2708061,15 10.1267841,14.9459381 10.0007649,14.8558349 L6.47222646,12.2248219 L2.29558913,13.6484522 C2.04355065,13.7205348 1.75550671,13.6664729 1.55747648,13.4682459 C1.35944626,13.2700188 1.28743528,12.9816886 1.37744901,12.7293997 L2.7816633,8.53059124 L0.153262214,4.99854634 C-0.0267652608,4.78229872 -0.0447680115,4.4939685 0.0812512115,4.24167959 C0.207270435,3.98939065 0.459308912,3.84522556 0.729350109,3.84522556 L5.14002317,3.89928748 L7.6784105,0.295160026 C7.84043523,0.0789123999 8.11047646,-0.0292114446 8.38051765,0.0068298369 Z M8.0204627,2.33149205 L6.09416876,5.05260827 C5.96814954,5.25083528 5.73411384,5.3589591 5.50007812,5.3589591 L2.16956988,5.32291781 L4.14987207,7.98997214 C4.29389404,8.18819916 4.32989955,8.44048806 4.25788854,8.65673572 L3.19572648,11.8103472 L6.34620724,10.7471296 C6.41821821,10.729109 6.50823193,10.7110884 6.58024294,10.7110884 C6.74226766,10.7110884 6.88628963,10.7651503 7.01230886,10.8552534 L9.67671545,12.8375236 L9.64070995,9.50370565 C9.64070995,9.26943738 9.74872642,9.05318972 9.94675665,8.90902463 L12.6471687,6.98081645 L9.47868522,5.9896814 C9.26265225,5.91759886 9.0826248,5.75541313 9.0106138,5.52114483 L8.0204627,2.33149205 Z"></path></clipPath><clipPath id="i2"><path d="M5.10386481,0.232902028 C5.37505128,-0.0776340093 5.79878008,-0.0776340093 6.06996652,0.232902028 C6.34115295,0.543438099 6.34115295,1.02865066 6.06996652,1.3391867 L1.15471226,6.96765248 C1.01911904,7.1229205 0.849627483,7.20055453 0.680135983,7.20055453 C0.510644484,7.20055453 0.341152955,7.1229205 0.205559737,6.96765248 C-0.0656266978,6.67652495 -0.0656266978,6.17190388 0.188610581,5.86136785 Z"></path></clipPath><clipPath id="i3"><path d="M2.91525424,0.232902028 C3.1864407,-0.0776340093 3.61016951,-0.0776340093 3.88135594,0.232902028 C4.15254238,0.543438065 4.15254238,1.02865063 3.88135594,1.33918666 L1.1694915,4.44454714 C1.03389829,4.59981512 0.864406758,4.67744915 0.694915228,4.67744915 C0.525423729,4.67744915 0.3559322,4.59981516 0.203389826,4.44454714 C-0.0677966087,4.13401107 -0.0677966087,3.64879851 0.203389826,3.33826247 Z"></path></clipPath><clipPath id="i4"><path d="M3.08474576,0.232902028 C3.3559322,-0.0776340093 3.77966101,-0.0776340093 4.05084744,0.232902028 C4.32203388,0.524029593 4.32203388,1.02865066 4.05084744,1.31977819 L1.1694915,4.61922366 C1.03389829,4.77449168 0.864406728,4.85212571 0.694915228,4.85212571 C0.525423729,4.85212571 0.3559322,4.77449168 0.203389826,4.63863217 C-0.0677966087,4.32809613 -0.0677966087,3.84288357 0.203389826,3.53234753 Z"></path></clipPath></defs><g transform="translate(-2728.0 -507.0)"><g clip-path="url(#i0)"><g transform="translate(2728.0 507.0)"><g transform="translate(1.9999999999999982 7.0)"><g clip-path="url(#i1)"><polygon points="1.38777878e-17,0 15,0 15,15 1.38777878e-17,15 1.38777878e-17,0" stroke="none" fill="#FFFFFF"></polygon></g></g><g transform="translate(13.54020297885109 2.858595188220534)"><g clip-path="url(#i2)"><polygon points="1.11022302e-16,0 6.27335635,0 6.27335635,7.20055453 1.11022302e-16,7.20055453 1.11022302e-16,0" stroke="none" fill="#FFFFFF"></polygon></g></g><g transform="translate(12.0 1.5)"><g clip-path="url(#i3)"><polygon points="0,0 4.08474577,0 4.08474577,4.67744915 0,4.67744915 0,0" stroke="none" fill="#FFFFFF" opacity="50%"></polygon></g></g><g transform="translate(16.74576273088496 7.147874291231346)"><g clip-path="url(#i4)"><polygon points="0,2.77555756e-17 4.25423727,2.77555756e-17 4.25423727,4.85212571 0,4.85212571 0,2.77555756e-17" stroke="none" fill="#FFFFFF" opacity="50%"></polygon></g></g></g></g></g></svg>