<?xml version="1.0" encoding="UTF-8"?><svg version="1.1" width="32px" height="32px" viewBox="0 0 32.0 32.0" xmlns="http://www.w3.org/2000/svg" xmlns:xlink="http://www.w3.org/1999/xlink"><defs><clipPath id="i0"><path d="M3923,0 L3923,1019 L0,1019 L0,0 L3923,0 Z"></path></clipPath><clipPath id="i1"><path d="M12,0 C18.627417,0 24,5.372583 24,12 C24,13.8688763 23.572776,15.637969 22.8106635,17.2149428 L20.9569814,16.4515855 C21.6245503,15.1109682 22,13.5993296 22,12 C22,6.4771525 17.5228475,2 12,2 C6.4771525,2 2,6.4771525 2,12 C2,17.5228475 6.4771525,22 12,22 C13.8309149,22 15.5469046,21.5079468 17.0229449,20.6488645 L17.7909608,22.5127572 C16.0739602,23.460586 14.0999735,24 12,24 C5.372583,24 0,18.627417 0,12 C0,5.372583 5.372583,0 12,0 Z"></path></clipPath><clipPath id="i2"><path d="M6,0 C9.3137085,0 12,2.6862915 12,6 C12,7.06056879 11.7248293,8.05686802 11.2419878,8.92139772 L8.13872703,7.643734 L9.47566569,10.8913664 C8.49500707,11.5894515 7.2954479,12 6,12 C2.6862915,12 0,9.3137085 0,6 C0,2.6862915 2.6862915,0 6,0 Z"></path></clipPath><linearGradient id="i3" x1="0.0309375012px" y1="5.97000003px" x2="12.1509376px" y2="5.97000003px" gradientUnits="userSpaceOnUse"><stop stop-color="#3022AD" offset="0%"></stop><stop stop-color="#52A0FD" offset="47.5247532%"></stop><stop stop-color="#B4EC50" offset="100%"></stop></linearGradient><clipPath id="i4"><path d="M6,0 C9.3137085,0 12,2.6862915 12,6 C12,7.06056879 11.7248293,8.05686802 11.2419878,8.92139772 L10.3093524,8.53720508 C10.7482103,7.79342626 11,6.92611744 11,6 C11,3.23857625 8.76142375,1 6,1 C3.23857625,1 1,3.23857625 1,6 C1,8.76142375 3.23857625,11 6,11 C7.1631676,11 8.23356819,10.6028173 9.08297571,9.93667784 L9.47566569,10.8913664 C8.49500707,11.5894515 7.2954479,12 6,12 C2.6862915,12 0,9.3137085 0,6 C0,2.6862915 2.6862915,0 6,0 Z"></path></clipPath><clipPath id="i5"><path d="M0.156193384,2.76704919 C-0.520695158,1.12317702 1.12317702,-0.520695158 2.76704919,0.156193384 L16.7670492,5.92089927 C18.5544924,6.65690531 18.3616108,9.24864434 16.4849121,9.71195873 L11.0888226,11.0438156 L9.70911943,16.49627 C9.25019336,18.3095127 6.80467834,18.5366822 5.99033612,16.9191835 L5.92089927,16.7670492 Z M2.00554958,2.00554958 L7.77025546,16.0055496 L9.444631,9.38999757 L16.0055496,7.77025546 L2.00554958,2.00554958 Z"></path></clipPath></defs><g transform="translate(-68.0 -80.0)"><g clip-path="url(#i0)"><g transform="translate(68.0 80.0)"><g transform="translate(1.0 2.0)"><g clip-path="url(#i1)"><polygon points="0,0 24,0 24,24 0,24 0,0" stroke="none" fill="#FFFFFF"></polygon></g><g transform="translate(6.0 6.0)"><g clip-path="url(#i2)"><polygon points="0,0 12,0 12,12 0,12 0,0" stroke="none" fill="url(#i3)"></polygon></g></g><g transform="translate(6.0 6.0)"><g clip-path="url(#i4)"><polygon points="0,0 12,0 12,12 0,12 0,0" stroke="none" fill="#FFFFFF"></polygon></g></g><g transform="translate(12.13317744724671 11.638184421849928)"><g clip-path="url(#i5)"><polygon points="-7.10542736e-15,-8.85402862e-15 18.0057971,-8.85402862e-15 18.0057971,18.0057758 -7.10542736e-15,18.0057758 -7.10542736e-15,-8.85402862e-15" stroke="none" fill="#FFFFFF"></polygon></g></g></g></g></g></g></svg>