<?xml version="1.0" encoding="UTF-8"?>
<svg width="24px" height="24px" viewBox="0 0 24 24" version="1.1" xmlns="http://www.w3.org/2000/svg" xmlns:xlink="http://www.w3.org/1999/xlink">
    <title>压平-线</title>
    <g id="崂山" stroke="none" stroke-width="1" fill="none" fill-rule="evenodd">
        <g id="拆除" transform="translate(-107.000000, -661.000000)">
            <g id="压平-线" transform="translate(107.000000, 661.000000)">
                <rect id="矩形" fill="#000000" fill-rule="nonzero" opacity="0" x="0" y="0" width="24" height="24"></rect>
                <path d="M13.1716139,2.85567099 L13.6634756,9.25 L15.7328681,9.25 L12.6230109,13.4757755 L8.6348114,9.72287524 L11.107999,9.07866847 L11.1080089,3.15047171 L13.1716139,2.85567099 Z" id="形状结合" stroke="#FFFFFF" stroke-width="1.5"></path>
                <rect id="矩形" stroke="#FFFFFF" x="3.5" y="15.5" width="17" height="1" rx="0.5"></rect>
                <rect id="矩形" stroke="#FFFFFF" stroke-width="1.5" x="3.75" y="18.75" width="16.5" height="3.5" rx="0.5"></rect>
                <path d="M6.75,19 C7.02614237,19 7.25,19.2238576 7.25,19.5 L7.25,21.5 C7.25,21.7761424 7.02614237,22 6.75,22 C6.47385763,22 6.25,21.7761424 6.25,21.5 L6.25,19.5 C6.25,19.2238576 6.47385763,19 6.75,19 Z M10,19 C10.2761424,19 10.5,19.2238576 10.5,19.5 L10.5,21.5 C10.5,21.7761424 10.2761424,22 10,22 C9.72385763,22 9.5,21.7761424 9.5,21.5 L9.5,19.5 C9.5,19.2238576 9.72385763,19 10,19 Z M13.25,19 C13.5261424,19 13.75,19.2238576 13.75,19.5 L13.75,21.5 C13.75,21.7761424 13.5261424,22 13.25,22 C12.9738576,22 12.75,21.7761424 12.75,21.5 L12.75,19.5 C12.75,19.2238576 12.9738576,19 13.25,19 Z M16.5,19 C16.7761424,19 17,19.2238576 17,19.5 L17,21.5 C17,21.7761424 16.7761424,22 16.5,22 C16.2238576,22 16,21.7761424 16,21.5 L16,19.5 C16,19.2238576 16.2238576,19 16.5,19 Z" id="形状结合" fill="#FFFFFF"></path>
            </g>
        </g>
    </g>
</svg>