<?xml version="1.0" encoding="UTF-8"?><svg version="1.1" width="32px" height="32px" viewBox="0 0 32.0 32.0" xmlns="http://www.w3.org/2000/svg" xmlns:xlink="http://www.w3.org/1999/xlink"><defs><clipPath id="i0"><path d="M3923,0 L3923,1019 L0,1019 L0,0 L3923,0 Z"></path></clipPath><clipPath id="i1"><path d="M10,0 L10,10 L0,10 L0,0 L10,0 Z"></path></clipPath><linearGradient id="i2" x1="0.025781251px" y1="4.97500002px" x2="10.1257813px" y2="4.97500002px" gradientUnits="userSpaceOnUse"><stop stop-color="#3022AD" offset="0%"></stop><stop stop-color="#52A0FD" offset="47.5247532%"></stop><stop stop-color="#B4EC50" offset="100%"></stop></linearGradient><clipPath id="i3"><path d="M12,0 L12,2 L0,2 L0,0 L12,0 Z"></path></clipPath></defs><g transform="translate(-1012.0 -631.0)"><g clip-path="url(#i0)"><g transform="translate(1012.0 631.0)"><g transform="translate(4.0 4.000000000000002)"><g transform="translate(6.0 0.0)"><g clip-path="url(#i1)"><polygon points="0,0 10,0 10,10 0,10 0,0" stroke="none" fill="url(#i2)"></polygon></g><polygon points="10,0 10,10 0,10 0,0 10,0 10,0" stroke="#FFFFFF" stroke-width="1" fill="none" stroke-miterlimit="10"></polygon></g><g transform="translate(0.0 0.05720728071901249)"><polygon points="0,0 0,23.9797088 23.9575667,23.9797088 23.9575667,5.06261458 18.8949521,0 0,0 0,0" stroke="#FFFFFF" stroke-width="2" fill="none" stroke-miterlimit="10"></polygon></g><g transform="translate(6.0 0.0)"><path d="M10,0 L10,10 L0,10 L0,0" stroke="#FFFFFF" stroke-width="2" fill="none" stroke-miterlimit="10"></path></g><g transform="translate(5.0 16.0)"><g clip-path="url(#i3)"><polygon points="0,0 12,0 12,2 0,2 0,0" stroke="none" fill="#FFFFFF"></polygon></g></g></g></g></g></g></svg>