<?xml version="1.0" encoding="UTF-8"?>
<svg width="24px" height="24px" viewBox="0 0 24 24" version="1.1" xmlns="http://www.w3.org/2000/svg" xmlns:xlink="http://www.w3.org/1999/xlink">
    <title>雾</title>
    <g id="页面-2" stroke="none" stroke-width="1" fill="none" fill-rule="evenodd">
        <g id="环境选择-雨/雪" transform="translate(-254.000000, -543.000000)" fill-rule="nonzero">
            <g id="雾" transform="translate(254.000000, 543.000000)">
                <rect id="矩形" fill="#000000" opacity="0" x="0" y="0" width="24" height="24"></rect>
                <path d="M22.702979,17.7266693 L6.33916134,17.7266693 C5.88704778,17.7266693 5.52087484,17.2990153 5.52087484,16.7721165 C5.52087484,16.2451938 5.88706833,15.8175397 6.33916134,15.8175397 L22.702979,15.8175397 C23.1546814,15.8175397 23.5208748,16.2451938 23.5208748,16.7721165 C23.5208748,17.2989913 23.1546814,17.7266693 22.702979,17.7266693 L22.702979,17.7266693 L22.702979,17.7266693 Z M18.6600646,13.9088898 L1.38714599,13.9088898 C0.909915009,13.9088898 0.523399133,13.4812357 0.523399133,12.954313 C0.523399133,12.4274142 0.909936705,11.9997602 1.38714599,11.9997602 L18.6600646,11.9997602 C19.1368616,11.9997602 19.5233991,12.4274142 19.5233991,12.954313 C19.5233991,13.4812357 19.1368616,13.9088898 18.6600646,13.9088898 L18.6600646,13.9088898 L18.6600646,13.9088898 Z M16.7944454,8.18198063 C16.0308031,8.18198063 15.322995,8.41203265 14.7259198,8.79814688 C14.1383902,6.26045142 11.8751167,4.36420109 9.15891023,4.36420109 C5.99595872,4.36420109 3.43202505,6.92815873 3.43202505,10.0910863 L1.52337516,10.0910863 C1.52337516,5.87385752 4.94165756,2.45555114 9.15891026,2.45555114 C12.0245114,2.45555114 14.5178129,4.03631939 15.8241352,6.37116035 C16.1410564,6.31674124 16.4617909,6.2733067 16.7944454,6.2733067 C19.2868115,6.2733067 21.40117,7.86839323 22.1882204,10.0910863 L20.0972461,10.0910863 C19.4366859,8.95089928 18.2067278,8.18198063 16.7944454,8.18198063 L16.7944454,8.18198063 L16.7944454,8.18198063 Z M1.43260635,19.6352953 L19.614626,19.6352953 C20.1165175,19.6352953 20.5233991,20.0629493 20.5233991,20.5898481 C20.5233991,21.1167708 20.1165175,21.5444009 19.614626,21.5444009 L1.43260635,21.5444009 C0.93025795,21.5444009 0.523399133,21.1167469 0.523399133,20.5898481 C0.523399133,20.0629493 0.93025795,19.6352953 1.43260635,19.6352953 L1.43260635,19.6352953 L1.43260635,19.6352953 Z" id="形状" fill="#FFFFFF"></path>
            </g>
        </g>
    </g>
</svg>