<?xml version="1.0" encoding="UTF-8"?><svg version="1.1" width="24px" height="24px" viewBox="0 0 24.0 24.0" xmlns="http://www.w3.org/2000/svg" xmlns:xlink="http://www.w3.org/1999/xlink"><defs><clipPath id="i0"><path d="M3923,0 L3923,1019 L0,1019 L0,0 L3923,0 Z"></path></clipPath><clipPath id="i1"><path d="M19.594613,0 C20.1972775,0 20.6991381,0.464879391 20.7484308,1.06879501 L20.7484308,3.38899501 L21.897773,3.38899501 C22.3328106,3.35232497 22.7513715,3.56483281 22.980279,3.93859501 C23.2091874,4.3125919 23.2092686,4.78428515 22.9804889,5.15836164 C22.7517092,5.53243813 22.3330145,5.74521766 21.897773,5.70859501 L20.7484308,5.70859501 L20.7484308,10.008795 C21.4431362,10.2989169 21.9953768,10.8537328 22.2844675,11.551995 C22.7589286,11.7205097 23.0707925,12.1778784 23.0560664,12.683595 C23.0786018,13.1980692 22.7454987,13.6602892 22.252243,13.798995 L11.4958086,13.822995 L11.4958086,18.454995 L12.436288,18.454995 C13.0354079,18.5063063 13.4957272,19.0102317 13.4957272,19.614795 C13.4957272,20.2193583 13.0354079,20.7232837 12.436288,20.774595 L11.5280332,20.774595 L11.5280332,21.930195 C11.5645047,22.3676013 11.3531476,22.7884411 10.9814094,23.018595 C10.6094378,23.2487498 10.1402989,23.2488314 9.76824809,23.018806 C9.3961973,22.7887807 9.18457003,22.3678063 9.22099436,21.930195 L9.22099436,20.774595 L5.7640166,20.774595 L5.7640166,21.930195 C5.801117,22.3681161 5.58972932,22.7897086 5.21750819,23.0201537 C4.84528707,23.2505988 4.37570729,23.2505988 4.00348616,23.0201537 C3.63126504,22.7897086 3.41987736,22.3681161 3.45697776,21.930195 L3.45697776,20.774595 L1.14934216,20.774595 C0.551825303,20.7727086 0.0538970369,20.3139191 0,19.715595 L0,19.521795 C0.0460124885,18.9170679 0.546137874,18.4492047 1.14934216,18.446595 L3.45697776,18.446595 L3.45697776,13.855995 L1.14934216,13.855995 C0.548887973,13.8537205 0.0498275999,13.3902405 0,12.788595 L0,12.562395 C0.0541861697,11.9643082 0.552034154,11.5058527 1.14934216,11.503995 L3.45697776,11.503995 L3.45697776,5.70799501 L1.14934216,5.70799501 C0.549098615,5.70574726 0.0501196149,5.24260338 0,4.64119501 L0,4.45519501 C0.0501196149,3.85378664 0.549098615,3.39064276 1.14934216,3.38839501 L3.45697776,3.38839501 L3.45697776,1.06879501 C3.50801117,0.466413095 4.0092077,0.00358752047 4.61049718,0.00358752047 C5.21178666,0.00358752047 5.71298318,0.466413095 5.7640166,1.06879501 L5.7640166,3.38839501 L7.7010699,3.38839501 C7.98732395,2.71642105 8.51983799,2.18100763 9.18817306,1.89319501 L9.18817306,1.08499501 C9.23920647,0.482613095 9.740403,0.0197875205 10.3416925,0.0197875205 C10.942982,0.0197875205 11.4441785,0.482613095 11.4952119,1.08499501 L11.4952119,1.89319501 C12.1738432,2.17691592 12.7178737,2.71230696 13.0145396,3.38839501 L18.4407952,3.38839501 L18.4407952,1.06879501 C18.4900879,0.464879391 18.9919485,0 19.594613,0 Z M9.22099436,13.823595 L5.7640166,13.823595 L5.7640166,18.446595 L9.22099436,18.446595 L9.22099436,13.823595 Z M18.4097642,5.70799501 L12.9829118,5.70799501 C12.6967837,6.38019505 12.1642537,6.91583934 11.4958086,7.20379501 L11.4958086,11.535795 L16.9542888,11.535795 C17.2384513,10.8624003 17.7716438,10.3263047 18.441392,10.040595 L18.4097642,5.70799501 Z M7.73329445,5.70799501 L5.7640166,5.70799501 L5.7640166,11.495595 L9.22099436,11.495595 L9.22099436,7.20379501 C8.55087453,6.9181241 8.01741839,6.38176345 7.73329445,5.70799501 Z M10.3506437,3.47119501 C10.0886701,3.46279501 9.83326074,3.55999501 9.64230047,3.73999501 L9.55278784,3.82939501 C9.37734308,4.02559501 9.27112143,4.27459501 9.2508319,4.53739501 C9.24264172,4.80102152 9.338787,5.0571506 9.51817629,5.24959501 L9.60709216,5.33959501 C10.0143456,5.69793862 10.6224927,5.69793862 11.0297462,5.33959501 L11.0995661,5.22979501 C11.2768011,5.03659501 11.3710877,4.78039501 11.3621365,4.51759501 C11.365717,4.25359501 11.2720271,3.99799501 11.0995661,3.79999501 L11.039891,3.73999501 C10.8495275,3.57079501 10.6048596,3.47539501 10.3506437,3.47119501 Z"></path></clipPath><clipPath id="i2"><path d="M3.69269435,0 L7.3853887,2.1336 L7.3853887,6.4176 L3.6920976,8.5602 L0,6.4182 L0,2.1342 L3.69269435,0 Z"></path></clipPath><linearGradient id="i3" x1="0.019040456px" y1="4.25869952px" x2="7.47828307px" y2="4.25869952px" gradientUnits="userSpaceOnUse"><stop stop-color="#3022AD" offset="0%"></stop><stop stop-color="#52A0FD" offset="47.5247532%"></stop><stop stop-color="#B4EC50" offset="100%"></stop></linearGradient></defs><g transform="translate(-3367.0 -106.0)"><g clip-path="url(#i0)"><g transform="translate(3367.0 106.0)"><g transform="translate(0.847982978170263 0.37120498936505975)"><g clip-path="url(#i1)"><polygon points="0,0 23.152017,0 23.152017,23.1929875 0,23.1929875 0,0" stroke="none" fill="#FFFFFF"></polygon></g></g><g transform="translate(16.60399604828262 15.002399999999852)"><g clip-path="url(#i2)"><polygon points="0,0 7.3853887,0 7.3853887,8.5602 0,8.5602 0,0" stroke="none" fill="url(#i3)"></polygon><polygon points="3.6920976,0.0006 0,2.1342 0,6.4182 3.6920976,8.5602 7.3853887,6.4176 7.3853887,2.1336 3.69269435,0 3.6920976,0.0006 3.6920976,0.0006" stroke="#FFFFFF" stroke-width="2" fill="none" stroke-linejoin="round"></polygon></g></g></g></g></g></svg>