<?xml version="1.0" encoding="UTF-8"?><svg version="1.1" width="24px" height="24px" viewBox="0 0 24.0 24.0" xmlns="http://www.w3.org/2000/svg" xmlns:xlink="http://www.w3.org/1999/xlink"><defs><clipPath id="i0"><path d="M3923,0 L3923,1019 L0,1019 L0,0 L3923,0 Z"></path></clipPath><clipPath id="i1"><path d="M15.8333333,11.6666667 C18.1345198,11.6666667 20,13.5321469 20,15.8333333 C20,18.1345198 18.1345198,20 15.8333333,20 C13.5321469,20 11.6666667,18.1345198 11.6666667,15.8333333 C11.6666667,13.5321469 13.5321469,11.6666667 15.8333333,11.6666667 Z M4.16666667,11.6666667 C6.46785312,11.6666667 8.33333333,13.5321469 8.33333333,15.8333333 C8.33333333,18.1345198 6.46785312,20 4.16666667,20 C1.86548021,20 0,18.1345198 0,15.8333333 C0,13.5321469 1.86548021,11.6666667 4.16666667,11.6666667 Z M15.8333333,13.3333333 C14.4526215,13.3333333 13.3333333,14.4526215 13.3333333,15.8333333 C13.3333333,17.2140452 14.4526215,18.3333333 15.8333333,18.3333333 C17.2140452,18.3333333 18.3333333,17.2140452 18.3333333,15.8333333 C18.3333333,14.4526215 17.2140452,13.3333333 15.8333333,13.3333333 Z M4.16666667,13.3333333 C2.78595479,13.3333333 1.66666667,14.4526215 1.66666667,15.8333333 C1.66666667,17.2140452 2.78595479,18.3333333 4.16666667,18.3333333 C5.54737854,18.3333333 6.66666667,17.2140452 6.66666667,15.8333333 C6.66666667,14.4526215 5.54737854,13.3333333 4.16666667,13.3333333 Z M4.16666667,0 C6.46785312,0 8.33333333,1.86548021 8.33333333,4.16666667 C8.33333333,6.46785312 6.46785312,8.33333333 4.16666667,8.33333333 C1.86548021,8.33333333 0,6.46785312 0,4.16666667 C0,1.86548021 1.86548021,0 4.16666667,0 Z M15.8333333,0 C18.1345198,0 20,1.86548021 20,4.16666667 C20,6.46785312 18.1345198,8.33333333 15.8333333,8.33333333 C13.5321469,8.33333333 11.6666667,6.46785312 11.6666667,4.16666667 C11.6666667,1.86548021 13.5321469,0 15.8333333,0 Z M4.16666667,1.66666667 C2.78595479,1.66666667 1.66666667,2.78595479 1.66666667,4.16666667 C1.66666667,5.54737854 2.78595479,6.66666667 4.16666667,6.66666667 C5.54737854,6.66666667 6.66666667,5.54737854 6.66666667,4.16666667 C6.66666667,2.78595479 5.54737854,1.66666667 4.16666667,1.66666667 Z"></path></clipPath></defs><g transform="translate(-152.0 -354.0)"><g clip-path="url(#i0)"><g transform="translate(152.0 354.0)"><g transform="translate(2.0 2.0)"><g clip-path="url(#i1)"><polygon points="0,0 20,0 20,20 0,20 0,0" stroke="none" fill="#FFFFFF"></polygon></g></g></g></g></g></svg>