<?xml version="1.0" encoding="UTF-8"?>
<svg width="24px" height="24px" viewBox="0 0 24 24" version="1.1" xmlns="http://www.w3.org/2000/svg" xmlns:xlink="http://www.w3.org/1999/xlink">
    <title>雨</title>
    <g id="页面-2" stroke="none" stroke-width="1" fill="none" fill-rule="evenodd">
        <g id="环境选择-雨/雪" transform="translate(-106.000000, -543.000000)">
            <g id="雨" transform="translate(106.000000, 543.000000)">
                <rect id="矩形" x="0" y="0" width="24" height="24" rx="1"></rect>
                <g id="编组-18" transform="translate(3.000000, 3.000000)">
                    <path d="M6,13 C5.89041969,13 5.78495604,12.9823745 5.68628935,12.9498039 C2.48052834,12.5492273 0,9.81429287 0,6.5 C0,2.91014913 2.91014913,0 6.5,0 C9.3538829,0 11.7781919,1.83922443 12.6522739,4.39702018 C13.2149332,4.14169017 13.8409199,4 14.5,4 C16.9852814,4 19,6.01471863 19,8.5 C19,10.6668103 17.4685421,12.4759295 15.4289832,12.9040006 C15.2990005,12.965396 15.1535413,13 15,13 L6,13 Z" id="形状结合" stroke="#FFFFFF" stroke-width="2"></path>
                    <path d="M2.15623428,19.2537143 C1.84937714,19.8393143 1.15063428,20.0491429 0.594862854,19.7299428 C0.0377199863,19.4086857 -0.162165725,18.6712 0.141948564,18.0873143 C0.450519986,17.5030857 2.54949143,16 2.54949143,16 C2.54949143,16 2.46172001,18.6712 2.15623428,19.2537143" id="路径" fill="#FFFFFF"></path>
                    <path d="M15.7787088,19.2537143 C15.6296312,19.5330466 15.3746171,19.7408058 15.0709187,19.8303488 C14.7672203,19.9198918 14.440284,19.8837159 14.1635088,19.7299428 C13.5892231,19.4056 13.3811088,18.6712 13.6968802,18.0873143 C14.0140231,17.5030857 16.1853374,16 16.1853374,16 C16.1853374,16 16.0961945,18.6712 15.7787088,19.2537143" id="路径" fill="#FFFFFF"></path>
                    <path d="M9.22960572,19.2537143 C8.92137714,19.8393143 8.22434859,20.0491429 7.66686285,19.7299428 C7.11143428,19.4056 6.91017714,18.6712 7.21566285,18.0873143 C7.52251999,17.5030857 9.62320572,16 9.62320572,16 C9.62320572,16 9.53680572,18.6712 9.22994856,19.2537143" id="路径" fill="#FFFFFF"></path>
                </g>
            </g>
        </g>
    </g>
</svg>