<?xml version="1.0" encoding="UTF-8"?>
<svg width="24px" height="24px" viewBox="0 0 24 24" version="1.1" xmlns="http://www.w3.org/2000/svg" xmlns:xlink="http://www.w3.org/1999/xlink">
    <title>第三人称</title>
    <g id="0602最新布局" stroke="none" stroke-width="1" fill="none" fill-rule="evenodd">
        <g id="相机第三人称" transform="translate(-254.000000, -659.000000)">
            <g id="编组-15" transform="translate(254.000000, 659.000000)">
                <rect id="矩形备份" x="0" y="0" width="24" height="24" rx="1"></rect>
                <g id="编组-7" transform="translate(1.200000, 1.200000)" stroke="#FFFFFF" stroke-width="1.5">
                    <path d="M8.19499801,7.2 L13.405002,7.2 C13.9145322,7.2 14.3425868,7.58310805 14.3988802,8.08951905 L14.8765573,12.3866659 C14.9375743,12.9355697 14.5420638,13.4300081 13.99316,13.4910251 C13.9564743,13.4951031 13.9195908,13.4971468 13.8826791,13.4971468 L13.6104803,13.4971468 L13.6104803,13.4971468 L12.9475462,20.5468123 C12.9233904,20.803686 12.7077494,21 12.4497424,21 L9.16348425,21 C8.90560923,21 8.69003307,20.8038807 8.66571282,20.5471551 L7.99784835,13.4971468 L7.99784835,13.4971468 L7.71732092,13.4971468 C7.16503617,13.4971468 6.71732092,13.0494316 6.71732092,12.4971468 C6.71732092,12.4602351 6.71936463,12.4233517 6.72344268,12.3866659 L7.20111977,8.08951905 C7.25741315,7.58310805 7.68546779,7.2 8.19499801,7.2 Z" id="矩形" fill="#FFFFFF" opacity="0.5"></path>
                    <path d="M5.40099887,9.6 C2.17232063,10.2670087 0,11.5139029 0,12.94204 C0,15.0727325 4.8353247,16.8 10.8,16.8 C16.7646753,16.8 21.6,15.0727325 21.6,12.94204 C21.6,11.51659 19.4358463,10.2717015 16.2172146,9.60377117" id="路径"></path>
                    <circle id="椭圆形" cx="10.8" cy="2.4" r="2.4"></circle>
                </g>
            </g>
        </g>
    </g>
</svg>