<?xml version="1.0" encoding="UTF-8"?><svg version="1.1" width="24px" height="25px" viewBox="0 0 24.0 25.0" xmlns="http://www.w3.org/2000/svg" xmlns:xlink="http://www.w3.org/1999/xlink"><defs><clipPath id="i0"><path d="M3039,0 L3039,1019 L0,1019 L0,0 L3039,0 Z"></path></clipPath><clipPath id="i1"><path d="M11.0006911,0 C15.0643968,0 18.8450327,1.21196556 22.0008586,3.29415637 L22.0004556,15.8016091 C19.2609767,12.8482501 15.3466749,11 11.0006911,11 C6.65372727,11 2.7386401,12.8490837 -0.000926513061,15.8036073 L-0.000480402566,3.29481882 C3.15554763,1.21222262 6.93655447,0 11.0006911,0 Z"></path></clipPath></defs><g transform="translate(-935.0 -210.0)"><g clip-path="url(#i0)"><g transform="translate(935.0 210.0)"><g transform="translate(1.0 1.0)"><g transform=""><g clip-path="url(#i1)"><polygon points="-0.000926513061,0 22.0008586,0 22.0008586,15.8036073 -0.000926513061,15.8036073 -0.000926513061,0" stroke="none" fill="#FFFFFF" opacity="41.922433%"></polygon></g></g><g transform="translate(0.0005235506625922426 0.0)"><g transform=""><path d="M0,15.1969433 L11.0732192,22.2591822 L22.0000166,15.1969433 L22.0000166,3.34181266 C17.6335773,1.11393755 13.9669051,0 11,0 C8.03310597,0 4.36643931,1.11393755 0,3.34181266 L0,15.1969433 Z" stroke="#FFFFFF" stroke-width="1.5" fill="none" stroke-linecap="round" stroke-linejoin="round"></path></g><g transform="translate(1.1368683772161603e-13 3.3418126636433954)"><path d="M0,0 L11,18.9173695 L22.0001675,0" stroke="#FFFFFF" stroke-width="1.5" fill="none" stroke-linecap="round" stroke-linejoin="round"></path></g></g></g></g></g></g></svg>