<?xml version="1.0" encoding="UTF-8"?>
<svg width="24px" height="24px" viewBox="0 0 24 24" version="1.1" xmlns="http://www.w3.org/2000/svg" xmlns:xlink="http://www.w3.org/1999/xlink">
    <title>三维点</title>
    <g id="崂山" stroke="none" stroke-width="1" fill="none" fill-rule="evenodd">
        <g id="空间分析" transform="translate(-179.000000, -528.000000)" fill-rule="nonzero">
            <g id="三维点" transform="translate(179.000000, 528.000000)">
                <rect id="矩形" fill="#000000" opacity="0" x="0" y="0" width="24" height="24"></rect>
                <path d="M14.4517109,16.2592107 L16.6668278,13.7731087 L11.976382,13.7731087 L9.76043645,16.2592107 L14.4517109,16.2592107 L14.4517109,16.2592107 Z M13.7133386,17.0879113 L9.02289286,17.0879113 L6.80694727,19.5740133 L11.497393,19.5740133 L13.7133386,17.0879113 Z M4.5976313,16.2592107 L8.65080626,16.2592107 L10.8659231,13.7731087 L6.70501709,13.7731087 L4.5976313,16.2592107 L4.5976313,16.2592107 Z M3.89572183,17.0879113 L1.78833604,19.5740133 L5.69648838,19.5740133 L7.91243396,17.0879113 L3.89572183,17.0879113 L3.89572183,17.0879113 Z M20.1042782,16.2592107 L22.2108353,13.7731087 L17.7772867,13.7731087 L15.5613411,16.2592107 L20.1042782,16.2592107 Z M19.40154,17.0879113 L14.8229688,17.0879113 L12.6078519,19.5740133 L17.2949829,19.5740133 L19.40154,17.0879113 Z M11.6780498,12.944408 L17.4060288,12.944408 L17.4383481,12.9079452 L17.4789545,12.944408 L24,12.944408 L17.6786713,20.402714 L0,20.402714 L6.32132868,12.944408 L11.6051241,12.944408 L11.6374435,12.9079452 L11.6780498,12.944408 Z M13.0652947,10.458306 C11.7329966,10.458306 10.5019025,9.74753349 9.83575341,8.59372952 C9.16960437,7.43992556 9.16960437,6.01838044 9.83575341,4.86457648 C10.5019025,3.71077251 11.7329966,3 13.0652947,3 C15.124849,3 16.7944476,4.66959869 16.7944476,6.729153 C16.7944476,8.78870731 15.124849,10.458306 13.0652947,10.458306 Z" id="形状" fill="#FFFFFF"></path>
            </g>
        </g>
    </g>
</svg>