<?xml version="1.0" encoding="UTF-8"?><svg version="1.1" width="32px" height="32px" viewBox="0 0 32.0 32.0" xmlns="http://www.w3.org/2000/svg" xmlns:xlink="http://www.w3.org/1999/xlink"><defs><clipPath id="i0"><path d="M3923,0 L3923,1019 L0,1019 L0,0 L3923,0 Z"></path></clipPath><clipPath id="i1"><path d="M2,0 C3.1045695,0 4,0.8954305 4,2 C4,3.1045695 3.1045695,4 2,4 C0.8954305,4 0,3.1045695 0,2 C0,0.8954305 0.8954305,0 2,0 Z"></path></clipPath><linearGradient id="i2" x1="0.0103125004px" y1="1.99000001px" x2="4.05031252px" y2="1.99000001px" gradientUnits="userSpaceOnUse"><stop stop-color="#3022AD" offset="0%"></stop><stop stop-color="#52A0FD" offset="47.5247532%"></stop><stop stop-color="#B4EC50" offset="100%"></stop></linearGradient></defs><g transform="translate(-2985.0 -100.0)"><g clip-path="url(#i0)"><g transform="translate(2985.0 100.0)"><g transform="translate(11.0 12.0)"><path d="M5,10 C7.76142375,10 10,7.76142375 10,5 C10,2.23857625 7.76142375,0 5,0 C2.23857625,0 0,2.23857625 0,5 C0,7.76142375 2.23857625,10 5,10 Z" stroke="#FFFFFF" stroke-width="2" fill="none" stroke-miterlimit="10"></path></g><g transform="translate(14.0 15.0)"><g clip-path="url(#i1)"><polygon points="0,0 4,0 4,4 0,4 0,0" stroke="none" fill="url(#i2)"></polygon></g><path d="M2,4 C3.1045695,4 4,3.1045695 4,2 C4,0.8954305 3.1045695,0 2,0 C0.8954305,0 0,0.8954305 0,2 C0,3.1045695 0.8954305,4 2,4 Z" stroke="#FFFFFF" stroke-width="1" fill="none" stroke-miterlimit="10"></path></g><g transform="translate(4.0 5.0)"><polygon points="16.6093333,0 7.38933334,0 6.704,4 0,4 0,20 24,20 24,4 17.296,4 16.6093333,0 16.6093333,0 16.6093333,0" stroke="#FFFFFF" stroke-width="2" fill="none" stroke-miterlimit="10"></polygon></g></g></g></g></svg>