<?xml version="1.0" encoding="UTF-8"?><svg version="1.1" width="24px" height="24px" viewBox="0 0 24.0 24.0" xmlns="http://www.w3.org/2000/svg" xmlns:xlink="http://www.w3.org/1999/xlink"><defs><clipPath id="i0"><path d="M3039,0 L3039,1019 L0,1019 L0,0 L3039,0 Z"></path></clipPath><clipPath id="i1"><path d="M16.3745863,13.8818437 C16.8250784,13.8818437 17.2534456,14.0253516 17.6132113,14.2959609 L18.3063753,14.8208672 C18.4530238,14.9321719 18.5511566,15.0999375 18.5754144,15.2819297 C18.6007269,15.4671094 18.5522113,15.6506719 18.4382581,15.7989141 C18.3053206,15.9740625 18.1027503,16.0753359 17.8811956,16.0753359 C17.7291784,16.075055 17.5813948,16.0252343 17.4602347,15.9334219 L16.7681253,15.4090547 C16.5465472,15.2365547 16.20893,15.2360391 15.9789378,15.4095937 L15.2868284,15.9334219 C14.9270628,16.2045703 14.4987191,16.3480547 14.0482034,16.3480547 C13.5966566,16.3480547 13.1682894,16.2045469 12.8085238,15.9339375 L12.1164144,15.4090547 C11.8863988,15.2370703 11.5561644,15.2370703 11.3282816,15.4090547 L10.6351175,15.9334219 C10.2764066,16.2051094 9.84806282,16.3485937 9.39438313,16.3485937 C8.94178157,16.3485937 8.51341438,16.2050859 8.15470344,15.9334219 L7.46470344,15.4090547 C7.24312532,15.2365547 6.90550813,15.2360391 6.67551594,15.4095937 L5.98340657,15.9334219 C5.62364094,16.2045703 5.19529719,16.3480547 4.74478157,16.3480547 C4.29323469,16.3480547 3.86486751,16.2045469 3.50510188,15.9339375 L2.81299251,15.4090547 C2.59035969,15.2365547 2.25274251,15.2360391 2.02380501,15.4095937 L1.11963313,16.0943203 C0.824226881,16.3211484 0.368437818,16.2583828 0.141609693,15.9592734 C0.0297659431,15.8115703 -0.0187496819,15.6279844 0.00656281808,15.4428281 C0.0318753181,15.2581875 0.127898756,15.094125 0.276656568,14.9817656 L1.18082844,14.2965 C1.54059407,14.0253516 1.96893782,13.8818672 2.41945344,13.8818672 C2.87100032,13.8818672 3.29936751,14.025375 3.65913313,14.2959844 L4.35124251,14.8208672 C4.57493001,14.9907187 4.91676594,14.9907187 5.14043001,14.8208672 L5.83253938,14.2965 C6.18386751,14.0290313 6.62381282,13.8813281 7.07010969,13.8813281 C7.51638313,13.8813281 7.95740657,14.0290547 8.30978938,14.2965 L9.00295344,14.8208672 C9.22453157,14.9907187 9.56847688,14.9923125 9.79214094,14.8208672 L10.4842503,14.2965 C10.8366331,14.0290312 11.2776566,13.8813281 11.72393,13.8813281 C12.1702034,13.8813281 12.6091175,14.0285156 12.9615003,14.2959609 L13.6546644,14.8208437 C13.8794066,14.9943984 14.2149144,14.9949141 14.4438519,14.8203047 L15.1359613,14.2964766 C15.4957269,14.0253281 15.9240706,13.8818437 16.3745863,13.8818437 Z M8.92591438,0 L9.03037532,0.039046875 L19.6874534,3.96332812 L19.6504456,4.06408594 L17.1900706,10.9277344 C17.4496175,11.0000156 17.6637894,11.1018281 17.8442113,11.236875 L18.5363206,11.7617578 C18.6829691,11.8720078 18.7821566,12.0408047 18.8064144,12.2233359 C18.8317269,12.4058672 18.7811019,12.5936484 18.6692581,12.7397812 C18.5363206,12.9149297 18.3337503,13.0162031 18.1121956,13.0162031 C17.9602341,13.016115 17.812445,12.9664817 17.6912347,12.8748281 L16.9991253,12.3499453 C16.7743831,12.1763906 16.4388753,12.1774453 16.2099378,12.3504844 L15.5178284,12.8743125 C15.1580628,13.1454609 14.7297191,13.2889453 14.2781488,13.2889453 C13.8276566,13.2889453 13.3992894,13.1454609 13.0395238,12.8748281 L12.3474144,12.3499453 C12.1216175,12.1805859 11.7829456,12.1821797 11.5592816,12.3494062 L10.8661175,12.8748281 C10.5074066,13.1459766 10.0780081,13.2894609 9.62538313,13.2894609 C9.17172688,13.2894609 8.74335969,13.1459766 8.38570344,12.8748281 L7.69570344,12.3499453 C7.46779719,12.1769297 7.13439876,12.1779844 6.90651594,12.3504844 L6.21440657,12.8743125 C5.85464094,13.1454609 5.42629719,13.2889453 4.97472688,13.2889453 C4.52423469,13.2889453 4.09586751,13.1454609 3.73610188,12.8748281 L3.04399251,12.3499453 C2.81819563,12.1763906 2.48268782,12.1774453 2.25480501,12.3504844 L1.35063313,13.03575 C1.23035188,13.1270156 1.08053938,13.1776641 0.929672193,13.1776641 C0.709172193,13.1776641 0.505547193,13.0763672 0.371555006,12.9007031 C0.259711256,12.7519219 0.212250318,12.5683594 0.237562818,12.3837187 C0.262875318,12.1991016 0.358898756,12.0355547 0.507656568,11.9231953 L1.41182844,11.2374141 C2.13349251,10.6951172 3.16743782,10.6956328 3.88910188,11.236875 L4.58226594,11.7617578 C4.69305501,11.8466719 4.83337532,11.8931016 4.97685969,11.8931016 C4.99689876,11.8931016 5.02012532,11.8893984 5.04438313,11.884125 L8.92591438,0 Z M9.75733626,1.79517187 L6.89287532,10.8680859 C7.03319563,10.8375 7.16824251,10.8221953 7.30118001,10.8221953 C7.74745344,10.8221953 8.18742219,10.9699219 8.54085969,11.2373672 L9.23402376,11.7617344 C9.45560188,11.932125 9.79954719,11.9326641 10.0232113,11.7617344 L10.7153206,11.2373672 C11.0687581,10.9698984 11.5087269,10.8221953 11.9550003,10.8221953 C12.4012738,10.8221953 12.8412425,10.9699219 13.1925706,11.2373672 L13.8857347,11.7617344 C14.1115316,11.9363437 14.4470394,11.9342344 14.6749222,11.7617344 L15.3670316,11.2373672 C15.4166253,11.1999141 15.4693597,11.1756328 15.5157894,11.1545391 L15.559055,11.1345 L17.8928206,4.79205469 L9.75733626,1.79517187 Z"></path></clipPath><clipPath id="i2"><path d="M3.92796094,5.78957812 L5.75109375,6.46059375 L5.26366406,7.78258594 L3.44053125,7.11157031 L3.92796094,5.78957812 Z M0.485320313,4.62007031 L2.30739844,5.29160156 L1.82207813,6.61359375 L0,5.94203906 L0.485320313,4.62007031 Z M4.80365625,3.696375 L6.62784375,4.36736719 L6.14041406,5.68882031 L4.31833594,5.01782812 L4.80365625,3.696375 Z M1.34414062,2.42238281 L3.16621875,3.0939375 L2.68089844,4.41590625 L0.856710937,3.744375 L1.34414062,2.42238281 Z M5.5179375,1.27396875 L7.33999219,1.94498438 L6.85467188,3.26695313 L5.03259375,2.59542188 L5.5179375,1.27396875 Z M2.05842187,0 L3.88047656,0.67153125 L3.39410156,1.9935 L1.57202344,1.32196875 L2.05842187,0 Z"></path></clipPath></defs><g transform="translate(-935.0 -284.0)"><g clip-path="url(#i0)"><g transform="translate(935.0 284.0)"><g transform="translate(2.15629655691672 3.8257031250000004)"><g clip-path="url(#i1)"><polygon points="-1.73472348e-18,0 19.6874534,0 19.6874534,16.3485937 -1.73472348e-18,16.3485937 -1.73472348e-18,0" stroke="none" fill="#FFFFFF"></polygon></g></g><g transform="translate(11.4050625 7.1021953124999975)"><g clip-path="url(#i2)"><polygon points="0,0 7.33999219,0 7.33999219,7.78258594 0,7.78258594 0,0" stroke="none" fill="#FFFFFF"></polygon></g></g></g></g></g></svg>