<?xml version="1.0" encoding="UTF-8"?>
<svg width="24px" height="24px" viewBox="0 0 24 24" version="1.1" xmlns="http://www.w3.org/2000/svg" xmlns:xlink="http://www.w3.org/1999/xlink">
    <title>楼层</title>
    <g id="0602最新布局" stroke="none" stroke-width="1" fill="none" fill-rule="evenodd">
        <g id="分析" transform="translate(-254.000000, -302.000000)" fill-rule="nonzero">
            <g id="楼层" transform="translate(254.000000, 302.000000)">
                <rect id="矩形" fill="#000000" opacity="0" x="0" y="0" width="24" height="24"></rect>
                <path d="M12,11.8725078 C11.8134573,11.8730797 11.6282223,11.8413614 11.4525,11.77875 L4.3275,9.25875 C3.76283157,9.10016168 3.37262365,8.58526572 3.37262365,7.99875 C3.37262365,7.41223428 3.76283157,6.89733832 4.3275,6.73875 L11.4525,4.21875 C11.8070109,4.09499963 12.1929891,4.09499963 12.5475,4.21875 L19.6725,6.73875 C20.2371684,6.89733832 20.6273763,7.41223428 20.6273763,7.99875 C20.6273763,8.58526572 20.2371684,9.10016168 19.6725,9.25875 L12.5475,11.77875 C12.3717777,11.8413614 12.1865427,11.8730797 12,11.8725078 L12,11.8725078 Z" id="路径" fill="#FFFFFF"></path>
                <path d="M19.6725,10.74 L18.5475,10.34625 L16.44,11.09625 L19.02375,12 L12,14.47875 L4.97625,12 L7.54875,11.0925 L5.4375,10.3425 L4.3125,10.73625 C3.74783157,10.8948383 3.35762365,11.4097343 3.35762365,11.99625 C3.35762365,12.5827657 3.74783157,13.0976617 4.3125,13.25625 L11.4375,15.77625 C11.7918072,15.9011957 12.1781928,15.9011957 12.5325,15.77625 L19.6575,13.25625 C20.2221684,13.0976617 20.6123763,12.5827657 20.6123763,11.99625 C20.6123763,11.4097343 20.2221684,10.8948383 19.6575,10.73625 L19.6725,10.74 Z" id="路径" fill="#FFFFFF" opacity="0.5"></path>
                <path d="M19.6725,14.74125 L18.5475,14.3475 L16.44,15.0975 L19.00875,16.005 L12,18.48 L4.9875,16.00125 L7.56,15.09375 L5.44875,14.34375 L4.32375,14.7375 C3.75908157,14.8960883 3.36887365,15.4109843 3.36887365,15.9975 C3.36887365,16.5840157 3.75908157,17.0989117 4.32375,17.2575 L11.44875,19.7775 C11.8030572,19.9024457 12.1894428,19.9024457 12.54375,19.7775 L19.66875,17.2575 C20.2334184,17.0989117 20.6236263,16.5840157 20.6236263,15.9975 C20.6236263,15.4109843 20.2334184,14.8960883 19.66875,14.7375 L19.6725,14.74125 Z" id="路径" fill="#FFFFFF"></path>
            </g>
        </g>
    </g>
</svg>