<?xml version="1.0" encoding="UTF-8"?><svg version="1.1" width="24px" height="24px" viewBox="0 0 24.0 24.0" xmlns="http://www.w3.org/2000/svg" xmlns:xlink="http://www.w3.org/1999/xlink"><defs><clipPath id="i0"><path d="M3923,0 L3923,1019 L0,1019 L0,0 L3923,0 Z"></path></clipPath><clipPath id="i1"><path d="M20.3406038,0 C20.740632,-1.96086311e-15 21.1021701,0.238396854 21.2597489,0.606080701 L23.402606,5.6060807 C23.6201616,6.11371048 23.3850101,6.70158941 22.8773803,6.91914503 C22.7529034,6.97249225 22.6188878,7 22.483461,7 L1.51653902,7 C0.964254265,7 0.516539015,6.55228475 0.516539015,6 C0.516539015,5.86457322 0.544046764,5.73055755 0.597393985,5.6060807 L2.74025113,0.606080701 C2.89782992,0.238396854 3.25936805,2.95528576e-16 3.65939616,0 L20.3406038,0 Z"></path></clipPath><clipPath id="i2"><path d="M13.2273078,0 C13.4178062,1.86303739e-15 13.5917531,0.108248467 13.6758932,0.279157987 L15.6451239,4.27915799 C15.7670916,4.52690483 15.6651274,4.82661766 15.4173806,4.94858534 C15.3486753,4.9824095 15.2731186,5 15.1965386,5 L0.803461406,5 C0.527319031,5 0.303461406,4.77614237 0.303461406,4.5 C0.303461406,4.42342001 0.321051908,4.34786331 0.354876068,4.27915799 L2.32410684,0.279157987 C2.40824691,0.108248467 2.58219384,3.1521279e-16 2.77269217,0 L13.2273078,0 Z"></path></clipPath><clipPath id="i3"><path d="M4.2236068,0.670820393 C4.3203705,0.719202244 4.39883174,0.79766349 4.4472136,0.894427191 L7.6381966,7.2763932 C7.76169123,7.52338245 7.66157905,7.82371897 7.4145898,7.9472136 C7.34516209,7.98192745 7.26860555,8 7.19098301,8 L0.809016994,8 C0.532874619,8 0.309016994,7.77614237 0.309016994,7.5 C0.309016994,7.42237745 0.32708954,7.34582092 0.361803399,7.2763932 L3.5527864,0.894427191 C3.67628103,0.647437942 3.97661755,0.547325769 4.2236068,0.670820393 Z"></path></clipPath></defs><g transform="translate(-910.0 -630.0)"><g clip-path="url(#i0)"><g transform="translate(910.0 630.0)"><g transform="translate(0.0 1.0)"><g transform="translate(0.0 15.0)"><g clip-path="url(#i1)"><path d="M21.2597489,0.606080701 L23.402606,5.6060807 C23.6201616,6.11371048 23.3850101,6.70158941 22.8773803,6.91914503 C22.7529034,6.97249225 22.6188878,7 22.483461,7 L1.51653902,7 C0.964254265,7 0.516539015,6.55228475 0.516539015,6 C0.516539015,5.86457322 0.544046764,5.73055755 0.597393985,5.6060807 L2.74025113,0.606080701 C2.89782992,0.238396854 3.25936805,2.95528576e-16 3.65939616,0 L20.3406038,0 C20.740632,-1.96086311e-15 21.1021701,0.238396854 21.2597489,0.606080701 Z" stroke="#FFFFFF" stroke-width="3" fill="none" stroke-linejoin="round" opacity="50%"></path></g></g><g transform="translate(4.0 9.0)"><g clip-path="url(#i2)"><polygon points="0.303461406,0 15.6966505,0 15.6966505,5 0.303461406,5 0.303461406,0" stroke="none" fill="#FFFFFF"></polygon><path d="M13.6758932,0.279157987 L15.6451239,4.27915799 C15.7670916,4.52690483 15.6651274,4.82661766 15.4173806,4.94858534 C15.3486753,4.9824095 15.2731186,5 15.1965386,5 L0.803461406,5 C0.527319031,5 0.303461406,4.77614237 0.303461406,4.5 C0.303461406,4.42342001 0.321051908,4.34786331 0.354876068,4.27915799 L2.32410684,0.279157987 C2.40824691,0.108248467 2.58219384,3.1521279e-16 2.77269217,0 L13.2273078,0 C13.4178062,1.86303739e-15 13.5917531,0.108248467 13.6758932,0.279157987 Z" stroke="#FFFFFF" stroke-width="3" fill="none" stroke-linejoin="round"></path></g></g><g transform="translate(8.0 0.0)"><g opacity="50%"><g clip-path="url(#i3)"><polygon points="0.309016994,0.61792446 7.69109253,0.61792446 7.69109253,8 0.309016994,8 0.309016994,0.61792446" stroke="none" fill="#FFFFFF"></polygon></g><g clip-path="url(#i3)"><path d="M4.4472136,0.894427191 L7.6381966,7.2763932 C7.76169123,7.52338245 7.66157905,7.82371897 7.4145898,7.9472136 C7.34516209,7.98192745 7.26860555,8 7.19098301,8 L0.809016994,8 C0.532874619,8 0.309016994,7.77614237 0.309016994,7.5 C0.309016994,7.42237745 0.32708954,7.34582092 0.361803399,7.2763932 L3.5527864,0.894427191 C3.67628103,0.647437942 3.97661755,0.547325769 4.2236068,0.670820393 C4.3203705,0.719202244 4.39883174,0.79766349 4.4472136,0.894427191 Z" stroke="#FFFFFF" stroke-width="3" fill="none" stroke-linejoin="round"></path></g></g></g></g></g></g></g></svg>