<?xml version="1.0" encoding="UTF-8"?><svg version="1.1" width="24px" height="24px" viewBox="0 0 24.0 24.0" xmlns="http://www.w3.org/2000/svg" xmlns:xlink="http://www.w3.org/1999/xlink"><defs><clipPath id="i0"><path d="M3923,0 L3923,1019 L0,1019 L0,0 L3923,0 Z"></path></clipPath></defs><g transform="translate(-301.0 -207.0)"><g clip-path="url(#i0)"><g transform="translate(301.0000000000009 230.99999999999977) scale(1.0 -1.0)"><g transform="translate(1.5 2.249999998881151)"><path d="M18,15.3401681 L18,18.3515625 C18,19.4000406 17.2444805,20.25 16.3125,20.25 L1.6875,20.25 C0.755519485,20.25 0,19.4000406 0,18.3515625 L0,1.8984375 C0,0.84995942 0.755519485,0 1.6875,0 L4.49864179,0" stroke="#FFFFFF" stroke-width="1.5" fill="none" stroke-linecap="round" stroke-linejoin="round"></path><g transform="translate(5.728325604143578 14.521016856582154) scale(1.0 -1.0)"><path d="M0.0192380262,0.637489562 L3.6710379,13.4187891 C3.74690004,13.6843066 4.02364293,13.8380527 4.28916044,13.7621905 C4.43378426,13.7208694 4.55212258,13.6166378 4.61137239,13.4783882 L7.2716744,7.27101686 L7.2716744,7.27101686 L13.4761166,4.62646145 C13.7301458,4.5181851 13.8483019,4.22447841 13.7400255,3.97044919 C13.6809874,3.83193859 13.5626743,3.72740785 13.4179443,3.68588743 L0.637879391,0.0195155631 C0.372443921,-0.056633122 0.0955352505,0.096814136 0.0193865654,0.362249607 C-0.00641160327,0.452175638 -0.00646306642,0.547535737 0.0192380262,0.637489562 Z" stroke="#FFFFFF" stroke-width="1.5" fill="none" stroke-linejoin="round"></path></g><g transform="translate(13.359598091230332 2.3658737638718152)"><path d="M4.5622874,0 L0,4.5622874" stroke="#FFFFFF" stroke-width="1.5" fill="none" stroke-linecap="round" stroke-miterlimit="10"></path></g></g></g></g></g></svg>