<?xml version="1.0" encoding="UTF-8"?>
<svg width="16px" height="18px" viewBox="0 0 16 18" version="1.1" xmlns="http://www.w3.org/2000/svg" xmlns:xlink="http://www.w3.org/1999/xlink">
    <title>漫游</title>
    <g id="崂山" stroke="none" stroke-width="1" fill="none" fill-rule="evenodd">
        <g id="漫游" transform="translate(-258.000000, -685.000000)" fill-rule="nonzero">
            <g transform="translate(258.000000, 685.500000)">
                <rect id="矩形" fill="#000000" opacity="0" x="0" y="1.5" width="16" height="16"></rect>
                <path d="M12.66,13.68 C13.8333333,13.954 14.5,14.309 14.5,14.9566667 C14.5,16.104 11.7103333,16.6666667 8,16.6666667 L7.70533333,16.6653333 C4.143,16.6366667 1.5,16.0733333 1.5,14.9566667 C1.5,14.3426667 2.09666667,13.9986667 3.14166667,13.7286667 C3.40634097,13.6664276 3.6722307,13.8271111 3.74021976,14.0903647 C3.80820881,14.3536184 3.65337428,14.6229503 3.39166667,14.6966667 C3.09666667,14.7733333 2.85866667,14.855 2.68833333,14.936 L2.64666667,14.9563333 L2.68666667,14.9763333 C2.92533334,15.09 3.28533334,15.2006667 3.74033333,15.298 L3.85633333,15.322 C4.939,15.5403333 6.41833333,15.6666667 8,15.6666667 C9.582,15.6666667 11.0613333,15.5403333 12.144,15.322 C12.6146667,15.227 12.9923333,15.118 13.251,15.0046667 L13.3133333,14.9763333 L13.353,14.9563333 L13.3243333,14.942 C13.138,14.8513333 12.8703333,14.7613333 12.535,14.6783333 L12.4326667,14.6536667 C12.163704,14.5907983 11.9966316,14.321796 12.0595,14.0528333 C12.1223684,13.7838707 12.3913707,13.6167983 12.6603333,13.6796667 L12.66,13.68 Z M8,0 C11.5901081,0 14.5,2.91024324 14.5,6.5 C14.5,10.0897568 11.5901081,13 8,13 C4.41024324,13 1.5,10.0897568 1.5,6.5 C1.5,2.91024324 4.41024324,0 8,0 Z M8,1.5 C5.23870969,1.5 3,3.73870969 3,6.5 C3,9.26129031 5.23870967,11.5 8,11.5 C10.7612903,11.5 13,9.26129033 13,6.5 C13,3.73870969 10.7612903,1.5 8,1.5 Z" id="形状" fill="#FFFFFF"></path>
                <path d="M9.33333333,6.5 C9.33333333,6.97635413 9.07920145,7.4165235 8.66666667,7.65470057 C8.2541319,7.89287763 7.7458681,7.89287763 7.33333332,7.65470057 C6.92079855,7.4165235 6.66666667,6.97635413 6.66666667,6.5 C6.66666667,5.76362034 7.26362034,5.16666667 8,5.16666667 C8.73637966,5.16666667 9.33333333,5.76362034 9.33333333,6.5" id="路径" fill="#FFFFFF"></path>
            </g>
        </g>
    </g>
</svg>