<?xml version="1.0" encoding="UTF-8"?>
<svg width="24px" height="24px" viewBox="0 0 24 24" version="1.1" xmlns="http://www.w3.org/2000/svg" xmlns:xlink="http://www.w3.org/1999/xlink">
    <title>记录</title>
    <g id="模型管理" stroke="none" stroke-width="1" fill="none" fill-rule="evenodd">
        <g id="上传3DT" transform="translate(-4969.000000, -438.000000)" fill="#65708A" fill-rule="nonzero">
            <g id="记录" transform="translate(4969.000000, 438.000000)">
                <rect id="矩形" opacity="0" x="0" y="0" width="24" height="24"></rect>
                <path d="M18,4 C19.1045695,4 20,4.8954305 20,6 L20,11.706 C20,12.07415 19.7014833,12.3725646 19.3333333,12.3725646 C18.9651834,12.3725646 18.666723,12.07415 18.6666667,11.706 L18.6666667,9.33333333 L5.33333333,9.33333333 L5.33333333,18 C5.33333333,18.3513333 5.605,18.6393333 5.95033333,18.6646667 L6,18.6666667 L11.234,18.6666667 C11.60215,18.666723 11.9005646,18.9651834 11.9005646,19.3333333 C11.9005646,19.7014833 11.60215,20 11.234,20 L6,20 C4.8954305,20 4,19.1045695 4,18 L4,6 C4,4.8954305 4.8954305,4 6,4 L18,4 Z M16.3026667,12.4556667 C16.823,12.4556667 17.329,12.5663333 17.7943333,12.7776667 C18.0112531,12.8760338 18.159217,13.0826541 18.1824884,13.3196957 C18.2057599,13.5567372 18.1008034,13.7881879 17.9071551,13.9268623 C17.7135068,14.0655368 17.4605864,14.0903671 17.2436667,13.992 C16.9481461,13.8577587 16.6272478,13.7885319 16.3026667,13.789 C15.0226667,13.789 13.98,14.851 13.98,16.167 C13.98,17.483 15.023,18.545 16.3026667,18.545 C17.5826667,18.545 18.6253333,17.483 18.6253333,16.167 C18.6253333,15.7988102 18.9238102,15.5003333 19.292,15.5003333 C19.6601898,15.5003333 19.9586667,15.7988102 19.9586667,16.167 C19.9586667,18.214 18.3246667,19.8783333 16.3026667,19.8783333 C14.281,19.8783333 12.6466667,18.214 12.6466667,16.167 C12.6466667,14.1203333 14.281,12.4556667 16.3026667,12.4556667 L16.3026667,12.4556667 Z M9.52366667,14.6666667 C9.89181665,14.666723 10.1902313,14.9651834 10.1902313,15.3333333 C10.1902313,15.7014833 9.89181665,15.9999436 9.52366667,16 L7.33333333,16 C6.96518335,15.9999436 6.66676872,15.7014833 6.66676872,15.3333333 C6.66676872,14.9651834 6.96518335,14.666723 7.33333333,14.6666667 L9.52366667,14.6666667 L9.52366667,14.6666667 Z M12.3333333,11.3333333 C12.7015232,11.3333333 13,11.6318102 13,12 C13,12.3681898 12.7015232,12.6666667 12.3333333,12.6666667 L7.33333333,12.6666667 C6.96514349,12.6666667 6.66666666,12.3681898 6.66666666,12 C6.66666666,11.6318102 6.96514349,11.3333333 7.33333333,11.3333333 L12.3333333,11.3333333 L12.3333333,11.3333333 Z M18,5.33333333 L6,5.33333333 C5.63181016,5.33333333 5.33333333,5.63181016 5.33333333,6 L5.33333333,8 L18.6666667,8 L18.6666667,6 C18.6666667,5.6510061 18.3976907,5.36100004 18.0496667,5.335 L18,5.33333333 Z" id="形状"></path>
            </g>
        </g>
    </g>
</svg>