<?xml version="1.0" encoding="UTF-8"?>
<svg width="24px" height="24px" viewBox="0 0 24 24" version="1.1" xmlns="http://www.w3.org/2000/svg" xmlns:xlink="http://www.w3.org/1999/xlink">
    <title>摄像头</title>
    <g id="崂山" stroke="none" stroke-width="1" fill="none" fill-rule="evenodd">
        <g id="监控设备" transform="translate(-255.000000, -470.000000)" fill-rule="nonzero">
            <g id="摄像头" transform="translate(267.000000, 482.000000) scale(-1, 1) translate(-267.000000, -482.000000) translate(255.000000, 470.000000)">
                <rect id="矩形" fill="#000000" opacity="0" x="0" y="0" width="24" height="24"></rect>
                <path d="M16.8,5.35999999 C16.16,5.35999999 15.6,5.91999998 15.6,6.55999999 C15.6,7.2 16.16,7.75999999 16.8,7.75999999 C17.44,7.75999999 18,7.2 18,6.55999999 C18,5.91999998 17.44,5.35999999 16.8,5.35999999 Z M0,12.08 L4.15999999,17.36 L5.76,16.8 L1.60000001,11.52 L0,12.08 Z M23.12,11.28 L20.24,2.16 C20.16,1.99999999 20,1.75999999 19.84,1.68 C19.68,1.60000001 19.44,1.60000001 19.2,1.68 L1.2,8.23999999 C0.96,8.31999998 0.799999992,8.55999998 0.72,8.80000001 C0.640000008,9.04000001 0.72,9.28000001 0.880000008,9.52000001 L7.2,17.44 C7.36000001,17.6 7.60000001,17.76 7.84000001,17.76 C7.92,17.76 8.00000002,17.76 8.08000001,17.68 L22.72,12.32 C23.12,12.16 23.28,11.68 23.12,11.28 Z M8.08000001,15.92 L2.80000001,9.28000001 L19.04,3.36 L21.36,11.04 L8.08000001,15.92 Z M21.6,16.16 L21.6,18.56 L18.08,18.56 L17.2,16.88 L21.76,15.2 L21.2,13.68 L9.6,17.92 L10.64,19.28 L15.68,17.44 L16.88,19.76 C17.04,20 17.28,20.24 17.6,20.24 L21.6,20.24 L21.6,22.4 L23.2,22.4 L23.2,16.16 L21.6,16.16 Z" id="形状" fill="#FFFFFF"></path>
            </g>
        </g>
    </g>
</svg>